<svg xmlns="http://www.w3.org/2000/svg" xmlns:xlink="http://www.w3.org/1999/xlink" contentStyleType="text/css" data-diagram-type="SEQUENCE" height="745px" preserveAspectRatio="none" style="width:1171px;height:745px;background:#FFFFFF;" version="1.1" viewBox="0 0 1171 745" width="1171px" zoomAndPan="magnify"><?plantuml 1.2026.3?><defs/><g><g class="title" data-source-line="1"><text fill="#000000" font-family="sans-serif" font-size="14" font-weight="700" lengthAdjust="spacing" textLength="58.8096" x="552.7319" y="27.9951">&#21551;&#21160;&#20805;&#30005;&#26102;&#24207;&#22270;</text></g><g class="participant-lifeline" data-entity-uid="part1" data-qualified-name="U" data-source-line="2" id="part1-lifeline"><g><title>..</title><rect fill="#000000" fill-opacity="0.00000" height="544.3906" width="8" x="14.5" y="118.5938"/><line style="stroke:#181818;stroke-width:0.5;stroke-dasharray:5,5;" x1="18" x2="18" y1="118.5938" y2="662.9844"/></g></g><g class="participant-lifeline" data-entity-uid="part2" data-qualified-name="FE" data-source-line="3" id="part2-lifeline"><g><title>..</title><rect fill="#000000" fill-opacity="0.00000" height="544.3906" width="8" x="144.0742" y="118.5938"/><line style="stroke:#181818;stroke-width:0.5;stroke-dasharray:5,5;" x1="147.6729" x2="147.6729" y1="118.5938" y2="662.9844"/></g></g><g class="participant-lifeline" data-entity-uid="part3" data-qualified-name="Ctrl" data-source-line="4" id="part3-lifeline"><g><title>.....</title><rect fill="#000000" fill-opacity="0.00000" height="544.3906" width="8" x="428.9883" y="118.5938"/><line style="stroke:#181818;stroke-width:0.5;stroke-dasharray:5,5;" x1="432.9849" x2="432.9849" y1="118.5938" y2="662.9844"/></g></g><g class="participant-lifeline" data-entity-uid="part4" data-qualified-name="US" data-source-line="5" id="part4-lifeline"><g><title>....</title><rect fill="#000000" fill-opacity="0.00000" height="544.3906" width="8" x="561.9902" y="118.5938"/><line style="stroke:#181818;stroke-width:0.5;stroke-dasharray:5,5;" x1="565.1875" x2="565.1875" y1="118.5938" y2="662.9844"/></g></g><g class="participant-lifeline" data-entity-uid="part5" data-qualified-name="CS" data-source-line="6" id="part5-lifeline"><g><title>.....</title><rect fill="#000000" fill-opacity="0.00000" height="544.3906" width="8" x="623.7964" y="118.5938"/><line style="stroke:#181818;stroke-width:0.5;stroke-dasharray:5,5;" x1="627.793" x2="627.793" y1="118.5938" y2="662.9844"/></g></g><g class="participant-lifeline" data-entity-uid="part6" data-qualified-name="DB" data-source-line="7" id="part6-lifeline"><g><title>...</title><rect fill="#000000" fill-opacity="0.00000" height="544.3906" width="8" x="1138.2734" y="118.5938"/><line style="stroke:#181818;stroke-width:0.5;stroke-dasharray:5,5;" x1="1142.2734" x2="1142.2734" y1="118.5938" y2="662.9844"/></g></g><g class="participant participant-head" data-entity-uid="part1" data-qualified-name="U" data-source-line="2" id="part1-head"><text fill="#000000" font-family="sans-serif" font-size="14" lengthAdjust="spacing" textLength="16.8027" x="7.0986" y="115.292">&#29992;&#25143;</text><ellipse cx="18.5" cy="50.7969" fill="#E2E2F0" rx="8" ry="8" style="stroke:#181818;stroke-width:0.5;"/><path d="M18.5,58.7969 L18.5,85.7969 M5.5,66.7969 L31.5,66.7969 M18.5,85.7969 L5.5,100.7969 M18.5,85.7969 L31.5,100.7969" fill="none" style="stroke:#181818;stroke-width:0.5;"/></g><g class="participant participant-tail" data-entity-uid="part1" data-qualified-name="U" data-source-line="2" id="part1-tail"><text fill="#000000" font-family="sans-serif" font-size="14" lengthAdjust="spacing" textLength="16.8027" x="7.0986" y="674.9795">&#29992;&#25143;</text><ellipse cx="18.5" cy="686.7813" fill="#E2E2F0" rx="8" ry="8" style="stroke:#181818;stroke-width:0.5;"/><path d="M18.5,694.7813 L18.5,721.7813 M5.5,702.7813 L31.5,702.7813 M18.5,721.7813 L5.5,736.7813 M18.5,721.7813 L31.5,736.7813" fill="none" style="stroke:#181818;stroke-width:0.5;"/></g><g class="participant participant-head" data-entity-uid="part2" data-qualified-name="FE" data-source-line="3" id="part2-head"><rect fill="#E2E2F0" height="30.2969" rx="2.5" ry="2.5" style="stroke:#181818;stroke-width:0.5;" width="30.8027" x="132.6729" y="87.2969"/><text fill="#000000" font-family="sans-serif" font-size="14" lengthAdjust="spacing" textLength="16.8027" x="139.6729" y="107.292">&#21069;&#31471;</text></g><g class="participant participant-tail" data-entity-uid="part2" data-qualified-name="FE" data-source-line="3" id="part2-tail"><rect fill="#E2E2F0" height="30.2969" rx="2.5" ry="2.5" style="stroke:#181818;stroke-width:0.5;" width="30.8027" x="132.6729" y="661.9844"/><text fill="#000000" font-family="sans-serif" font-size="14" lengthAdjust="spacing" textLength="16.8027" x="139.6729" y="681.9795">&#21069;&#31471;</text></g><g class="participant participant-head" data-entity-uid="part3" data-qualified-name="Ctrl" data-source-line="4" id="part3-head"><rect fill="#E2E2F0" height="30.2969" rx="2.5" ry="2.5" style="stroke:#181818;stroke-width:0.5;" width="56.0068" x="404.9849" y="87.2969"/><text fill="#000000" font-family="sans-serif" font-size="14" lengthAdjust="spacing" textLength="42.0068" x="411.9849" y="107.292">&#20805;&#30005;&#25511;&#21046;&#22120;</text></g><g class="participant participant-tail" data-entity-uid="part3" data-qualified-name="Ctrl" data-source-line="4" id="part3-tail"><rect fill="#E2E2F0" height="30.2969" rx="2.5" ry="2.5" style="stroke:#181818;stroke-width:0.5;" width="56.0068" x="404.9849" y="661.9844"/><text fill="#000000" font-family="sans-serif" font-size="14" lengthAdjust="spacing" textLength="42.0068" x="411.9849" y="681.9795">&#20805;&#30005;&#25511;&#21046;&#22120;</text></g><g class="participant participant-head" data-entity-uid="part4" data-qualified-name="US" data-source-line="5" id="part4-head"><rect fill="#E2E2F0" height="30.2969" rx="2.5" ry="2.5" style="stroke:#181818;stroke-width:0.5;" width="47.6055" x="542.1875" y="87.2969"/><text fill="#000000" font-family="sans-serif" font-size="14" lengthAdjust="spacing" textLength="33.6055" x="549.1875" y="107.292">&#29992;&#25143;&#26381;&#21153;</text></g><g class="participant participant-tail" data-entity-uid="part4" data-qualified-name="US" data-source-line="5" id="part4-tail"><rect fill="#E2E2F0" height="30.2969" rx="2.5" ry="2.5" style="stroke:#181818;stroke-width:0.5;" width="47.6055" x="542.1875" y="661.9844"/><text fill="#000000" font-family="sans-serif" font-size="14" lengthAdjust="spacing" textLength="33.6055" x="549.1875" y="681.9795">&#29992;&#25143;&#26381;&#21153;</text></g><g class="participant participant-head" data-entity-uid="part5" data-qualified-name="CS" data-source-line="6" id="part5-head"><rect fill="#E2E2F0" height="30.2969" rx="2.5" ry="2.5" style="stroke:#181818;stroke-width:0.5;" width="56.0068" x="599.793" y="87.2969"/><text fill="#000000" font-family="sans-serif" font-size="14" lengthAdjust="spacing" textLength="42.0068" x="606.793" y="107.292">&#20805;&#30005;&#26729;&#26381;&#21153;</text></g><g class="participant participant-tail" data-entity-uid="part5" data-qualified-name="CS" data-source-line="6" id="part5-tail"><rect fill="#E2E2F0" height="30.2969" rx="2.5" ry="2.5" style="stroke:#181818;stroke-width:0.5;" width="56.0068" x="599.793" y="661.9844"/><text fill="#000000" font-family="sans-serif" font-size="14" lengthAdjust="spacing" textLength="42.0068" x="606.793" y="681.9795">&#20805;&#30005;&#26729;&#26381;&#21153;</text></g><g class="participant participant-head" data-entity-uid="part6" data-qualified-name="DB" data-source-line="7" id="part6-head"><text fill="#000000" font-family="sans-serif" font-size="14" lengthAdjust="spacing" textLength="25.2041" x="1126.6714" y="115.292">&#25968;&#25454;&#24211;</text><path d="M1124.2734,66.2969 C1124.2734,56.2969 1142.2734,56.2969 1142.2734,56.2969 C1142.2734,56.2969 1160.2734,56.2969 1160.2734,66.2969 L1160.2734,92.2969 C1160.2734,102.2969 1142.2734,102.2969 1142.2734,102.2969 C1142.2734,102.2969 1124.2734,102.2969 1124.2734,92.2969 L1124.2734,66.2969" fill="#E2E2F0" style="stroke:#181818;stroke-width:0.5;"/><path d="M1124.2734,66.2969 C1124.2734,76.2969 1142.2734,76.2969 1142.2734,76.2969 C1142.2734,76.2969 1160.2734,76.2969 1160.2734,66.2969" fill="none" style="stroke:#181818;stroke-width:0.5;"/></g><g class="participant participant-tail" data-entity-uid="part6" data-qualified-name="DB" data-source-line="7" id="part6-tail"><text fill="#000000" font-family="sans-serif" font-size="14" lengthAdjust="spacing" textLength="25.2041" x="1126.6714" y="674.9795">&#25968;&#25454;&#24211;</text><path d="M1124.2734,688.2813 C1124.2734,678.2813 1142.2734,678.2813 1142.2734,678.2813 C1142.2734,678.2813 1160.2734,678.2813 1160.2734,688.2813 L1160.2734,714.2813 C1160.2734,724.2813 1142.2734,724.2813 1142.2734,724.2813 C1142.2734,724.2813 1124.2734,724.2813 1124.2734,714.2813 L1124.2734,688.2813" fill="#E2E2F0" style="stroke:#181818;stroke-width:0.5;"/><path d="M1124.2734,688.2813 C1124.2734,698.2813 1142.2734,698.2813 1142.2734,698.2813 C1142.2734,698.2813 1160.2734,698.2813 1160.2734,688.2813" fill="none" style="stroke:#181818;stroke-width:0.5;"/></g><g class="message" data-entity-1="part1" data-entity-2="part2" data-source-line="9" id="msg1"><polygon fill="#181818" points="136.0742,145.7266,146.0742,149.7266,136.0742,153.7266,140.0742,149.7266" style="stroke:#181818;stroke-width:1;"/><line style="stroke:#181818;stroke-width:1;" x1="18.5" x2="142.0742" y1="149.7266" y2="149.7266"/><text fill="#000000" font-family="sans-serif" font-size="13" lengthAdjust="spacing" textLength="105.5742" x="25.5" y="144.6606">&#36873;&#25321;&#20805;&#30005;&#26729;&#65292;&#28857;&#20987;"&#21551;&#21160;&#20805;&#30005;"</text></g><g class="message" data-entity-1="part2" data-entity-2="part3" data-source-line="10" id="msg2"><polygon fill="#181818" points="420.9883,174.8594,430.9883,178.8594,420.9883,182.8594,424.9883,178.8594" style="stroke:#181818;stroke-width:1;"/><line style="stroke:#181818;stroke-width:1;" x1="148.0742" x2="426.9883" y1="178.8594" y2="178.8594"/><text fill="#000000" font-family="sans-serif" font-size="13" lengthAdjust="spacing" textLength="260.9141" x="155.0742" y="173.7935">POST /charges/start {userId, chargerId}</text></g><g class="message" data-entity-1="part3" data-entity-2="part4" data-source-line="11" id="msg3"><polygon fill="#181818" points="553.9902,203.9922,563.9902,207.9922,553.9902,211.9922,557.9902,207.9922" style="stroke:#181818;stroke-width:1;"/><line style="stroke:#181818;stroke-width:1;" x1="432.9883" x2="559.9902" y1="207.9922" y2="207.9922"/><text fill="#000000" font-family="sans-serif" font-size="13" lengthAdjust="spacing" textLength="46.8076" x="439.9883" y="202.9263">&#26597;&#35810;&#29992;&#25143;&#20449;&#24687;</text></g><g class="message" data-entity-1="part4" data-entity-2="part6" data-source-line="12" id="msg4"><polygon fill="#181818" points="1130.2734,233.125,1140.2734,237.125,1130.2734,241.125,1134.2734,237.125" style="stroke:#181818;stroke-width:1;"/><line style="stroke:#181818;stroke-width:1;" x1="565.9902" x2="1136.2734" y1="237.125" y2="237.125"/><text fill="#000000" font-family="sans-serif" font-size="13" lengthAdjust="spacing" textLength="235.1997" x="572.9902" y="232.0591">SELECT * FROM users WHERE id = ?</text></g><g class="message" data-entity-1="part6" data-entity-2="part4" data-source-line="13" id="msg5"><polygon fill="#181818" points="576.9902,262.2578,566.9902,266.2578,576.9902,270.2578,572.9902,266.2578" style="stroke:#181818;stroke-width:1;"/><line style="stroke:#181818;stroke-width:1;stroke-dasharray:2,2;" x1="570.9902" x2="1141.2734" y1="266.2578" y2="266.2578"/><text fill="#000000" font-family="sans-serif" font-size="13" lengthAdjust="spacing" textLength="31.2051" x="582.9902" y="261.1919">&#29992;&#25143;&#20449;&#24687;</text></g><g class="message" data-entity-1="part4" data-entity-2="part3" data-source-line="14" id="msg6"><polygon fill="#181818" points="443.9883,291.3906,433.9883,295.3906,443.9883,299.3906,439.9883,295.3906" style="stroke:#181818;stroke-width:1;"/><line style="stroke:#181818;stroke-width:1;stroke-dasharray:2,2;" x1="437.9883" x2="564.9902" y1="295.3906" y2="295.3906"/><text fill="#000000" font-family="sans-serif" font-size="13" lengthAdjust="spacing" textLength="109.002" x="449.9883" y="290.3247">&#29992;&#25143;&#23384;&#22312;&#65292;&#20313;&#39069; &gt;= 10&#20803;</text></g><g class="message" data-entity-1="part3" data-entity-2="part5" data-source-line="16" id="msg7"><polygon fill="#181818" points="615.7964,320.5234,625.7964,324.5234,615.7964,328.5234,619.7964,324.5234" style="stroke:#181818;stroke-width:1;"/><line style="stroke:#181818;stroke-width:1;" x1="432.9883" x2="621.7964" y1="324.5234" y2="324.5234"/><text fill="#000000" font-family="sans-serif" font-size="13" lengthAdjust="spacing" textLength="54.6089" x="439.9883" y="319.4575">&#26597;&#35810;&#20805;&#30005;&#26729;&#29366;&#24577;</text></g><g class="message" data-entity-1="part5" data-entity-2="part6" data-source-line="17" id="msg8"><polygon fill="#181818" points="1130.2734,349.6563,1140.2734,353.6563,1130.2734,357.6563,1134.2734,353.6563" style="stroke:#181818;stroke-width:1;"/><line style="stroke:#181818;stroke-width:1;" x1="627.7964" x2="1136.2734" y1="353.6563" y2="353.6563"/><text fill="#000000" font-family="sans-serif" font-size="13" lengthAdjust="spacing" textLength="290.583" x="634.7964" y="348.5903">SELECT status FROM chargers WHERE id = ?</text></g><g class="message" data-entity-1="part6" data-entity-2="part5" data-source-line="18" id="msg9"><polygon fill="#181818" points="638.7964,378.7891,628.7964,382.7891,638.7964,386.7891,634.7964,382.7891" style="stroke:#181818;stroke-width:1;"/><line style="stroke:#181818;stroke-width:1;stroke-dasharray:2,2;" x1="632.7964" x2="1141.2734" y1="382.7891" y2="382.7891"/><text fill="#000000" font-family="sans-serif" font-size="13" lengthAdjust="spacing" textLength="82.5767" x="644.7964" y="377.7231">status = idle</text></g><g class="message" data-entity-1="part5" data-entity-2="part3" data-source-line="19" id="msg10"><polygon fill="#181818" points="443.9883,407.9219,433.9883,411.9219,443.9883,415.9219,439.9883,411.9219" style="stroke:#181818;stroke-width:1;"/><line style="stroke:#181818;stroke-width:1;stroke-dasharray:2,2;" x1="437.9883" x2="626.7964" y1="411.9219" y2="411.9219"/><text fill="#000000" font-family="sans-serif" font-size="13" lengthAdjust="spacing" textLength="23.4038" x="449.9883" y="406.856">&#26729;&#31354;&#38386;</text></g><g class="message" data-entity-1="part3" data-entity-2="part5" data-source-line="21" id="msg11"><polygon fill="#181818" points="615.7964,437.0547,625.7964,441.0547,615.7964,445.0547,619.7964,441.0547" style="stroke:#181818;stroke-width:1;"/><line style="stroke:#181818;stroke-width:1;" x1="432.9883" x2="621.7964" y1="441.0547" y2="441.0547"/><text fill="#000000" font-family="sans-serif" font-size="13" lengthAdjust="spacing" textLength="39.0063" x="439.9883" y="435.9888">&#38145;&#23450;&#20805;&#30005;&#26729;</text></g><g class="message" data-entity-1="part5" data-entity-2="part6" data-source-line="22" id="msg12"><polygon fill="#181818" points="1130.2734,466.1875,1140.2734,470.1875,1130.2734,474.1875,1134.2734,470.1875" style="stroke:#181818;stroke-width:1;"/><line style="stroke:#181818;stroke-width:1;" x1="627.7964" x2="1136.2734" y1="470.1875" y2="470.1875"/><text fill="#000000" font-family="sans-serif" font-size="13" lengthAdjust="spacing" textLength="490.4771" x="634.7964" y="465.1216">UPDATE chargers SET status = 'charging' WHERE id = ? AND status = 'idle'</text></g><g class="message" data-entity-1="part6" data-entity-2="part5" data-source-line="23" id="msg13"><polygon fill="#181818" points="638.7964,495.3203,628.7964,499.3203,638.7964,503.3203,634.7964,499.3203" style="stroke:#181818;stroke-width:1;"/><line style="stroke:#181818;stroke-width:1;stroke-dasharray:2,2;" x1="632.7964" x2="1141.2734" y1="499.3203" y2="499.3203"/><text fill="#000000" font-family="sans-serif" font-size="13" lengthAdjust="spacing" textLength="31.2051" x="644.7964" y="494.2544">&#26356;&#26032;&#25104;&#21151;</text></g><g class="message" data-entity-1="part3" data-entity-2="part6" data-source-line="25" id="msg14"><polygon fill="#181818" points="1130.2734,524.4531,1140.2734,528.4531,1130.2734,532.4531,1134.2734,528.4531" style="stroke:#181818;stroke-width:1;"/><line style="stroke:#181818;stroke-width:1;" x1="432.9883" x2="1136.2734" y1="528.4531" y2="528.4531"/><text fill="#000000" font-family="sans-serif" font-size="13" lengthAdjust="spacing" textLength="467.9238" x="439.9883" y="523.3872">INSERT INTO charge_records (id, user_id, charger_id, start_time, status)</text></g><g class="message" data-entity-1="part6" data-entity-2="part3" data-source-line="26" id="msg15"><polygon fill="#181818" points="443.9883,553.5859,433.9883,557.5859,443.9883,561.5859,439.9883,557.5859" style="stroke:#181818;stroke-width:1;"/><line style="stroke:#181818;stroke-width:1;stroke-dasharray:2,2;" x1="437.9883" x2="1141.2734" y1="557.5859" y2="557.5859"/><text fill="#000000" font-family="sans-serif" font-size="13" lengthAdjust="spacing" textLength="31.2051" x="449.9883" y="552.52">&#21019;&#24314;&#25104;&#21151;</text></g><g class="message" data-entity-1="part3" data-entity-2="part6" data-source-line="28" id="msg16"><polygon fill="#181818" points="1130.2734,582.7188,1140.2734,586.7188,1130.2734,590.7188,1134.2734,586.7188" style="stroke:#181818;stroke-width:1;"/><line style="stroke:#181818;stroke-width:1;" x1="432.9883" x2="1136.2734" y1="586.7188" y2="586.7188"/><text fill="#000000" font-family="sans-serif" font-size="13" lengthAdjust="spacing" textLength="313.6948" x="439.9883" y="581.6528">INSERT INTO audit_logs ... action='start_charge'</text></g><g class="message" data-entity-1="part3" data-entity-2="part2" data-source-line="29" id="msg17"><polygon fill="#181818" points="159.0742,611.8516,149.0742,615.8516,159.0742,619.8516,155.0742,615.8516" style="stroke:#181818;stroke-width:1;"/><line style="stroke:#181818;stroke-width:1;stroke-dasharray:2,2;" x1="153.0742" x2="431.9883" y1="615.8516" y2="615.8516"/><text fill="#000000" font-family="sans-serif" font-size="13" lengthAdjust="spacing" textLength="184.5645" x="165.0742" y="610.7856">&#20805;&#30005;&#24050;&#21551;&#21160; {recordId, startTime}</text></g><g class="message" data-entity-1="part2" data-entity-2="part1" data-source-line="30" id="msg18"><polygon fill="#181818" points="29.5,640.9844,19.5,644.9844,29.5,648.9844,25.5,644.9844" style="stroke:#181818;stroke-width:1;"/><line style="stroke:#181818;stroke-width:1;stroke-dasharray:2,2;" x1="23.5" x2="147.0742" y1="644.9844" y2="644.9844"/><text fill="#000000" font-family="sans-serif" font-size="13" lengthAdjust="spacing" textLength="66.5679" x="35.5" y="639.9185">&#26174;&#31034;"&#20805;&#30005;&#20013;"&#29366;&#24577;</text></g><?plantuml-src XPFHRX9158RlvobEk45DI_MMX9h2Bf54IyFkffTaXGrEWj3i3bTDaw8XKXHjKhIjr3Gq6Y6cfMcKAjNwCioiNFaApkoi2sYJNkrcpZd___rxPWacHGleTfyskhHMSrjVsEw03b_HzYKoSwHiWzlgilevc0uOQCsq2SxXDRD4W6urtKzzSPvKPmjIvkL7MX_G_QxeI12xEDCZHTb1apOwdhHsbKIdD-b8Q2Xl4lEXwLZ0Nf-ovWaTxeY24aV8WFb5ZX65yUOMUzuBndz_V-4--KQVNOIc4uPGKXK3WYeAAsbDXuNS8zCkMCw2GpW6h5SSoqxbvq0UyzSD9Bh5bA55WHr--DK_aY56FpkisaU69efAF0gQUbzDw70Bafdq0n1A3gpUKpCgu3p4u2vIuZ3l2_qd4M392ZtUemTT7cFqOtzyz0uMOt3dDgqzHG5E8i09KhkD0TkieiI_H3mRgJWIomzsDPdGz9jZl5IqFAq0JLZqXkFTircASQjAJzu655F-negofAiJJqtL9_fXxnYN2k4P5bXQLgQQ14Luce-rFxCtfwo-JHk74mxXbbhMr8pE7thQjypQLgvivnsuWVbEnKQoUB9SxztRUvRWnzQSxtepSFD2qtgRNWolypChUKoonNB1WKWa0lmFmkLIB2pLfL_O7_PlhFnUzFnCtb1ObwoflqmwHzhmBgouCZpttgNxVXYIOwElno6vxJy0?></g></svg>