<svg xmlns="http://www.w3.org/2000/svg" xmlns:xlink="http://www.w3.org/1999/xlink" width="668" height="1667" contentStyleType="text/css" data-diagram-type="ACTIVITY" style="width:668px;height:1667px;background:#fff" preserveAspectRatio="none" version="1.1" viewBox="0 0 668 1667" zoomAndPan="magnify"><?plantuml 1.2026.4?><g><g class="title" data-source-line="3"><text x="295.403" y="32.995" fill="#000" font-family="'Noto Sans CJK SC'" font-size="14" font-weight="700" lengthAdjust="spacing" textLength="75.612">故障报修处理活动图</text></g><ellipse cx="254.099" cy="62.297" fill="#222" rx="10" ry="10" style="stroke:#222;stroke-width:1"/><rect style="stroke:#000;stroke-width:1.5" width="158.289" height="140.891" x="174.954" y="82.297" fill="none"/><path fill="none" d="M201.7571,82.2969 L201.7571,91.5938 L191.7571,101.5938 L174.9543,101.5938" style="stroke:#000;stroke-width:1.5"/><text x="177.954" y="96.292" fill="#000" font-family="'Noto Sans CJK SC'" font-size="14" lengthAdjust="spacing" textLength="16.803">用户</text><rect style="stroke:#181818;stroke-width:.5" width="53.605" height="36.297" x="227.296" y="118.594" fill="#F1F1F1" rx="12.5" ry="12.5"/><text x="237.296" y="141.589" fill="#000" font-family="'Noto Sans CJK SC'" font-size="14" lengthAdjust="spacing" textLength="33.605">发现故障</text><rect style="stroke:#181818;stroke-width:.5" width="138.289" height="36.297" x="184.954" y="174.891" fill="#F1F1F1" rx="12.5" ry="12.5"/><text x="194.954" y="197.886" fill="#000" font-family="'Noto Sans CJK SC'" font-size="14" lengthAdjust="spacing" textLength="118.289">提交报修单 [状态: open]</text><rect style="stroke:#000;stroke-width:1.5" width="191.375" height="157.188" x="158.411" y="233.188" fill="none"/><path fill="none" d="M185.2141,233.1875 L185.2141,242.4844 L175.2141,252.4844 L158.4114,252.4844" style="stroke:#000;stroke-width:1.5"/><text x="161.411" y="247.183" fill="#000" font-family="'Noto Sans CJK SC'" font-size="14" lengthAdjust="spacing" textLength="16.803">系统</text><rect style="stroke:#181818;stroke-width:.5" width="116.893" height="36.297" x="195.653" y="269.484" fill="#F1F1F1" rx="12.5" ry="12.5"/><text x="205.653" y="292.479" fill="#000" font-family="'Noto Sans CJK SC'" font-size="14" lengthAdjust="spacing" textLength="96.893">将充电桩状态设为&quot;故障&quot;</text><rect style="stroke:#181818;stroke-width:.5" width="171.375" height="52.594" x="168.411" y="325.781" fill="#F1F1F1" rx="12.5" ry="12.5"/><text x="178.411" y="348.776" fill="#000" font-family="'Noto Sans CJK SC'" font-size="14" lengthAdjust="spacing" textLength="50.408">记录审计日志</text><text x="178.411" y="365.073" fill="#000" font-family="'Noto Sans CJK SC'" font-size="14" lengthAdjust="spacing" textLength="151.375">action=submit_repair</text><rect style="stroke:#000;stroke-width:1.5" width="555.077" height="345.781" x="28" y="400.375" fill="none"/><path fill="none" d="M63.2041,400.375 L63.2041,409.6719 L53.2041,419.6719 L28,419.6719" style="stroke:#000;stroke-width:1.5"/><text x="31" y="414.37" fill="#000" font-family="'Noto Sans CJK SC'" font-size="14" lengthAdjust="spacing" textLength="25.204">管理员</text><rect style="stroke:#181818;stroke-width:.5" width="78.81" height="36.297" x="214.694" y="436.672" fill="#F1F1F1" rx="12.5" ry="12.5"/><text x="224.694" y="459.667" fill="#000" font-family="'Noto Sans CJK SC'" font-size="14" lengthAdjust="spacing" textLength="58.81">查看未处理报修</text><polygon fill="#F1F1F1" points="225.179 492.969 283.018 492.969 295.018 504.969 283.018 516.969 225.179 516.969 213.179 504.969 225.179 492.969" style="stroke:#181818;stroke-width:.5;stroke-linejoin:miter;stroke-miterlimit:10"/><text x="225.179" y="509.815" fill="#000" font-family="'Noto Sans CJK SC'" font-size="14" lengthAdjust="spacing" textLength="57.839">是否需要维修?</text><text x="204.778" y="501.667" fill="#000" font-family="'Noto Sans CJK SC'" font-size="14" lengthAdjust="spacing" textLength="8.401">是</text><text x="295.018" y="501.667" fill="#000" font-family="'Noto Sans CJK SC'" font-size="14" lengthAdjust="spacing" textLength="50.907">否, 直接关闭</text><rect style="stroke:#181818;stroke-width:.5" width="192.566" height="36.297" x="48" y="526.969" fill="#F1F1F1" rx="12.5" ry="12.5"/><text x="58" y="549.964" fill="#000" font-family="'Noto Sans CJK SC'" font-size="14" lengthAdjust="spacing" textLength="172.566">分配维修人员 [状态: in_progress]</text><rect style="stroke:#181818;stroke-width:.5" width="70.408" height="36.297" x="328.71" y="526.969" fill="#F1F1F1" rx="12.5" ry="12.5"/><text x="338.71" y="549.964" fill="#000" font-family="'Noto Sans CJK SC'" font-size="14" lengthAdjust="spacing" textLength="50.408">选择直接关闭</text><path fill="#FEFFDD" d="M458.063,588.2656 L458.063,597.4141 L438.063,601.4141 L458.063,605.4141 L458.063,614.5625 A0,0 0 0 0 458.063,614.5625 L563.0767,614.5625 A0,0 0 0 0 563.0767,614.5625 L563.0767,598.2656 L553.0767,588.2656 L458.063,588.2656 A0,0 0 0 0 458.063,588.2656" style="stroke:#181818;stroke-width:.5"/><path fill="#FEFFDD" d="M553.0767,588.2656 L553.0767,598.2656 L563.0767,598.2656 L553.0767,588.2656" style="stroke:#181818;stroke-width:.5"/><text x="464.063" y="606.261" fill="#000" font-family="'Noto Sans CJK SC'" font-size="14" lengthAdjust="spacing" textLength="84.014">直接关闭：桩状态不变</text><rect style="stroke:#181818;stroke-width:.5" width="148.297" height="36.297" x="289.766" y="583.266" fill="#F1F1F1" rx="12.5" ry="12.5"/><text x="299.766" y="606.261" fill="#000" font-family="'Noto Sans CJK SC'" font-size="14" lengthAdjust="spacing" textLength="128.297">关闭报修单 [状态: closed]</text><rect style="stroke:#181818;stroke-width:.5" width="206.696" height="52.594" x="260.566" y="639.563" fill="#F1F1F1" rx="12.5" ry="12.5"/><text x="270.566" y="662.558" fill="#000" font-family="'Noto Sans CJK SC'" font-size="14" lengthAdjust="spacing" textLength="50.408">记录审计日志</text><text x="270.566" y="678.855" fill="#000" font-family="'Noto Sans CJK SC'" font-size="14" lengthAdjust="spacing" textLength="186.696">action=close_repair_direct</text><ellipse cx="363.915" cy="723.156" fill="none" rx="11" ry="11" style="stroke:#222;stroke-width:1"/><ellipse cx="363.915" cy="723.156" fill="#222" rx="6" ry="6" style="stroke:#222;stroke-width:1"/><rect style="stroke:#000;stroke-width:1.5" width="90.408" height="84.594" x="208.895" y="756.156" fill="none"/><path fill="none" d="M235.6975,756.1563 L235.6975,765.4531 L225.6975,775.4531 L208.8948,775.4531" style="stroke:#000;stroke-width:1.5"/><text x="211.895" y="770.151" fill="#000" font-family="'Noto Sans CJK SC'" font-size="14" lengthAdjust="spacing" textLength="16.803">系统</text><rect style="stroke:#181818;stroke-width:.5" width="70.408" height="36.297" x="218.895" y="792.453" fill="#F1F1F1" rx="12.5" ry="12.5"/><text x="228.895" y="815.448" fill="#000" font-family="'Noto Sans CJK SC'" font-size="14" lengthAdjust="spacing" textLength="50.408">通知维修人员</text><rect style="stroke:#000;stroke-width:1.5" width="174.852" height="197.188" x="166.673" y="850.75" fill="none"/><path fill="none" d="M210.2781,850.75 L210.2781,860.0469 L200.2781,870.0469 L166.6726,870.0469" style="stroke:#000;stroke-width:1.5"/><text x="169.673" y="864.745" fill="#000" font-family="'Noto Sans CJK SC'" font-size="14" lengthAdjust="spacing" textLength="33.605">维修人员</text><rect style="stroke:#181818;stroke-width:.5" width="53.605" height="36.297" x="227.296" y="887.047" fill="#F1F1F1" rx="12.5" ry="12.5"/><text x="237.296" y="910.042" fill="#000" font-family="'Noto Sans CJK SC'" font-size="14" lengthAdjust="spacing" textLength="33.605">接收任务</text><rect style="stroke:#181818;stroke-width:.5" width="53.605" height="36.297" x="227.296" y="943.344" fill="#F1F1F1" rx="12.5" ry="12.5"/><text x="237.296" y="966.339" fill="#000" font-family="'Noto Sans CJK SC'" font-size="14" lengthAdjust="spacing" textLength="33.605">维修操作</text><rect style="stroke:#181818;stroke-width:.5" width="154.852" height="36.297" x="176.673" y="999.641" fill="#F1F1F1" rx="12.5" ry="12.5"/><text x="186.673" y="1022.636" fill="#000" font-family="'Noto Sans CJK SC'" font-size="14" lengthAdjust="spacing" textLength="134.852">维修完成 [状态: resolved]</text><rect style="stroke:#000;stroke-width:1.5" width="90.408" height="84.594" x="208.895" y="1057.938" fill="none"/><path fill="none" d="M244.0989,1057.9375 L244.0989,1067.2344 L234.0989,1077.2344 L208.8948,1077.2344" style="stroke:#000;stroke-width:1.5"/><text x="211.895" y="1071.933" fill="#000" font-family="'Noto Sans CJK SC'" font-size="14" lengthAdjust="spacing" textLength="25.204">管理员</text><rect style="stroke:#181818;stroke-width:.5" width="70.408" height="36.297" x="218.895" y="1094.234" fill="#F1F1F1" rx="12.5" ry="12.5"/><text x="228.895" y="1117.229" fill="#000" font-family="'Noto Sans CJK SC'" font-size="14" lengthAdjust="spacing" textLength="50.408">审核维修结果</text><rect style="stroke:#000;stroke-width:1.5" width="632.418" height="495.414" x="16" y="1152.531" fill="none"/><path fill="none" d="M42.8027,1152.5313 L42.8027,1161.8281 L32.8027,1171.8281 L16,1171.8281" style="stroke:#000;stroke-width:1.5"/><text x="19" y="1166.526" fill="#000" font-family="'Noto Sans CJK SC'" font-size="14" lengthAdjust="spacing" textLength="16.803">系统</text><polygon fill="#F1F1F1" points="233.581 1188.828 274.617 1188.828 286.617 1200.828 274.617 1212.828 233.581 1212.828 221.581 1200.828 233.581 1188.828" style="stroke:#181818;stroke-width:.5;stroke-linejoin:miter;stroke-miterlimit:10"/><text x="233.581" y="1205.675" fill="#000" font-family="'Noto Sans CJK SC'" font-size="14" lengthAdjust="spacing" textLength="41.036">审核通过?</text><text x="213.179" y="1197.526" fill="#000" font-family="'Noto Sans CJK SC'" font-size="14" lengthAdjust="spacing" textLength="8.401">是</text><text x="286.617" y="1197.526" fill="#000" font-family="'Noto Sans CJK SC'" font-size="14" lengthAdjust="spacing" textLength="8.401">否</text><rect style="stroke:#181818;stroke-width:.5" width="211.584" height="36.297" x="33.091" y="1222.828" fill="#F1F1F1" rx="12.5" ry="12.5"/><text x="43.091" y="1245.823" fill="#000" font-family="'Noto Sans CJK SC'" font-size="14" lengthAdjust="spacing" textLength="191.584">更新报修单状态为&quot;已关闭&quot; [状态: closed]</text><rect style="stroke:#181818;stroke-width:.5" width="125.294" height="36.297" x="76.236" y="1279.125" fill="#F1F1F1" rx="12.5" ry="12.5"/><text x="86.236" y="1302.12" fill="#000" font-family="'Noto Sans CJK SC'" font-size="14" lengthAdjust="spacing" textLength="105.294">将充电桩状态恢复为&quot;空闲&quot;</text><rect style="stroke:#181818;stroke-width:.5" width="159.364" height="52.594" x="59.201" y="1341.719" fill="#F1F1F1" rx="12.5" ry="12.5"/><text x="69.201" y="1364.714" fill="#000" font-family="'Noto Sans CJK SC'" font-size="14" lengthAdjust="spacing" textLength="50.408">记录审计日志</text><text x="69.201" y="1381.011" fill="#000" font-family="'Noto Sans CJK SC'" font-size="14" lengthAdjust="spacing" textLength="139.364">action=close_repair</text><ellipse cx="138.883" cy="1440.313" fill="none" rx="11" ry="11" style="stroke:#222;stroke-width:1"/><ellipse cx="138.883" cy="1440.313" fill="#222" rx="6" ry="6" style="stroke:#222;stroke-width:1"/><rect style="stroke:#181818;stroke-width:.5" width="70.408" height="36.297" x="334.11" y="1222.828" fill="#F1F1F1" rx="12.5" ry="12.5"/><text x="344.11" y="1245.823" fill="#000" font-family="'Noto Sans CJK SC'" font-size="14" lengthAdjust="spacing" textLength="50.408">填写退回原因</text><path fill="#FEFFDD" d="M416.1172,1279.125 L416.1172,1296.4219 L396.1172,1300.4219 L416.1172,1304.4219 L416.1172,1321.7188 A0,0 0 0 0 416.1172,1321.7188 L586.7148,1321.7188 A0,0 0 0 0 586.7148,1321.7188 L586.7148,1289.125 L576.7148,1279.125 L416.1172,1279.125 A0,0 0 0 0 416.1172,1279.125" style="stroke:#181818;stroke-width:.5"/><path fill="#FEFFDD" d="M576.7148,1279.125 L576.7148,1289.125 L586.7148,1289.125 L576.7148,1279.125" style="stroke:#181818;stroke-width:.5"/><text x="422.117" y="1297.12" fill="#000" font-family="'Noto Sans CJK SC'" font-size="14" lengthAdjust="spacing" textLength="149.598">退回原因写入 reject_reason</text><text x="422.117" y="1313.417" fill="#000" font-family="'Noto Sans CJK SC'" font-size="14" lengthAdjust="spacing" textLength="127.272">状态回退到 in_progress</text><rect style="stroke:#181818;stroke-width:.5" width="53.605" height="36.297" x="342.512" y="1282.273" fill="#F1F1F1" rx="12.5" ry="12.5"/><text x="352.512" y="1305.269" fill="#000" font-family="'Noto Sans CJK SC'" font-size="14" lengthAdjust="spacing" textLength="33.605">退回返工</text><rect style="stroke:#000;stroke-width:1.5" width="371.743" height="172.188" x="264.675" y="1348.016" fill="none"/><path fill="none" d="M291.478,1348.0156 L291.478,1357.3125 L281.478,1367.3125 L264.6753,1367.3125" style="stroke:#000;stroke-width:1.5"/><text x="267.675" y="1362.011" fill="#000" font-family="'Noto Sans CJK SC'" font-size="14" lengthAdjust="spacing" textLength="16.803">系统</text><rect style="stroke:#181818;stroke-width:.5" width="189.278" height="36.297" x="274.675" y="1384.313" fill="#F1F1F1" rx="12.5" ry="12.5"/><text x="284.675" y="1407.308" fill="#000" font-family="'Noto Sans CJK SC'" font-size="14" lengthAdjust="spacing" textLength="169.278">更新报修单状态回退到 in_progress</text><path fill="#FEFFDD" d="M470.9961,1468.7578 L470.9961,1477.9063 L450.9961,1481.9063 L470.9961,1485.9063 L470.9961,1495.0547 A0,0 0 0 0 470.9961,1495.0547 L626.418,1495.0547 A0,0 0 0 0 626.418,1495.0547 L626.418,1478.7578 L616.418,1468.7578 L470.9961,1468.7578 A0,0 0 0 0 470.9961,1468.7578" style="stroke:#181818;stroke-width:.5"/><path fill="#FEFFDD" d="M616.418,1468.7578 L616.418,1478.7578 L626.418,1478.7578 L616.418,1468.7578" style="stroke:#181818;stroke-width:.5"/><text x="476.996" y="1486.753" fill="#000" font-family="'Noto Sans CJK SC'" font-size="14" lengthAdjust="spacing" textLength="134.422">退回返工时充电桩保持故障状态不变</text><rect style="stroke:#181818;stroke-width:.5" width="163.363" height="52.594" x="287.633" y="1455.609" fill="#F1F1F1" rx="12.5" ry="12.5"/><text x="297.633" y="1478.604" fill="#000" font-family="'Noto Sans CJK SC'" font-size="14" lengthAdjust="spacing" textLength="50.408">记录审计日志</text><text x="297.633" y="1494.901" fill="#000" font-family="'Noto Sans CJK SC'" font-size="14" lengthAdjust="spacing" textLength="143.363">action=reject_repair</text><rect style="stroke:#181818;stroke-width:.5" width="104.014" height="36.297" x="317.308" y="1540.203" fill="#F1F1F1" rx="12.5" ry="12.5"/><text x="327.308" y="1563.198" fill="#000" font-family="'Noto Sans CJK SC'" font-size="14" lengthAdjust="spacing" textLength="84.014">通知维修人员重新维修</text><path fill="#FEFFDD" d="M416.1172,1593.3516 L416.1172,1610.6484 L396.1172,1614.6484 L416.1172,1618.6484 L416.1172,1635.9453 A0,0 0 0 0 416.1172,1635.9453 L541.9326,1635.9453 A0,0 0 0 0 541.9326,1635.9453 L541.9326,1603.3516 L531.9326,1593.3516 L416.1172,1593.3516 A0,0 0 0 0 416.1172,1593.3516" style="stroke:#181818;stroke-width:.5"/><path fill="#FEFFDD" d="M531.9326,1593.3516 L531.9326,1603.3516 L541.9326,1603.3516 L531.9326,1593.3516" style="stroke:#181818;stroke-width:.5"/><text x="422.117" y="1611.347" fill="#000" font-family="'Noto Sans CJK SC'" font-size="14" lengthAdjust="spacing" textLength="92.415">系统自动跳转到维修流程</text><text x="422.117" y="1627.644" fill="#000" font-family="'Noto Sans CJK SC'" font-size="14" lengthAdjust="spacing" textLength="104.815">通过 merge 节点汇合</text><rect style="stroke:#181818;stroke-width:.5" width="53.605" height="36.297" x="342.512" y="1596.5" fill="#F1F1F1" rx="12.5" ry="12.5"/><text x="352.512" y="1619.495" fill="#000" font-family="'Noto Sans CJK SC'" font-size="14" lengthAdjust="spacing" textLength="33.605">接收任务</text><line style="stroke:#181818;stroke-width:1" x1="254.099" x2="254.099" y1="154.891" y2="174.891"/><polygon fill="#181818" points="250.099 164.891 254.099 174.891 258.099 164.891 254.099 168.891" style="stroke:#181818;stroke-width:1;stroke-linejoin:miter;stroke-miterlimit:10"/><line style="stroke:#181818;stroke-width:1" x1="254.099" x2="254.099" y1="72.297" y2="118.594"/><polygon fill="#181818" points="250.099 108.594 254.099 118.594 258.099 108.594 254.099 112.594" style="stroke:#181818;stroke-width:1;stroke-linejoin:miter;stroke-miterlimit:10"/><line style="stroke:#181818;stroke-width:1" x1="254.099" x2="254.099" y1="305.781" y2="325.781"/><polygon fill="#181818" points="250.099 315.781 254.099 325.781 258.099 315.781 254.099 319.781" style="stroke:#181818;stroke-width:1;stroke-linejoin:miter;stroke-miterlimit:10"/><line style="stroke:#181818;stroke-width:1" x1="254.099" x2="254.099" y1="211.188" y2="269.484"/><polygon fill="#181818" points="250.099 259.484 254.099 269.484 258.099 259.484 254.099 263.484" style="stroke:#181818;stroke-width:1;stroke-linejoin:miter;stroke-miterlimit:10"/><line style="stroke:#181818;stroke-width:1" x1="363.915" x2="363.915" y1="563.266" y2="583.266"/><polygon fill="#181818" points="359.915 573.266 363.915 583.266 367.915 573.266 363.915 577.266" style="stroke:#181818;stroke-width:1;stroke-linejoin:miter;stroke-miterlimit:10"/><line style="stroke:#181818;stroke-width:1" x1="363.915" x2="363.915" y1="619.563" y2="639.563"/><polygon fill="#181818" points="359.915 629.563 363.915 639.563 367.915 629.563 363.915 633.563" style="stroke:#181818;stroke-width:1;stroke-linejoin:miter;stroke-miterlimit:10"/><line style="stroke:#181818;stroke-width:1" x1="363.915" x2="363.915" y1="692.156" y2="712.156"/><polygon fill="#181818" points="359.915 702.156 363.915 712.156 367.915 702.156 363.915 706.156" style="stroke:#181818;stroke-width:1;stroke-linejoin:miter;stroke-miterlimit:10"/><line style="stroke:#181818;stroke-width:1" x1="213.179" x2="144.283" y1="504.969" y2="504.969"/><line style="stroke:#181818;stroke-width:1" x1="144.283" x2="144.283" y1="504.969" y2="526.969"/><polygon fill="#181818" points="140.283 516.969 144.283 526.969 148.283 516.969 144.283 520.969" style="stroke:#181818;stroke-width:1;stroke-linejoin:miter;stroke-miterlimit:10"/><line style="stroke:#181818;stroke-width:1" x1="295.018" x2="363.915" y1="504.969" y2="504.969"/><line style="stroke:#181818;stroke-width:1" x1="363.915" x2="363.915" y1="504.969" y2="526.969"/><polygon fill="#181818" points="359.915 516.969 363.915 526.969 367.915 516.969 363.915 520.969" style="stroke:#181818;stroke-width:1;stroke-linejoin:miter;stroke-miterlimit:10"/><line style="stroke:#181818;stroke-width:1" x1="144.283" x2="144.283" y1="563.266" y2="739.156"/><line style="stroke:#181818;stroke-width:1" x1="144.283" x2="254.099" y1="739.156" y2="739.156"/><line style="stroke:#181818;stroke-width:1" x1="254.099" x2="254.099" y1="739.156" y2="792.453"/><polygon fill="#181818" points="250.099 782.453 254.099 792.453 258.099 782.453 254.099 786.453" style="stroke:#181818;stroke-width:1;stroke-linejoin:miter;stroke-miterlimit:10"/><line style="stroke:#181818;stroke-width:1" x1="254.099" x2="254.099" y1="472.969" y2="492.969"/><polygon fill="#181818" points="250.099 482.969 254.099 492.969 258.099 482.969 254.099 486.969" style="stroke:#181818;stroke-width:1;stroke-linejoin:miter;stroke-miterlimit:10"/><line style="stroke:#181818;stroke-width:1" x1="254.099" x2="254.099" y1="378.375" y2="436.672"/><polygon fill="#181818" points="250.099 426.672 254.099 436.672 258.099 426.672 254.099 430.672" style="stroke:#181818;stroke-width:1;stroke-linejoin:miter;stroke-miterlimit:10"/><line style="stroke:#181818;stroke-width:1" x1="254.099" x2="254.099" y1="923.344" y2="943.344"/><polygon fill="#181818" points="250.099 933.344 254.099 943.344 258.099 933.344 254.099 937.344" style="stroke:#181818;stroke-width:1;stroke-linejoin:miter;stroke-miterlimit:10"/><line style="stroke:#181818;stroke-width:1" x1="254.099" x2="254.099" y1="979.641" y2="999.641"/><polygon fill="#181818" points="250.099 989.641 254.099 999.641 258.099 989.641 254.099 993.641" style="stroke:#181818;stroke-width:1;stroke-linejoin:miter;stroke-miterlimit:10"/><line style="stroke:#181818;stroke-width:1" x1="254.099" x2="254.099" y1="828.75" y2="887.047"/><polygon fill="#181818" points="250.099 877.047 254.099 887.047 258.099 877.047 254.099 881.047" style="stroke:#181818;stroke-width:1;stroke-linejoin:miter;stroke-miterlimit:10"/><line style="stroke:#181818;stroke-width:1" x1="254.099" x2="254.099" y1="1035.938" y2="1094.234"/><polygon fill="#181818" points="250.099 1084.234 254.099 1094.234 258.099 1084.234 254.099 1088.234" style="stroke:#181818;stroke-width:1;stroke-linejoin:miter;stroke-miterlimit:10"/><line style="stroke:#181818;stroke-width:1" x1="138.883" x2="138.883" y1="1259.125" y2="1279.125"/><polygon fill="#181818" points="134.883 1269.125 138.883 1279.125 142.883 1269.125 138.883 1273.125" style="stroke:#181818;stroke-width:1;stroke-linejoin:miter;stroke-miterlimit:10"/><line style="stroke:#181818;stroke-width:1" x1="138.883" x2="138.883" y1="1315.422" y2="1341.719"/><polygon fill="#181818" points="134.883 1331.719 138.883 1341.719 142.883 1331.719 138.883 1335.719" style="stroke:#181818;stroke-width:1;stroke-linejoin:miter;stroke-miterlimit:10"/><line style="stroke:#181818;stroke-width:1" x1="138.883" x2="138.883" y1="1394.313" y2="1429.313"/><polygon fill="#181818" points="134.883 1419.313 138.883 1429.313 142.883 1419.313 138.883 1423.313" style="stroke:#181818;stroke-width:1;stroke-linejoin:miter;stroke-miterlimit:10"/><line style="stroke:#181818;stroke-width:1" x1="369.315" x2="369.315" y1="1259.125" y2="1282.273"/><polygon fill="#181818" points="365.315 1272.273 369.315 1282.273 373.315 1272.273 369.315 1276.273" style="stroke:#181818;stroke-width:1;stroke-linejoin:miter;stroke-miterlimit:10"/><line style="stroke:#181818;stroke-width:1" x1="369.315" x2="369.315" y1="1420.609" y2="1455.609"/><polygon fill="#181818" points="365.315 1445.609 369.315 1455.609 373.315 1445.609 369.315 1449.609" style="stroke:#181818;stroke-width:1;stroke-linejoin:miter;stroke-miterlimit:10"/><line style="stroke:#181818;stroke-width:1" x1="369.315" x2="369.315" y1="1318.57" y2="1384.313"/><polygon fill="#181818" points="365.315 1374.313 369.315 1384.313 373.315 1374.313 369.315 1378.313" style="stroke:#181818;stroke-width:1;stroke-linejoin:miter;stroke-miterlimit:10"/><line style="stroke:#181818;stroke-width:1" x1="369.315" x2="369.315" y1="1508.203" y2="1540.203"/><polygon fill="#181818" points="365.315 1530.203 369.315 1540.203 373.315 1530.203 369.315 1534.203" style="stroke:#181818;stroke-width:1;stroke-linejoin:miter;stroke-miterlimit:10"/><line style="stroke:#181818;stroke-width:1" x1="369.315" x2="369.315" y1="1576.5" y2="1596.5"/><polygon fill="#181818" points="365.315 1586.5 369.315 1596.5 373.315 1586.5 369.315 1590.5" style="stroke:#181818;stroke-width:1;stroke-linejoin:miter;stroke-miterlimit:10"/><line style="stroke:#181818;stroke-width:1" x1="221.581" x2="138.883" y1="1200.828" y2="1200.828"/><line style="stroke:#181818;stroke-width:1" x1="138.883" x2="138.883" y1="1200.828" y2="1222.828"/><polygon fill="#181818" points="134.883 1212.828 138.883 1222.828 142.883 1212.828 138.883 1216.828" style="stroke:#181818;stroke-width:1;stroke-linejoin:miter;stroke-miterlimit:10"/><line style="stroke:#181818;stroke-width:1" x1="286.617" x2="369.315" y1="1200.828" y2="1200.828"/><line style="stroke:#181818;stroke-width:1" x1="369.315" x2="369.315" y1="1200.828" y2="1222.828"/><polygon fill="#181818" points="365.315 1212.828 369.315 1222.828 373.315 1212.828 369.315 1216.828" style="stroke:#181818;stroke-width:1;stroke-linejoin:miter;stroke-miterlimit:10"/><line style="stroke:#181818;stroke-width:1" x1="369.315" x2="369.315" y1="1632.797" y2="1640.945"/><line style="stroke:#181818;stroke-width:1" x1="369.315" x2="254.099" y1="1640.945" y2="1640.945"/><line style="stroke:#181818;stroke-width:1" x1="254.099" x2="254.099" y1="1130.531" y2="1188.828"/><polygon fill="#181818" points="250.099 1178.828 254.099 1188.828 258.099 1178.828 254.099 1182.828" style="stroke:#181818;stroke-width:1;stroke-linejoin:miter;stroke-miterlimit:10"/><?plantuml-src bLJBJjj05DtxAqPUWTHDfQuILLqWTT5AR5WMX5moWDl4ZkoXYrP82MeU3IG44HfAKa8gZ82sRiehD2daPpmpzgg_qB773eQ4I2mzS--vzpp6-bjPIKgQb00nE2yjnT5pLK6JKW82SL95AfYI51rCl7W9fYP4GHzMF2M_X-3n4m79A0u1sSeuEtLICAoUYVS_qdAMd7LnuH3NhWKTIHeI18R0QcLL0IAj799yMmGV100YU7s3bbeS8EeUaFMorTdtiOfRu1KjN91KEWBK95HceiBoRQpJBkqs0gnM5cSoj79EcaUyopQlhSkEoE553zysM_Xg2vjDssoIge5xrMb5cdFHdkfBhnCocjLWKfArWKbca_726zl-CD8mQ7sLr8zzmjx2xWHv7eoHxL-uVE3KK_P1cdRFsCspSO0MeU9TZRCgTzryriaK-RNLwJ3e6xAoCflKr0KDwlgC2mhZEWHZ3FCHeBKpKZ9mvjIf_lIHdDGdideKleZw8xoF8MBEnLKTncPucQ8Y23HvOH55Rg7_-xlJLzAwBEBrROuwGa8FrrTmDYPhS0xn6JfIaouF9IRFZ_BGIUrGfcn8b04ZGdU15oM3L2wiBijSqpEPrv3DedLL3nrWSutaopSgC7dL-3jFXz5cCwvaxvA3qEucsQsF2gAR0Dx1sDYzt13l2PFvSwjlJA1nHyJj4ow-U8zPGr9Eqj_mVj7jfaSTfteYHX_aqss3Wg058Mr-nzalJYg5QxkurC2rlMYGEVV8xbLmsnYCKRY1zUECmSH-mzB0PagwgamhV7LMv9RcM-74UsZtQ7k_UaEXea7B22twYzs8COmCfqgg5ttrhTvNifRcFvU1Lx8So7Gtpqwko9Rd9xwMT_DxvqbwzEtSCVkZskrJ--e78-ad_3nD3rUd5Pupa83Q0WHsOOMk_26_SxYS3psv_m00?></g></svg>