<svg xmlns="http://www.w3.org/2000/svg" xmlns:xlink="http://www.w3.org/1999/xlink" contentStyleType="text/css" data-diagram-type="ACTIVITY" height="1338px" preserveAspectRatio="none" style="width:319px;height:1338px;background:#FFFFFF;" version="1.1" viewBox="0 0 319 1338" width="319px" zoomAndPan="magnify"><title>&#25925;&#38556;&#25253;&#20462;&#22788;&#29702;&#27963;&#21160;&#22270;</title><defs/><g><g class="title" data-source-line="3"><text fill="#000000" font-family="Noto Sans CJK SC" font-size="14" font-weight="bold" lengthAdjust="spacing" textLength="125.9995" x="95.2437" y="36.2399">&#25925;&#38556;&#25253;&#20462;&#22788;&#29702;&#27963;&#21160;&#22270;</text></g><ellipse cx="159.7434" cy="61.2719" fill="#222222" rx="10" ry="10" style="stroke:#222222;stroke-width:1;"/><rect fill="none" height="152.8157" style="stroke:#000000;stroke-width:1.5;" width="191.0873" x="64.1998" y="81.2719"/><path d="M102.1996,81.2719 L102.1996,94.5438 L92.1996,104.5438 L64.1998,104.5438" fill="none" style="stroke:#000000;stroke-width:1.5;"/><text fill="#000000" font-family="Noto Sans CJK SC" font-size="14" lengthAdjust="spacing" textLength="27.9999" x="67.1998" y="98.5118">&#29992;&#25143;</text><rect fill="#F1F1F1" height="40.2719" rx="12.5" ry="12.5" style="stroke:#181818;stroke-width:0.5;" width="75.9998" x="121.7436" y="121.5438"/><text fill="#000000" font-family="Noto Sans CJK SC" font-size="14" lengthAdjust="spacing" textLength="55.9998" x="131.7436" y="147.7838">&#21457;&#29616;&#25925;&#38556;</text><rect fill="#F1F1F1" height="40.2719" rx="12.5" ry="12.5" style="stroke:#181818;stroke-width:0.5;" width="171.0873" x="74.1998" y="181.8157"/><text fill="#000000" font-family="Noto Sans CJK SC" font-size="14" lengthAdjust="spacing" textLength="151.0873" x="84.1998" y="208.0557">&#25552;&#20132;&#25253;&#20462;&#21333; [&#29366;&#24577;: open]</text><rect fill="none" height="152.8157" style="stroke:#000000;stroke-width:1.5;" width="248.6271" x="35.4299" y="244.0876"/><path d="M87.4297,244.0876 L87.4297,257.3596 L77.4297,267.3596 L35.4299,267.3596" fill="none" style="stroke:#000000;stroke-width:1.5;"/><text fill="#000000" font-family="Noto Sans CJK SC" font-size="14" lengthAdjust="spacing" textLength="41.9998" x="38.4299" y="261.3276">&#31649;&#29702;&#21592;</text><rect fill="#F1F1F1" height="40.2719" rx="12.5" ry="12.5" style="stroke:#181818;stroke-width:0.5;" width="117.9996" x="100.7437" y="284.3596"/><text fill="#000000" font-family="Noto Sans CJK SC" font-size="14" lengthAdjust="spacing" textLength="97.9996" x="110.7437" y="310.5995">&#26597;&#30475;&#26410;&#22788;&#29702;&#25253;&#20462;</text><rect fill="#F1F1F1" height="40.2719" rx="12.5" ry="12.5" style="stroke:#181818;stroke-width:0.5;" width="228.6271" x="45.4299" y="344.6315"/><text fill="#000000" font-family="Noto Sans CJK SC" font-size="14" lengthAdjust="spacing" textLength="208.6271" x="55.4299" y="370.8714">&#20998;&#37197;&#32500;&#20462;&#20154;&#21592; [&#29366;&#24577;: in_progress]</text><rect fill="none" height="204.8157" style="stroke:#000000;stroke-width:1.5;" width="193.2713" x="63.1078" y="406.9034"/><path d="M101.1077,406.9034 L101.1077,420.1753 L91.1077,430.1753 L63.1078,430.1753" fill="none" style="stroke:#000000;stroke-width:1.5;"/><text fill="#000000" font-family="Noto Sans CJK SC" font-size="14" lengthAdjust="spacing" textLength="27.9999" x="66.1078" y="424.1433">&#31995;&#32479;</text><rect fill="#F1F1F1" height="40.2719" rx="12.5" ry="12.5" style="stroke:#181818;stroke-width:0.5;" width="173.2713" x="73.1078" y="447.1753"/><text fill="#000000" font-family="Noto Sans CJK SC" font-size="14" lengthAdjust="spacing" textLength="153.2713" x="83.1078" y="473.4152">&#23558;&#20805;&#30005;&#26729;&#29366;&#24577;&#35774;&#20026;"&#25925;&#38556;"</text><rect fill="#555555" height="6" rx="2.5" ry="2.5" style="stroke:#555555;stroke-width:1;" width="159.9996" x="79.7436" y="507.4472"/><rect fill="#F1F1F1" height="40.2719" rx="12.5" ry="12.5" style="stroke:#181818;stroke-width:0.5;" width="103.9996" x="93.7436" y="533.4472"/><text fill="#000000" font-family="Noto Sans CJK SC" font-size="14" lengthAdjust="spacing" textLength="83.9996" x="103.7436" y="559.6871">&#36890;&#30693;&#32500;&#20462;&#20154;&#21592;</text><rect fill="#555555" height="6" rx="2.5" ry="2.5" style="stroke:#555555;stroke-width:1;" width="159.9996" x="79.7436" y="593.7191"/><rect fill="none" height="367.8915" style="stroke:#000000;stroke-width:1.5;" width="155.9998" x="87.7436" y="621.7191"/><path d="M153.7433,621.7191 L153.7433,634.991 L143.7433,644.991 L87.7436,644.991" fill="none" style="stroke:#000000;stroke-width:1.5;"/><text fill="#000000" font-family="Noto Sans CJK SC" font-size="14" lengthAdjust="spacing" textLength="55.9998" x="90.7436" y="638.959">&#32500;&#20462;&#20154;&#21592;</text><rect fill="#F1F1F1" height="40.2719" rx="12.5" ry="12.5" style="stroke:#181818;stroke-width:0.5;" width="75.9998" x="121.7436" y="705.991"/><text fill="#000000" font-family="Noto Sans CJK SC" font-size="14" lengthAdjust="spacing" textLength="55.9998" x="131.7436" y="732.231">&#25509;&#25910;&#20219;&#21153;</text><rect fill="#F1F1F1" height="40.2719" rx="12.5" ry="12.5" style="stroke:#181818;stroke-width:0.5;" width="75.9998" x="121.7436" y="810.2629"/><text fill="#000000" font-family="Noto Sans CJK SC" font-size="14" lengthAdjust="spacing" textLength="55.9998" x="131.7436" y="836.5029">&#32500;&#20462;&#25805;&#20316;</text><polygon fill="#F1F1F1" points="135.4255,766.2629,184.0613,766.2629,196.0613,778.2629,184.0613,790.2629,135.4255,790.2629,123.4255,778.2629,135.4255,766.2629" style="stroke:#181818;stroke-width:0.5;"/><text fill="#000000" font-family="Noto Sans CJK SC" font-size="14" lengthAdjust="spacing" textLength="48.6358" x="135.4255" y="784.3669">&#32500;&#20462;&#20013;?</text><rect fill="#F1F1F1" height="40.2719" rx="12.5" ry="12.5" style="stroke:#181818;stroke-width:0.5;" width="75.9998" x="121.7436" y="892.5349"/><text fill="#000000" font-family="Noto Sans CJK SC" font-size="14" lengthAdjust="spacing" textLength="55.9998" x="131.7436" y="918.7748">&#32500;&#20462;&#23436;&#25104;</text><polygon fill="#F1F1F1" points="159.7434,661.991,171.7434,673.991,159.7434,685.991,147.7434,673.991,159.7434,661.991" style="stroke:#181818;stroke-width:0.5;"/><polygon fill="#F1F1F1" points="128.4256,953.6107,191.0613,953.6107,203.0613,965.6107,191.0613,977.6107,128.4256,977.6107,116.4256,965.6107,128.4256,953.6107" style="stroke:#181818;stroke-width:0.5;"/><text fill="#000000" font-family="Noto Sans CJK SC" font-size="14" lengthAdjust="spacing" textLength="62.6357" x="128.4256" y="971.7146">&#23457;&#26680;&#36890;&#36807;?</text><text fill="#000000" font-family="Noto Sans CJK SC" font-size="14" lengthAdjust="spacing" textLength="13.9999" x="203.0613" y="961.5787">&#21542;</text><rect fill="none" height="92.5438" style="stroke:#000000;stroke-width:1.5;" width="123.9996" x="97.7436" y="1029.7786"/><path d="M149.7434,1029.7786 L149.7434,1043.0505 L139.7434,1053.0505 L97.7436,1053.0505" fill="none" style="stroke:#000000;stroke-width:1.5;"/><text fill="#000000" font-family="Noto Sans CJK SC" font-size="14" lengthAdjust="spacing" textLength="41.9998" x="100.7436" y="1047.0185">&#31649;&#29702;&#21592;</text><rect fill="#F1F1F1" height="40.2719" rx="12.5" ry="12.5" style="stroke:#181818;stroke-width:0.5;" width="103.9996" x="107.7436" y="1070.0505"/><text fill="#000000" font-family="Noto Sans CJK SC" font-size="14" lengthAdjust="spacing" textLength="83.9996" x="117.7436" y="1096.2904">&#23457;&#26680;&#32500;&#20462;&#32467;&#26524;</text><rect fill="none" height="152.8157" style="stroke:#000000;stroke-width:1.5;" width="297.4869" x="11" y="1132.3224"/><path d="M48.9999,1132.3224 L48.9999,1145.5943 L38.9999,1155.5943 L11,1155.5943" fill="none" style="stroke:#000000;stroke-width:1.5;"/><text fill="#000000" font-family="Noto Sans CJK SC" font-size="14" lengthAdjust="spacing" textLength="27.9999" x="14" y="1149.5623">&#31995;&#32479;</text><rect fill="#F1F1F1" height="40.2719" rx="12.5" ry="12.5" style="stroke:#181818;stroke-width:0.5;" width="277.4869" x="21" y="1172.5943"/><text fill="#000000" font-family="Noto Sans CJK SC" font-size="14" lengthAdjust="spacing" textLength="257.4869" x="31" y="1198.8343">&#26356;&#26032;&#25253;&#20462;&#21333;&#29366;&#24577;&#20026;"&#24050;&#22788;&#29702;" [&#29366;&#24577;: closed]</text><rect fill="#F1F1F1" height="40.2719" rx="12.5" ry="12.5" style="stroke:#181818;stroke-width:0.5;" width="187.2713" x="66.1078" y="1232.8662"/><text fill="#000000" font-family="Noto Sans CJK SC" font-size="14" lengthAdjust="spacing" textLength="167.2713" x="76.1078" y="1259.1062">&#23558;&#20805;&#30005;&#26729;&#29366;&#24577;&#24674;&#22797;&#20026;"&#31354;&#38386;"</text><ellipse cx="159.7434" cy="1316.1382" fill="none" rx="11" ry="11" style="stroke:#222222;stroke-width:1;"/><ellipse cx="159.7434" cy="1316.1382" fill="#222222" rx="6" ry="6" style="stroke:#222222;stroke-width:1;"/><line style="stroke:#181818;stroke-width:1;" x1="159.7434" x2="159.7434" y1="161.8157" y2="181.8157"/><polygon fill="#181818" points="155.7434,171.8157,159.7434,181.8157,163.7434,171.8157,159.7434,175.8157" style="stroke:#181818;stroke-width:1;"/><line style="stroke:#181818;stroke-width:1;" x1="159.7434" x2="159.7434" y1="71.2719" y2="121.5438"/><polygon fill="#181818" points="155.7434,111.5438,159.7434,121.5438,163.7434,111.5438,159.7434,115.5438" style="stroke:#181818;stroke-width:1;"/><line style="stroke:#181818;stroke-width:1;" x1="159.7434" x2="159.7434" y1="324.6315" y2="344.6315"/><polygon fill="#181818" points="155.7434,334.6315,159.7434,344.6315,163.7434,334.6315,159.7434,338.6315" style="stroke:#181818;stroke-width:1;"/><line style="stroke:#181818;stroke-width:1;" x1="159.7434" x2="159.7434" y1="222.0876" y2="284.3596"/><polygon fill="#181818" points="155.7434,274.3596,159.7434,284.3596,163.7434,274.3596,159.7434,278.3596" style="stroke:#181818;stroke-width:1;"/><line style="stroke:#181818;stroke-width:1;" x1="145.7434" x2="145.7434" y1="513.4472" y2="533.4472"/><polygon fill="#181818" points="141.7434,523.4472,145.7434,533.4472,149.7434,523.4472,145.7434,527.4472" style="stroke:#181818;stroke-width:1;"/><line style="stroke:#181818;stroke-width:1;" x1="225.7433" x2="225.7433" y1="513.4472" y2="593.7191"/><polygon fill="#181818" points="221.7433,583.7191,225.7433,593.7191,229.7433,583.7191,225.7433,587.7191" style="stroke:#181818;stroke-width:1;"/><line style="stroke:#181818;stroke-width:1;" x1="145.7434" x2="145.7434" y1="573.7191" y2="593.7191"/><polygon fill="#181818" points="141.7434,583.7191,145.7434,593.7191,149.7434,583.7191,145.7434,587.7191" style="stroke:#181818;stroke-width:1;"/><line style="stroke:#181818;stroke-width:1;" x1="159.7434" x2="159.7434" y1="487.4472" y2="507.4472"/><polygon fill="#181818" points="155.7434,497.4472,159.7434,507.4472,163.7434,497.4472,159.7434,501.4472" style="stroke:#181818;stroke-width:1;"/><line style="stroke:#181818;stroke-width:1;" x1="159.7434" x2="159.7434" y1="384.9034" y2="447.1753"/><polygon fill="#181818" points="155.7434,437.1753,159.7434,447.1753,163.7434,437.1753,159.7434,441.1753" style="stroke:#181818;stroke-width:1;"/><line style="stroke:#181818;stroke-width:1;" x1="159.7434" x2="159.7434" y1="790.2629" y2="810.2629"/><polygon fill="#181818" points="155.7434,800.2629,159.7434,810.2629,163.7434,800.2629,159.7434,804.2629" style="stroke:#181818;stroke-width:1;"/><line style="stroke:#181818;stroke-width:1;" x1="159.7434" x2="159.7434" y1="850.5349" y2="860.5349"/><line style="stroke:#181818;stroke-width:1;" x1="159.7434" x2="209.7433" y1="860.5349" y2="860.5349"/><polygon fill="#181818" points="205.7433,828.3989,209.7433,818.3989,213.7433,828.3989,209.7433,824.3989" style="stroke:#181818;stroke-width:1;"/><line style="stroke:#181818;stroke-width:1;" x1="209.7433" x2="209.7433" y1="778.2629" y2="860.5349"/><line style="stroke:#181818;stroke-width:1;" x1="209.7433" x2="196.0613" y1="778.2629" y2="778.2629"/><polygon fill="#181818" points="206.0613,774.2629,196.0613,778.2629,206.0613,782.2629,202.0613,778.2629" style="stroke:#181818;stroke-width:1;"/><line style="stroke:#181818;stroke-width:1;" x1="123.4255" x2="109.7436" y1="778.2629" y2="778.2629"/><polygon fill="#181818" points="105.7436,814.3989,109.7436,824.3989,113.7436,814.3989,109.7436,818.3989" style="stroke:#181818;stroke-width:1;"/><line style="stroke:#181818;stroke-width:1;" x1="109.7436" x2="109.7436" y1="778.2629" y2="872.5349"/><line style="stroke:#181818;stroke-width:1;" x1="109.7436" x2="159.7434" y1="872.5349" y2="872.5349"/><line style="stroke:#181818;stroke-width:1;" x1="159.7434" x2="159.7434" y1="872.5349" y2="892.5349"/><polygon fill="#181818" points="155.7434,882.5349,159.7434,892.5349,163.7434,882.5349,159.7434,886.5349" style="stroke:#181818;stroke-width:1;"/><line style="stroke:#181818;stroke-width:1;" x1="159.7434" x2="159.7434" y1="746.2629" y2="766.2629"/><polygon fill="#181818" points="155.7434,756.2629,159.7434,766.2629,163.7434,756.2629,159.7434,760.2629" style="stroke:#181818;stroke-width:1;"/><line style="stroke:#181818;stroke-width:1;" x1="159.7434" x2="159.7434" y1="685.991" y2="705.991"/><polygon fill="#181818" points="155.7434,695.991,159.7434,705.991,163.7434,695.991,159.7434,699.991" style="stroke:#181818;stroke-width:1;"/><line style="stroke:#181818;stroke-width:1;" x1="203.0613" x2="221.7433" y1="965.6107" y2="965.6107"/><polygon fill="#181818" points="217.7433,828.3989,221.7433,818.3989,225.7433,828.3989,221.7433,824.3989" style="stroke:#181818;stroke-width:1;"/><line style="stroke:#181818;stroke-width:1;" x1="221.7433" x2="221.7433" y1="673.991" y2="965.6107"/><line style="stroke:#181818;stroke-width:1;" x1="221.7433" x2="171.7434" y1="673.991" y2="673.991"/><polygon fill="#181818" points="181.7434,669.991,171.7434,673.991,181.7434,677.991,177.7434,673.991" style="stroke:#181818;stroke-width:1;"/><line style="stroke:#181818;stroke-width:1;" x1="159.7434" x2="159.7434" y1="932.8068" y2="953.6107"/><polygon fill="#181818" points="155.7434,943.6107,159.7434,953.6107,163.7434,943.6107,159.7434,947.6107" style="stroke:#181818;stroke-width:1;"/><line style="stroke:#181818;stroke-width:1;" x1="159.7434" x2="159.7434" y1="599.7191" y2="661.991"/><polygon fill="#181818" points="155.7434,651.991,159.7434,661.991,163.7434,651.991,159.7434,655.991" style="stroke:#181818;stroke-width:1;"/><line style="stroke:#181818;stroke-width:1;" x1="159.7434" x2="159.7434" y1="977.6107" y2="1070.0505"/><polygon fill="#181818" points="155.7434,1060.0505,159.7434,1070.0505,163.7434,1060.0505,159.7434,1064.0505" style="stroke:#181818;stroke-width:1;"/><text fill="#000000" font-family="Noto Sans CJK SC" font-size="14" lengthAdjust="spacing" textLength="13.9999" x="163.7434" y="1018.3826">&#26159;</text><line style="stroke:#181818;stroke-width:1;" x1="159.7434" x2="159.7434" y1="1212.8662" y2="1232.8662"/><polygon fill="#181818" points="155.7434,1222.8662,159.7434,1232.8662,163.7434,1222.8662,159.7434,1226.8662" style="stroke:#181818;stroke-width:1;"/><line style="stroke:#181818;stroke-width:1;" x1="159.7434" x2="159.7434" y1="1110.3224" y2="1172.5943"/><polygon fill="#181818" points="155.7434,1162.5943,159.7434,1172.5943,163.7434,1162.5943,159.7434,1166.5943" style="stroke:#181818;stroke-width:1;"/><line style="stroke:#181818;stroke-width:1;" x1="159.7434" x2="159.7434" y1="1273.1382" y2="1305.1382"/><polygon fill="#181818" points="155.7434,1295.1382,159.7434,1305.1382,163.7434,1295.1382,159.7434,1299.1382" style="stroke:#181818;stroke-width:1;"/><!--SRC=[XL5DIoCn6BxFhmXpMWyU14yEw47meE2bnqMMOACxM2V39Cl2oeA2hQLQhLXtHGUrqeeAErlSgcK6zSzCtjX_OMRIQlrWFOKyUJxUl0zRi1qNUtWHPSaS_fRZ4zJXqtYH87EQSeeos65eV78APSPDWxr7pjW_21eQDhZDSmJ1RhwpxqEf4Ty7ehugAmLeHQ9q9Wxk3CQnnmr3EIYkJHraokeP56zCj6GWD2AsjkLcKnjO2G1RbJYiTxtAk-YpB5t3yie8eYvnPYpZvqkleARInFPUrmwE6j9V1_-YEqPga_gAOg6JBykefO0u39NasTfslhWUdVS8OsyJ_aKoEkfDsoo8V5vMhw1shiKFmLtS3atz0JD9cgFUWZeKkxEyBzKyVP6zTuJdiUse2t6oAVzLPfz49tl49PXhMzXiGFKwZjI6QrOAVVzggnO-TMNjFsC3AQou6eATSdphQwvAJEb6txi8Dg1OiPvoUeOYgC5nMttZuNvjR03PJ46LqyHyS1Js_dvKXfRh21djmA7_t-N2GGj-DP-Qr_jDbYjkBdMTvdDbipdAI7R6UhyLM3aHzNAYbUTXv_UbcGOpJjr7]--></g></svg>