<svg xmlns="http://www.w3.org/2000/svg" xmlns:xlink="http://www.w3.org/1999/xlink" contentStyleType="text/css" data-diagram-type="STATE" height="541px" preserveAspectRatio="none" style="width:1394px;height:541px;background:#FFFFFF;" version="1.1" viewBox="0 0 1394 541" width="1394px" zoomAndPan="magnify"><title>&#20805;&#30005;&#26729;&#29366;&#24577;&#22270;</title><defs/><g><g class="title" data-source-line="3"><text fill="#000000" font-family="Noto Sans CJK SC" font-size="14" font-weight="bold" lengthAdjust="spacing" textLength="83.9996" x="648.2502" y="26.2399">&#20805;&#30005;&#26729;&#29366;&#24577;&#22270;</text></g><g id="IDLE"><rect fill="#F1F1F1" height="50" rx="12.5" ry="12.5" style="stroke:#181818;stroke-width:0.5;" width="50" x="732.5" y="393.4519"/><line style="stroke:#181818;stroke-width:0.5;" x1="732.5" x2="782.5" y1="423.7238" y2="423.7238"/><text fill="#000000" font-family="Noto Sans CJK SC" font-size="14" lengthAdjust="spacing" textLength="27.9999" x="743.5001" y="414.6918">&#31354;&#38386;</text></g><g id="CHARGING"><rect fill="#F1F1F1" height="50" rx="12.5" ry="12.5" style="stroke:#181818;stroke-width:0.5;" width="61.9998" x="909.5" y="67.8219"/><line style="stroke:#181818;stroke-width:0.5;" x1="909.5" x2="971.4998" y1="98.0938" y2="98.0938"/><text fill="#000000" font-family="Noto Sans CJK SC" font-size="14" lengthAdjust="spacing" textLength="41.9998" x="919.5" y="89.0618">&#20351;&#29992;&#20013;</text></g><g id="FAULT"><rect fill="#F1F1F1" height="50" rx="12.5" ry="12.5" style="stroke:#181818;stroke-width:0.5;" width="50" x="26.5" y="240.9019"/><line style="stroke:#181818;stroke-width:0.5;" x1="26.5" x2="76.5" y1="271.1738" y2="271.1738"/><text fill="#000000" font-family="Noto Sans CJK SC" font-size="14" lengthAdjust="spacing" textLength="27.9999" x="37.5001" y="262.1418">&#25925;&#38556;</text></g><ellipse cx="1378.5" cy="265.9019" fill="#222222" rx="10" ry="10" style="stroke:#222222;stroke-width:1;"/><g class="entity" data-entity="GMN2" data-source-line="17" data-uid="ent0003" id="entity_GMN2"><path d="M726,504.4519 L726,534.7238 A0,0 0 0 0 726,534.7238 L788.9998,534.7238 A0,0 0 0 0 788.9998,534.7238 L788.9998,514.4519 L778.9998,504.4519 L761.5,504.4519 L757.5,443.7019 L753.5,504.4519 L726,504.4519 A0,0 0 0 0 726,504.4519" fill="#FEFFDD" style="stroke:#181818;stroke-width:0.5;"/><path d="M778.9998,504.4519 L778.9998,514.4519 L788.9998,514.4519 L778.9998,504.4519" fill="#FEFFDD" style="stroke:#181818;stroke-width:0.5;"/><text fill="#000000" font-family="Noto Sans CJK SC" font-size="14" lengthAdjust="spacing" textLength="41.9998" x="732" y="525.6918">&#26729;&#21487;&#29992;</text></g><g class="entity" data-entity="GMN5" data-source-line="18" data-uid="ent0006" id="entity_GMN5"><path d="M1102,250.7719 L1102,281.0438 L1178.9998,281.0438 L1178.9998,260.7719 L1168.9998,250.7719 L1102,250.7719" fill="#FEFFDD" style="stroke:#181818;stroke-width:0.5;"/><path d="M1168.9998,250.7719 L1168.9998,260.7719 L1178.9998,260.7719 L1168.9998,250.7719" fill="#FEFFDD" style="stroke:#181818;stroke-width:1;"/><text fill="#000000" font-family="Noto Sans CJK SC" font-size="14" lengthAdjust="spacing" textLength="55.9998" x="1108" y="272.0118">&#27491;&#22312;&#20805;&#30005;</text></g><g class="entity" data-entity="GMN8" data-source-line="19" data-uid="ent0009" id="entity_GMN8"><path d="M6,403.3119 L6,433.5838 A0,0 0 0 0 6,433.5838 L96.9997,433.5838 A0,0 0 0 0 96.9997,433.5838 L96.9997,413.3119 L86.9997,403.3119 L55.5,403.3119 L51.5,291.0919 L47.5,403.3119 L6,403.3119 A0,0 0 0 0 6,403.3119" fill="#FEFFDD" style="stroke:#181818;stroke-width:0.5;"/><path d="M86.9997,403.3119 L86.9997,413.3119 L96.9997,413.3119 L86.9997,403.3119" fill="#FEFFDD" style="stroke:#181818;stroke-width:0.5;"/><text fill="#000000" font-family="Noto Sans CJK SC" font-size="14" lengthAdjust="spacing" textLength="69.9997" x="12" y="424.5518">&#38656;&#32500;&#20462;&#22788;&#29702;</text></g><g class="entity" data-entity="GMN11" data-source-line="21" data-uid="ent0012" id="entity_GMN11"><path d="M1006.13,47.2719 L1006.13,88.8219 L971.73,92.8219 L1006.13,96.8219 L1006.13,138.3596 A0,0 0 0 0 1006.13,138.3596 L1366.8666,138.3596 A0,0 0 0 0 1366.8666,138.3596 L1366.8666,57.2719 L1356.8666,47.2719 L1006.13,47.2719 A0,0 0 0 0 1006.13,47.2719" fill="#FEFFDD" style="stroke:#181818;stroke-width:0.5;"/><path d="M1356.8666,47.2719 L1356.8666,57.2719 L1366.8666,57.2719 L1356.8666,47.2719" fill="#FEFFDD" style="stroke:#181818;stroke-width:0.5;"/><text fill="#000000" font-family="Noto Sans CJK SC" font-size="14" lengthAdjust="spacing" textLength="324.8407" x="1012.13" y="68.5118">&#27424;&#36153;&#29366;&#24577;&#30001; charge_records.deduction_status &#36319;&#36394;</text><text fill="#000000" font-family="Noto Sans CJK SC" font-size="14" lengthAdjust="spacing" textLength="339.7366" x="1012.13" y="88.7838">&#20805;&#30005;&#26729;&#20165;&#32500;&#25252; IDLE / CHARGING / FAULT &#19977;&#31181;&#29289;&#29702;&#29366;&#24577;</text><text fill="#000000" font-family="Noto Sans CJK SC" font-size="14" lengthAdjust="spacing" textLength="317.4207" x="1012.13" y="109.0557">&#27424;&#36153;&#26102;&#29992;&#25143; frozenUntil &#34987;&#35774;&#32622;&#65292;&#38459;&#27490;&#20877;&#27425;&#21551;&#21160;&#20805;&#30005;</text><text fill="#000000" font-family="Noto Sans CJK SC" font-size="14" lengthAdjust="spacing" textLength="181.9992" x="1012.13" y="129.3276">&#29992;&#25143;&#20805;&#20540;&#34917;&#32564;&#21518;&#33258;&#21160;&#35299;&#38500;&#20923;&#32467;</text></g><g class="entity" data-entity="GMN14" data-source-line="23" data-uid="ent0015" id="entity_GMN14"><path d="M111.23,220.3619 L111.23,261.9019 L76.85,265.9019 L111.23,269.9019 L111.23,311.4496 A0,0 0 0 0 111.23,311.4496 L505.7765,311.4496 A0,0 0 0 0 505.7765,311.4496 L505.7765,230.3619 L495.7765,220.3619 L111.23,220.3619 A0,0 0 0 0 111.23,220.3619" fill="#FEFFDD" style="stroke:#181818;stroke-width:0.5;"/><path d="M495.7765,220.3619 L495.7765,230.3619 L505.7765,230.3619 L495.7765,220.3619" fill="#FEFFDD" style="stroke:#181818;stroke-width:0.5;"/><text fill="#000000" font-family="Noto Sans CJK SC" font-size="14" lengthAdjust="spacing" textLength="373.5465" x="117.23" y="241.6018">&#25253;&#20462;&#27969;&#31243;: OPEN -&gt; IN_PROGRESS -&gt; RESOLVED -&gt; CLOSED</text><text fill="#000000" font-family="Noto Sans CJK SC" font-size="14" lengthAdjust="spacing" textLength="270.9969" x="117.23" y="261.8738">&#20805;&#30005;&#26729;&#22312; CLOSED&#65288;&#23457;&#26680;&#36890;&#36807;&#65289;&#26102;&#24674;&#22797; IDLE</text><text fill="#000000" font-family="Noto Sans CJK SC" font-size="14" lengthAdjust="spacing" textLength="282.8549" x="117.23" y="282.1457">RESOLVED&#65288;&#32500;&#20462;&#23436;&#25104;&#65289;&#26102;&#26729;&#20173;&#20445;&#25345; FAULT&#65292;</text><text fill="#000000" font-family="Noto Sans CJK SC" font-size="14" lengthAdjust="spacing" textLength="167.9993" x="117.23" y="302.4176">&#24453;&#31649;&#29702;&#21592;&#23457;&#26680;&#36890;&#36807;&#21518;&#25165;&#24674;&#22797;</text></g><!--link *start* to IDLE--><g class="link" data-entity-1=".start." data-entity-2="IDLE" data-source-line="9" data-uid="lnk3" id="link_.start._IDLE"><path d="M1373.14,274.9219 C1359.49,294.5319 1321.13,344.7119 1274.5,363.4519 C1183.43,400.0419 879.9163,413.2211 788.8763,416.4211" fill="none" id="*start*-to-IDLE" style="stroke:#181818;stroke-width:1;"/><polygon fill="#181818" points="782.88,416.6319,792.015,420.3133,787.8769,416.4563,791.7339,412.3182,782.88,416.6319" style="stroke:#181818;stroke-width:1;"/><text fill="#000000" font-family="Noto Sans CJK SC" font-size="14" lengthAdjust="spacing" textLength="69.9997" x="1311.88" y="358.6918">&#31995;&#32479;&#21021;&#22987;&#21270;</text></g><!--link IDLE to CHARGING--><g class="link" data-entity-1="IDLE" data-entity-2="CHARGING" data-source-line="10" data-uid="lnk4" id="link_IDLE_CHARGING"><path d="M782.76,415.3419 C868.24,407.6319 1144.18,377.9019 1196.5,311.4519 C1221.54,279.6419 1219.28,253.8319 1196.5,220.3619 C1140.59,138.2219 1072.6,191.3019 988.5,138.3619 C979.46,132.6719 974.927,129.2876 967.317,122.0476" fill="none" id="IDLE-to-CHARGING" style="stroke:#181818;stroke-width:1;"/><polygon fill="#181818" points="962.97,117.9119,966.7334,127.0134,966.5925,121.3583,972.2476,121.2174,962.97,117.9119" style="stroke:#181818;stroke-width:1;"/><text fill="#000000" font-family="Noto Sans CJK SC" font-size="14" lengthAdjust="spacing" textLength="83.9996" x="1215.44" y="272.1418">&#29992;&#25143;&#21551;&#21160;&#20805;&#30005;</text></g><!--link CHARGING to IDLE--><g class="link" data-entity-1="CHARGING" data-entity-2="IDLE" data-source-line="11" data-uid="lnk5" id="link_CHARGING_IDLE"><path d="M909.05,94.5619 C839.62,98.1219 673.82,117.5119 602.5,220.3619 C579.43,253.6319 583.61,275.6419 602.5,311.4519 C629.96,363.4919 690.148,392.6931 726.568,406.6631" fill="none" id="CHARGING-to-IDLE" style="stroke:#181818;stroke-width:1;"/><polygon fill="#181818" points="732.17,408.8119,725.1995,401.854,727.5017,407.0212,722.3344,409.3234,732.17,408.8119" style="stroke:#181818;stroke-width:1;"/><text fill="#000000" font-family="Noto Sans CJK SC" font-size="14" lengthAdjust="spacing" textLength="293.9987" x="603.5" y="272.1418">&#27491;&#24120;&#32467;&#26463;&#20805;&#30005;&#65288;&#25187;&#36153;&#25104;&#21151;&#25110;&#26631;&#35760;&#27424;&#36153;&#65292;&#37322;&#25918;&#26729;&#65289;</text></g><!--link CHARGING to IDLE--><g class="link" data-entity-1="CHARGING" data-entity-2="IDLE" data-source-line="12" data-uid="lnk6" id="link_CHARGING_IDLE"><path d="M941.76,118.0819 C942.82,160.5919 939.84,249.8619 901.5,311.4519 C872.71,357.7019 821.1208,387.7382 788.1208,403.7082" fill="none" id="CHARGING-to-IDLE-1" style="stroke:#181818;stroke-width:1;"/><polygon fill="#181818" points="782.72,406.3219,792.5637,406.002,787.2207,404.1439,789.0788,398.8009,782.72,406.3219" style="stroke:#181818;stroke-width:1;"/><text fill="#000000" font-family="Noto Sans CJK SC" font-size="14" lengthAdjust="spacing" textLength="125.9995" x="935.1" y="272.1418">&#31649;&#29702;&#21592;&#24378;&#21046;&#32467;&#26463;&#20805;&#30005;</text></g><!--link CHARGING to FAULT--><g class="link" data-entity-1="CHARGING" data-entity-2="FAULT" data-source-line="13" data-uid="lnk7" id="link_CHARGING_FAULT"><path d="M909.2,95.7019 C773.93,104.2519 239.83,142.4619 93.5,220.3619 C84.31,225.2619 79.9847,228.4462 73.2247,236.0562" fill="none" id="CHARGING-to-FAULT" style="stroke:#181818;stroke-width:1;"/><polygon fill="#181818" points="69.24,240.5419,78.2076,236.4698,72.5606,236.8038,72.2266,231.1568,69.24,240.5419" style="stroke:#181818;stroke-width:1;"/><text fill="#000000" font-family="Noto Sans CJK SC" font-size="14" lengthAdjust="spacing" textLength="139.9994" x="266.9" y="185.6018">&#24322;&#24120;&#20013;&#26029;&#65288;&#31995;&#32479;&#26816;&#27979;&#65289;</text></g><!--link IDLE to FAULT--><g class="link" data-entity-1="IDLE" data-entity-2="FAULT" data-source-line="14" data-uid="lnk8" id="link_IDLE_FAULT"><path d="M732.17,412.9119 C663.77,400.7319 469.59,366.4919 307.5,341.4519 C212.58,326.7819 178.82,355.5419 93.5,311.4519 C84.25,306.6719 79.8985,303.5132 73.1485,295.8932" fill="none" id="IDLE-to-FAULT" style="stroke:#181818;stroke-width:1;"/><polygon fill="#181818" points="69.17,291.4019,72.1436,300.7912,72.4854,295.1446,78.1319,295.4865,69.17,291.4019" style="stroke:#181818;stroke-width:1;"/><text fill="#000000" font-family="Noto Sans CJK SC" font-size="14" lengthAdjust="spacing" textLength="83.9996" x="444.75" y="358.6918">&#25552;&#20132;&#25925;&#38556;&#25253;&#20462;</text></g><!--link FAULT to IDLE--><g class="link" data-entity-1="FAULT" data-entity-2="IDLE" data-source-line="15" data-uid="lnk9" id="link_FAULT_IDLE"><path d="M68.41,290.9919 C86.3,314.2519 116.84,348.1319 152.5,363.4519 C259.44,409.3919 625.8103,416.191 726.3303,417.211" fill="none" id="FAULT-to-IDLE" style="stroke:#181818;stroke-width:1;"/><polygon fill="#181818" points="732.33,417.2719,723.3711,413.1808,727.3303,417.2212,723.2899,421.1804,732.33,417.2719" style="stroke:#181818;stroke-width:1;"/><text fill="#000000" font-family="Noto Sans CJK SC" font-size="14" lengthAdjust="spacing" textLength="145.9074" x="153.5" y="358.6918">&#25253;&#20462;&#23457;&#26680;&#36890;&#36807;&#65288;close&#65289;</text></g><!--link CHARGING to GMN5--><g class="link" data-entity-1="CHARGING" data-entity-2="GMN5" data-source-line="18" data-uid="lnk7" id="link_CHARGING_GMN5"><path d="M966.17,118.1219 C973.33,124.7619 981.16,131.9119 988.5,138.3619 C1035.95,180.0819 1093.71,227.2019 1122.45,250.4019" fill="none" id="CHARGING-GMN5" style="stroke:#181818;stroke-width:1;stroke-dasharray:7,7;"/></g><!--SRC=[RL9TJzfW5BxlhtZZvH9dbkpAYoK6qRaHC39tCupfe2ePjWkjDrx1iihtP96fSnf4C8AJkWy_c5JuCttFMwxy2tlVbc8bNhKzv_Gvv_cGFqJ5ZtoSNqKHOObVYobJagZu-LK1ZVWbHK91NfIHvzLh5FICSF9Zmy7eke2UFUUKg18J45PLKhg4IeDaho2Hn3yw72Shl4BnIEEcj_Dd1F4ocfdqUPsoSTibfRhHQbeTpyk9kUaP_xJJXMzgRs_VQarDpFlUSDox9mjeTFI5XO764VdR9kqoJX_WanpERtDMcVKT93PJgaFw6XVFSRPk7yWDkYueQ5PngqNQMt1GjiVkz3HagkR5FqWNSROCwMquJ9dQBpWxfCKxFTzBPQ7KeNJlzCoZc4IhaE86_hgBzHkSldA3FvotsD4ViFw97a7bWEqcNM_JWse2BdDinu2UCm-RHUEcPii4sMEZgt5soqtCgcEj0eUjNcBFxAOeSZWcoGA3v4I9AlrUKXHf5KbBWvyg3RnvJgKRxhk4POhjEv8EZJa7zlOJf7t1zjS-Kodww-BHvHLb6CrIrGuEAVr6uHK-lYmineMm58_8JoD2P2siH2LnaMLZJKRcTTbidOR4GUQCjafNGRPcSnYx1n_hdsEqCkIaG38DUeczA2JQQs7doeu9MefBwu8uBohH63AFVffQXzngpElTDZIFy4O1pYhkB8N4VhvK5ITqit9Cz0jS_6AcJkc8ULBjVQ_X3UhYrZ3rWOMMFN2P9FNSE0hCUls8UUTVd9qBJCzvWq7sIPy1trll97lt-091xwIBE3MXNwJ6FlGvGub1yWZN2fOe8T41Ok6oVT7oDDxzIIPYmUWUG3vftqU9qqKTzJx8BdXA4p856_u_]--></g></svg>