<svg xmlns="http://www.w3.org/2000/svg" xmlns:xlink="http://www.w3.org/1999/xlink" contentStyleType="text/css" data-diagram-type="DESCRIPTION" height="350px" preserveAspectRatio="none" style="width:996px;height:350px;background:#FFFFFF;" version="1.1" viewBox="0 0 996 350" width="996px" zoomAndPan="magnify"><title>&#20805;&#30005;&#27969;&#31243;&#29992;&#20363;</title><defs/><g><g class="title" data-source-line="3"><text fill="#000000" font-family="Noto Sans CJK SC" font-size="14" font-weight="bold" lengthAdjust="spacing" textLength="83.9996" x="449.3969" y="26.2399">&#20805;&#30005;&#27969;&#31243;&#29992;&#20363;</text></g><!--entity U--><g class="entity" data-entity="U" data-source-line="6" data-uid="ent0002" id="entity_U"><ellipse cx="408.3999" cy="166.3119" fill="#F1F1F1" rx="8" ry="8" style="stroke:#181818;stroke-width:0.5;"/><path d="M408.3999,174.3119 L408.3999,201.3119 M395.3999,182.3119 L421.3999,182.3119 M408.3999,201.3119 L395.3999,216.3119 M408.3999,201.3119 L421.3999,216.3119" fill="none" style="stroke:#181818;stroke-width:0.5;"/><text fill="#000000" font-family="Noto Sans CJK SC" font-size="14" lengthAdjust="spacing" textLength="27.9999" x="394.4" y="234.0518">&#29992;&#25143;</text></g><!--entity M--><g class="entity" data-entity="M" data-source-line="7" data-uid="ent0003" id="entity_M"><ellipse cx="485.3999" cy="166.3119" fill="#F1F1F1" rx="8" ry="8" style="stroke:#181818;stroke-width:0.5;"/><path d="M485.3999,174.3119 L485.3999,201.3119 M472.3999,182.3119 L498.3999,182.3119 M485.3999,201.3119 L472.3999,216.3119 M485.3999,201.3119 L498.3999,216.3119" fill="none" style="stroke:#181818;stroke-width:0.5;"/><text fill="#000000" font-family="Noto Sans CJK SC" font-size="14" lengthAdjust="spacing" textLength="55.9998" x="457.4" y="234.0518">&#32500;&#20462;&#20154;&#21592;</text></g><!--entity A--><g class="entity" data-entity="A" data-source-line="8" data-uid="ent0004" id="entity_A"><ellipse cx="768.3999" cy="166.3119" fill="#F1F1F1" rx="8" ry="8" style="stroke:#181818;stroke-width:0.5;"/><path d="M768.3999,174.3119 L768.3999,201.3119 M755.3999,182.3119 L781.3999,182.3119 M768.3999,201.3119 L755.3999,216.3119 M768.3999,201.3119 L781.3999,216.3119" fill="none" style="stroke:#181818;stroke-width:0.5;"/><text fill="#000000" font-family="Noto Sans CJK SC" font-size="14" lengthAdjust="spacing" textLength="41.9998" x="747.4" y="234.0518">&#31649;&#29702;&#21592;</text></g><!--entity SA--><g class="entity" data-entity="SA" data-source-line="9" data-uid="ent0005" id="entity_SA"><ellipse cx="893.3998" cy="166.3119" fill="#F1F1F1" rx="8" ry="8" style="stroke:#181818;stroke-width:0.5;"/><path d="M893.3998,174.3119 L893.3998,201.3119 M880.3998,182.3119 L906.3998,182.3119 M893.3998,201.3119 L880.3998,216.3119 M893.3998,201.3119 L906.3998,216.3119" fill="none" style="stroke:#181818;stroke-width:0.5;"/><text fill="#000000" font-family="Noto Sans CJK SC" font-size="14" lengthAdjust="spacing" textLength="69.9997" x="858.4" y="234.0518">&#26368;&#39640;&#31649;&#29702;&#32773;</text></g><!--entity MC--><g class="entity" data-entity="MC" data-source-line="10" data-uid="ent0006" id="entity_MC"><ellipse cx="321.3998" cy="166.3119" fill="#F1F1F1" rx="8" ry="8" style="stroke:#181818;stroke-width:0.5;"/><path d="M321.3998,174.3119 L321.3998,201.3119 M308.3998,182.3119 L334.3998,182.3119 M321.3998,201.3119 L308.3998,216.3119 M321.3998,201.3119 L334.3998,216.3119" fill="none" style="stroke:#181818;stroke-width:0.5;"/><text fill="#000000" font-family="Noto Sans CJK SC" font-size="14" lengthAdjust="spacing" textLength="76.7197" x="283.04" y="234.0518">Mock&#20805;&#30005;&#26426;</text></g><!--entity S--><g class="entity" data-entity="S" data-source-line="11" data-uid="ent0007" id="entity_S"><ellipse cx="562.3999" cy="166.3119" fill="#F1F1F1" rx="8" ry="8" style="stroke:#181818;stroke-width:0.5;"/><path d="M562.3999,174.3119 L562.3999,201.3119 M549.3999,182.3119 L575.3999,182.3119 M562.3999,201.3119 L549.3999,216.3119 M562.3999,201.3119 L575.3999,216.3119" fill="none" style="stroke:#181818;stroke-width:0.5;"/><text fill="#000000" font-family="Noto Sans CJK SC" font-size="14" lengthAdjust="spacing" textLength="27.9999" x="548.4" y="234.0518">&#31995;&#32479;</text></g><!--entity ????--><g class="entity" data-entity="...." data-source-line="13" data-uid="ent0008" id="entity_...."><ellipse cx="328.3978" cy="315.4263" fill="#F1F1F1" rx="42.5978" ry="17.3344" style="stroke:#181818;stroke-width:0.5;"/><text fill="#000000" font-family="Noto Sans CJK SC" font-size="14" lengthAdjust="spacing" textLength="55.9998" x="300.3979" y="322.0623">&#21551;&#21160;&#20805;&#30005;</text></g><!--entity ????--><g class="entity" data-entity="...." data-source-line="14" data-uid="ent0009" id="entity_...."><ellipse cx="208.3978" cy="315.4263" fill="#F1F1F1" rx="42.5978" ry="17.3344" style="stroke:#181818;stroke-width:0.5;"/><text fill="#000000" font-family="Noto Sans CJK SC" font-size="14" lengthAdjust="spacing" textLength="55.9998" x="180.3979" y="322.0623">&#20313;&#39069;&#26657;&#39564;</text></g><!--entity ???????--><g class="entity" data-entity="......." data-source-line="15" data-uid="ent0010" id="entity_......."><ellipse cx="478.3962" cy="315.4263" fill="#F1F1F1" rx="72.2962" ry="17.3344" style="stroke:#181818;stroke-width:0.5;"/><text fill="#000000" font-family="Noto Sans CJK SC" font-size="14" lengthAdjust="spacing" textLength="97.9996" x="429.3964" y="322.0623">&#32467;&#26463;&#20805;&#30005;&#24182;&#25187;&#36153;</text></g><!--entity ????--><g class="entity" data-entity="...." data-source-line="16" data-uid="ent0011" id="entity_...."><ellipse cx="628.3978" cy="315.4263" fill="#F1F1F1" rx="42.5978" ry="17.3344" style="stroke:#181818;stroke-width:0.5;"/><text fill="#000000" font-family="Noto Sans CJK SC" font-size="14" lengthAdjust="spacing" textLength="55.9998" x="600.3979" y="322.0623">&#33258;&#21160;&#25187;&#36153;</text></g><!--entity ??????--><g class="entity" data-entity="......" data-source-line="17" data-uid="ent0012" id="entity_......"><ellipse cx="928.3967" cy="315.4263" fill="#F1F1F1" rx="62.3967" ry="17.3344" style="stroke:#181818;stroke-width:0.5;"/><text fill="#000000" font-family="Noto Sans CJK SC" font-size="14" lengthAdjust="spacing" textLength="83.9996" x="886.3969" y="322.0623">&#24378;&#21046;&#32467;&#26463;&#20805;&#30005;</text></g><!--entity ??????--><g class="entity" data-entity="......" data-source-line="18" data-uid="ent0013" id="entity_......"><ellipse cx="768.3967" cy="315.4263" fill="#F1F1F1" rx="62.3967" ry="17.3344" style="stroke:#181818;stroke-width:0.5;"/><text fill="#000000" font-family="Noto Sans CJK SC" font-size="14" lengthAdjust="spacing" textLength="83.9996" x="726.3969" y="322.0623">&#26597;&#30475;&#20805;&#30005;&#35760;&#24405;</text></g><!--entity ??????--><g class="entity" data-entity="......" data-source-line="19" data-uid="ent0014" id="entity_......"><ellipse cx="68.3967" cy="315.4263" fill="#F1F1F1" rx="62.3967" ry="17.3344" style="stroke:#181818;stroke-width:0.5;"/><text fill="#000000" font-family="Noto Sans CJK SC" font-size="14" lengthAdjust="spacing" textLength="83.9996" x="26.3969" y="322.0623">&#26597;&#35810;&#20805;&#30005;&#29366;&#24577;</text></g><g class="entity" data-entity="GMN29" data-source-line="35" data-uid="ent0030" id="entity_GMN29"><path d="M247.9,47.2719 L247.9,97.8157 A0,0 0 0 0 247.9,97.8157 L317.4,97.8157 L321.4,157.4819 L325.4,97.8157 L394.8995,97.8157 A0,0 0 0 0 394.8995,97.8157 L394.8995,57.2719 L384.8995,47.2719 L247.9,47.2719 A0,0 0 0 0 247.9,47.2719" fill="#FEFFDD" style="stroke:#181818;stroke-width:0.5;"/><path d="M384.8995,47.2719 L384.8995,57.2719 L394.8995,57.2719 L384.8995,47.2719" fill="#FEFFDD" style="stroke:#181818;stroke-width:0.5;"/><text fill="#000000" font-family="Noto Sans CJK SC" font-size="14" lengthAdjust="spacing" textLength="112.9935" x="253.9" y="68.5118">Swing &#26700;&#38754;&#23458;&#25143;&#31471;</text><text fill="#000000" font-family="Noto Sans CJK SC" font-size="14" lengthAdjust="spacing" textLength="125.9995" x="253.9" y="88.7838">&#27169;&#25311;&#29289;&#29702;&#20805;&#30005;&#26426;&#20132;&#20114;</text></g><!--link U to ????--><g class="link" data-entity-1="U" data-entity-2="...." data-source-line="21" data-uid="lnk15" id="link_U_...."><path d="M400.25,238.4919 C400.25,272.5619 400.25,315.7519 400.25,315.7519 C400.25,315.7519 392.74,315.7519 377.44,315.7519" fill="none" id="U-to-&#21551;&#21160;&#20805;&#30005;" style="stroke:#181818;stroke-width:1;"/><polygon fill="#181818" points="371.44,315.7519,380.44,319.7519,376.44,315.7519,380.44,311.7519,371.44,315.7519" style="stroke:#181818;stroke-width:1;"/></g><!--link U to ???????--><g class="link" data-entity-1="U" data-entity-2="......." data-source-line="22" data-uid="lnk16" id="link_U_......."><path d="M414.25,238.3719 C414.25,263.3319 414.25,287.1819 414.25,301.2819" fill="none" id="U-to-&#32467;&#26463;&#20805;&#30005;&#24182;&#25187;&#36153;" style="stroke:#181818;stroke-width:1;"/><polygon fill="#181818" points="414.25,307.2819,418.25,298.2819,414.25,302.2819,410.25,298.2819,414.25,307.2819" style="stroke:#181818;stroke-width:1;"/></g><!--link U to ??????--><g class="link" data-entity-1="U" data-entity-2="......" data-source-line="23" data-uid="lnk17" id="link_U_......"><path d="M418.32,238.5019 C418.32,252.0419 418.32,263.7519 418.32,263.7519 C418.32,263.7519 719.8,263.7519 719.8,263.7519 C719.8,263.7519 719.8,283.0119 719.8,298.2019" fill="none" id="U-to-&#26597;&#30475;&#20805;&#30005;&#35760;&#24405;" style="stroke:#181818;stroke-width:1;"/><polygon fill="#181818" points="719.8,304.2019,723.8,295.2019,719.8,299.2019,715.8,295.2019,719.8,304.2019" style="stroke:#181818;stroke-width:1;"/></g><!--link M to ????--><g class="link" data-entity-1="M" data-entity-2="...." data-source-line="24" data-uid="lnk18" id="link_M_...."><path d="M471.4,238.4819 C471.4,263.0719 471.4,289.7519 471.4,289.7519 C471.4,289.7519 365.38,289.7519 365.38,289.7519 C365.38,289.7519 365.38,293.0419 365.38,300.4419" fill="none" id="M-to-&#21551;&#21160;&#20805;&#30005;" style="stroke:#181818;stroke-width:1;"/><polygon fill="#181818" points="365.38,306.4419,369.38,297.4419,365.38,301.4419,361.38,297.4419,365.38,306.4419" style="stroke:#181818;stroke-width:1;"/></g><!--link M to ???????--><g class="link" data-entity-1="M" data-entity-2="......." data-source-line="25" data-uid="lnk19" id="link_M_......."><path d="M485.4,238.3719 C485.4,258.6819 485.4,276.2319 485.4,291.9019" fill="none" id="M-to-&#32467;&#26463;&#20805;&#30005;&#24182;&#25187;&#36153;" style="stroke:#181818;stroke-width:1;"/><polygon fill="#181818" points="485.4,297.9019,489.4,288.9019,485.4,292.9019,481.4,288.9019,485.4,297.9019" style="stroke:#181818;stroke-width:1;"/></g><!--link M to ??????--><g class="link" data-entity-1="M" data-entity-2="......" data-source-line="26" data-uid="lnk20" id="link_M_......"><path d="M499.4,238.3219 C499.4,247.5719 499.4,254.7519 499.4,254.7519 C499.4,254.7519 733.6,254.7519 733.6,254.7519 C733.6,254.7519 733.6,276.7819 733.6,294.7319" fill="none" id="M-to-&#26597;&#30475;&#20805;&#30005;&#35760;&#24405;" style="stroke:#181818;stroke-width:1;"/><polygon fill="#181818" points="733.6,300.7319,737.6,291.7319,733.6,295.7319,729.6,291.7319,733.6,300.7319" style="stroke:#181818;stroke-width:1;"/></g><!--link A to ???????--><g class="link" data-entity-1="A" data-entity-2="......." data-source-line="27" data-uid="lnk21" id="link_A_......."><path d="M757.9,238.2519 C757.9,243.3119 757.9,246.7519 757.9,246.7519 C757.9,246.7519 530.9,246.7519 530.9,246.7519 C530.9,246.7519 530.9,277.3919 530.9,297.1419" fill="none" id="A-to-&#32467;&#26463;&#20805;&#30005;&#24182;&#25187;&#36153;" style="stroke:#181818;stroke-width:1;"/><polygon fill="#181818" points="530.9,303.1419,534.9,294.1419,530.9,298.1419,526.9,294.1419,530.9,303.1419" style="stroke:#181818;stroke-width:1;"/></g><!--link A to ??????--><g class="link" data-entity-1="A" data-entity-2="......" data-source-line="28" data-uid="lnk22" id="link_A_......"><path d="M778.9,238.4119 C778.9,256.0419 778.9,272.7519 778.9,272.7519 C778.9,272.7519 886.8,272.7519 886.8,272.7519 C886.8,272.7519 886.8,283.8419 886.8,296.3819" fill="none" id="A-to-&#24378;&#21046;&#32467;&#26463;&#20805;&#30005;" style="stroke:#181818;stroke-width:1;"/><polygon fill="#181818" points="886.8,302.3819,890.8,293.3819,886.8,297.3819,882.8,293.3819,886.8,302.3819" style="stroke:#181818;stroke-width:1;"/></g><!--link A to ??????--><g class="link" data-entity-1="A" data-entity-2="......" data-source-line="29" data-uid="lnk23" id="link_A_......"><path d="M768.4,238.3719 C768.4,258.5519 768.4,275.9319 768.4,291.5919" fill="none" id="A-to-&#26597;&#30475;&#20805;&#30005;&#35760;&#24405;" style="stroke:#181818;stroke-width:1;"/><polygon fill="#181818" points="768.4,297.5919,772.4,288.5919,768.4,292.5919,764.4,288.5919,768.4,297.5919" style="stroke:#181818;stroke-width:1;"/></g><!--link SA to ??????--><g class="link" data-entity-1="SA" data-entity-2="......" data-source-line="30" data-uid="lnk24" id="link_SA_......"><path d="M907.6,238.3719 C907.6,259.0819 907.6,277.1619 907.6,292.8119" fill="none" id="SA-to-&#24378;&#21046;&#32467;&#26463;&#20805;&#30005;" style="stroke:#181818;stroke-width:1;"/><polygon fill="#181818" points="907.6,298.8119,911.6,289.8119,907.6,293.8119,903.6,289.8119,907.6,298.8119" style="stroke:#181818;stroke-width:1;"/></g><!--link SA to ??????--><g class="link" data-entity-1="SA" data-entity-2="......" data-source-line="31" data-uid="lnk25" id="link_SA_......"><path d="M862.2,238.4919 C862.2,272.5619 862.2,315.7519 862.2,315.7519 C862.2,315.7519 854.31,315.7519 837.22,315.7519" fill="none" id="SA-to-&#26597;&#30475;&#20805;&#30005;&#35760;&#24405;" style="stroke:#181818;stroke-width:1;"/><polygon fill="#181818" points="831.22,315.7519,840.22,319.7519,836.22,315.7519,840.22,311.7519,831.22,315.7519" style="stroke:#181818;stroke-width:1;"/></g><!--link MC to ????--><g class="link" data-entity-1="MC" data-entity-2="...." data-source-line="32" data-uid="lnk26" id="link_MC_...."><path d="M310.45,238.3719 C310.45,259.3419 310.45,277.7819 310.45,293.4119" fill="none" id="MC-to-&#21551;&#21160;&#20805;&#30005;" style="stroke:#181818;stroke-width:1;"/><polygon fill="#181818" points="310.45,299.4119,314.45,290.4119,310.45,294.4119,306.45,290.4119,310.45,299.4119" style="stroke:#181818;stroke-width:1;"/></g><!--link MC to ???????--><g class="link" data-entity-1="MC" data-entity-2="......." data-source-line="33" data-uid="lnk27" id="link_MC_......."><path d="M335.1,238.3819 C335.1,259.4019 335.1,280.7519 335.1,280.7519 C335.1,280.7519 410.17,280.7519 410.17,280.7519 C410.17,280.7519 410.17,293.4519 410.17,303.3819" fill="none" id="MC-to-&#32467;&#26463;&#20805;&#30005;&#24182;&#25187;&#36153;" style="stroke:#181818;stroke-width:1;"/><polygon fill="#181818" points="410.17,309.3819,414.17,300.3819,410.17,304.3819,406.17,300.3819,410.17,309.3819" style="stroke:#181818;stroke-width:1;"/></g><!--link MC to ??????--><g class="link" data-entity-1="MC" data-entity-2="......" data-source-line="34" data-uid="lnk28" id="link_MC_......"><path d="M282.7,197.7519 C211.82,197.7519 68.4,197.7519 68.4,197.7519 C68.4,197.7519 68.4,258.9819 68.4,291.8019" fill="none" id="MC-to-&#26597;&#35810;&#20805;&#30005;&#29366;&#24577;" style="stroke:#181818;stroke-width:1;"/><polygon fill="#181818" points="68.4,297.8019,72.4,288.8019,68.4,292.8019,64.4,288.8019,68.4,297.8019" style="stroke:#181818;stroke-width:1;"/></g><!--link S to ???????--><g class="link" data-entity-1="S" data-entity-2="......." data-source-line="36" data-uid="lnk32" id="link_S_......."><path d="M563.54,238.3119 C563.54,270.3319 563.54,309.7519 563.54,309.7519 C563.54,309.7519 562.81,309.7519 553.13,309.7519" fill="none" id="S-to-&#32467;&#26463;&#20805;&#30005;&#24182;&#25187;&#36153;" style="stroke:#181818;stroke-width:1;"/><polygon fill="#181818" points="547.13,309.7519,556.13,313.7519,552.13,309.7519,556.13,305.7519,547.13,309.7519" style="stroke:#181818;stroke-width:1;"/></g><!--link ???? to ????--><g class="link" data-entity-1="...." data-entity-2="...." data-source-line="38" data-uid="lnk34" id="link_...._...."><path d="M251.38,315.7519 C262.41,315.7519 268.28,315.7519 279.31,315.7519" fill="none" id="&#20313;&#39069;&#26657;&#39564;-to-&#21551;&#21160;&#20805;&#30005;" style="stroke:#181818;stroke-width:1;stroke-dasharray:7,7;"/><polygon fill="#181818" points="285.31,315.7519,276.31,311.7519,280.31,315.7519,276.31,319.7519,285.31,315.7519" style="stroke:#181818;stroke-width:1;"/><text fill="#000000" font-family="Noto Sans CJK SC" font-size="14" lengthAdjust="spacing" textLength="61.8518" x="253.6" y="332.9918">&#171;include&#187;</text></g><!--reverse link ??????? to ????--><g class="link" data-entity-1="......." data-entity-2="...." data-source-line="39" data-uid="lnk35" id="link_......._...."><path d="M553.69,320.7519 C567.35,320.7519 575.27,320.7519 587.61,320.7519" fill="none" id="&#32467;&#26463;&#20805;&#30005;&#24182;&#25187;&#36153;-backto-&#33258;&#21160;&#25187;&#36153;" style="stroke:#181818;stroke-width:1;stroke-dasharray:7,7;"/><polygon fill="#181818" points="547.69,320.7519,556.69,324.7519,552.69,320.7519,556.69,316.7519,547.69,320.7519" style="stroke:#181818;stroke-width:1;"/><text fill="#000000" font-family="Noto Sans CJK SC" font-size="14" lengthAdjust="spacing" textLength="61.8518" x="537.15" y="337.9918">&#171;include&#187;</text></g><!--SRC=[VL9DIm9H5Ds_Nt5nbOk2e5M840CjYcapj6ipsBE6fdcYBw9Mjh0lM_G91Off1LQWGMKqPlsPUU-D_w9NJuSfHvVtd7lE_U3arYmdOsRDTLZ6QNF3fhF4eGlcEeRO0g443DF9WJOt3uOMGxcePiFQnZ0vXQX5RGoiK13dh_nrHzIBuhpkVHP3AjjoCDtAO21PkaeGCbEKP24c-_Z-MmpC72m6MFl5-sfuhijEBdyPFM0QLN6ysuTd-Z0lvRkFbuhqyuLVqWXOdQJMUgkLNEMd1ORFRT6kA052O-ouoGxhgZcEnhpELRTMvjVLxiEHB4NxZ9ShYcNlBNvmux-yIzpVUv2ge6GVBjjlXPibo2jtebHKfTzuOfqB1VhDcWB5OOldT-88BSBuU1B2c_IWoF4zRj0UwOC- -WWVVPZFp0YHuWOFxX4HRiPGYJ5KesiHfsYZRj7wLl_UYnn2CL2I0PAMAO1fC3OjPmLuzQXRhh56JMPHF3QN75wlyc957Dp_nAsV7S-zzTnJP8oOZC9BGcB2ncaw0U4SoPc9XEMax8rbd4oYI1ifp5ehgr8PZjPVvJS0]--></g></svg>