<svg xmlns="http://www.w3.org/2000/svg" xmlns:xlink="http://www.w3.org/1999/xlink" contentStyleType="text/css" data-diagram-type="DESCRIPTION" height="592px" preserveAspectRatio="none" style="width:992px;height:592px;background:#FFFFFF;" version="1.1" viewBox="0 0 992 592" width="992px" zoomAndPan="magnify"><title>&#32479;&#35745;&#19982;&#21487;&#35270;&#21270;&#29992;&#20363;</title><defs/><g><g class="title" data-source-line="3"><text fill="#000000" font-family="Noto Sans CJK SC" font-size="14" font-weight="bold" lengthAdjust="spacing" textLength="111.9995" x="433.2506" y="26.2399">&#32479;&#35745;&#19982;&#21487;&#35270;&#21270;&#29992;&#20363;</text></g><!--entity S--><g class="entity" data-entity="S" data-source-line="7" data-uid="ent0002" id="entity_S"><ellipse cx="209.2999" cy="335.9619" fill="#F1F1F1" rx="8" ry="8" style="stroke:#181818;stroke-width:0.5;"/><path d="M209.2999,343.9619 L209.2999,370.9619 M196.2999,351.9619 L222.2999,351.9619 M209.2999,370.9619 L196.2999,385.9619 M209.2999,370.9619 L222.2999,385.9619" fill="none" style="stroke:#181818;stroke-width:0.5;"/><text fill="#000000" font-family="Noto Sans CJK SC" font-size="14" lengthAdjust="spacing" textLength="27.9999" x="195.3" y="403.7018">&#31995;&#32479;</text></g><!--entity A--><g class="entity" data-entity="A" data-source-line="8" data-uid="ent0003" id="entity_A"><ellipse cx="40.9999" cy="463.9619" fill="#F1F1F1" rx="8" ry="8" style="stroke:#181818;stroke-width:0.5;"/><path d="M40.9999,471.9619 L40.9999,498.9619 M27.9999,479.9619 L53.9999,479.9619 M40.9999,498.9619 L27.9999,513.9619 M40.9999,498.9619 L53.9999,513.9619" fill="none" style="stroke:#181818;stroke-width:0.5;"/><text fill="#000000" font-family="Noto Sans CJK SC" font-size="14" lengthAdjust="spacing" textLength="41.9998" x="20" y="531.7018">&#31649;&#29702;&#21592;</text></g><!--entity SA--><g class="entity" data-entity="SA" data-source-line="9" data-uid="ent0004" id="entity_SA"><ellipse cx="40.9998" cy="102.9619" fill="#F1F1F1" rx="8" ry="8" style="stroke:#181818;stroke-width:0.5;"/><path d="M40.9998,110.9619 L40.9998,137.9619 M27.9998,118.9619 L53.9998,118.9619 M40.9998,137.9619 L27.9998,152.9619 M40.9998,137.9619 L53.9998,152.9619" fill="none" style="stroke:#181818;stroke-width:0.5;"/><text fill="#000000" font-family="Noto Sans CJK SC" font-size="14" lengthAdjust="spacing" textLength="69.9997" x="6" y="170.7018">&#26368;&#39640;&#31649;&#29702;&#32773;</text></g><!--entity GR--><g class="entity" data-entity="GR" data-source-line="11" data-uid="ent0005" id="entity_GR"><ellipse cx="463.9867" cy="330.6063" fill="#F1F1F1" rx="62.3967" ry="17.3344" style="stroke:#181818;stroke-width:0.5;"/><text fill="#000000" font-family="Noto Sans CJK SC" font-size="14" lengthAdjust="spacing" textLength="83.9996" x="421.9869" y="337.2423">&#29983;&#25104;&#32479;&#35745;&#25253;&#34920;</text></g><!--entity VU--><g class="entity" data-entity="VU" data-source-line="12" data-uid="ent0006" id="entity_VU"><ellipse cx="817.4373" cy="291.6063" fill="#F1F1F1" rx="52.4973" ry="17.3344" style="stroke:#181818;stroke-width:0.5;"/><text fill="#000000" font-family="Noto Sans CJK SC" font-size="14" lengthAdjust="spacing" textLength="69.9997" x="782.4374" y="298.2423">&#26597;&#30475;&#20351;&#29992;&#29575;</text></g><!--entity EXP--><g class="entity" data-entity="EXP" data-source-line="13" data-uid="ent0007" id="entity_EXP"><ellipse cx="209.3045" cy="275.6063" fill="#F1F1F1" rx="42.9245" ry="17.3344" style="stroke:#181818;stroke-width:0.5;"/><text fill="#000000" font-family="Noto Sans CJK SC" font-size="14" lengthAdjust="spacing" textLength="56.4618" x="181.0736" y="282.2423">&#23548;&#20986; CSV</text></g><!--entity UCS--><g class="entity" data-entity="UCS" data-source-line="14" data-uid="ent0008" id="entity_UCS"><ellipse cx="209.2967" cy="64.6063" fill="#F1F1F1" rx="62.3967" ry="17.3344" style="stroke:#181818;stroke-width:0.5;"/><text fill="#000000" font-family="Noto Sans CJK SC" font-size="14" lengthAdjust="spacing" textLength="83.9996" x="167.2969" y="71.2423">&#29992;&#25143;&#20805;&#30005;&#32479;&#35745;</text></g><!--entity FCL--><g class="entity" data-entity="FCL" data-source-line="15" data-uid="ent0009" id="entity_FCL"><ellipse cx="209.2962" cy="530.6063" fill="#F1F1F1" rx="72.2962" ry="17.3344" style="stroke:#181818;stroke-width:0.5;"/><text fill="#000000" font-family="Noto Sans CJK SC" font-size="14" lengthAdjust="spacing" textLength="97.9996" x="160.2964" y="537.2423">&#25925;&#38556;&#20805;&#30005;&#26729;&#21015;&#34920;</text></g><g class="entity" data-entity="GMN22" data-source-line="31" data-uid="ent0023" id="entity_GMN22"><path d="M649.39,344.3219 L649.39,347.0319 L522.63,336.9919 L649.39,355.0319 L649.39,394.8657 A0,0 0 0 0 649.39,394.8657 L985.5006,394.8657 A0,0 0 0 0 985.5006,394.8657 L985.5006,354.3219 L975.5006,344.3219 L649.39,344.3219 A0,0 0 0 0 649.39,344.3219" fill="#FEFFDD" style="stroke:#181818;stroke-width:0.5;"/><path d="M975.5006,344.3219 L975.5006,354.3219 L985.5006,354.3219 L975.5006,344.3219" fill="#FEFFDD" style="stroke:#181818;stroke-width:0.5;"/><text fill="#000000" font-family="Noto Sans CJK SC" font-size="14" lengthAdjust="spacing" textLength="306.3187" x="655.39" y="365.5618">&#25910;&#20837;&#32479;&#35745;&#25253;&#34920;&#65288;&#21547;&#36130;&#21153;&#25968;&#25454;&#65289;&#20165;&#38480;&#26368;&#39640;&#31649;&#29702;&#32773;(SA)</text><text fill="#000000" font-family="Noto Sans CJK SC" font-size="14" lengthAdjust="spacing" textLength="315.1106" x="655.39" y="385.8338">&#20351;&#29992;&#29575;&#20998;&#26512;&#12289;&#29992;&#25143;&#20805;&#30005;&#32479;&#35745; &#31649;&#29702;&#21592;(A)&#21450;&#20197;&#19978;&#21487;&#26597;&#30475;</text></g><!--link S to GR--><g class="link" data-entity-1="S" data-entity-2="GR" data-source-line="17" data-uid="lnk10" id="link_S_GR"><path d="M223.53,365.6619 C257.34,360.7119 342.5332,348.2308 402.1132,339.5108" fill="none" id="S-to-GR" style="stroke:#181818;stroke-width:1;"/><polygon fill="#181818" points="408.05,338.6419,398.5656,335.9874,403.1027,339.366,399.7241,343.9031,408.05,338.6419" style="stroke:#181818;stroke-width:1;"/></g><!--link A to GR--><g class="link" data-entity-1="A" data-entity-2="GR" data-source-line="18" data-uid="lnk11" id="link_A_GR"><path d="M62.33,491.1019 C104.22,481.5219 202.82,457.3619 281.59,425.6019 C338.96,402.4619 396.9728,369.9415 431.5728,349.5215" fill="none" id="A-to-GR" style="stroke:#181818;stroke-width:1;"/><polygon fill="#181818" points="436.74,346.4719,426.9561,347.6014,432.434,349.0132,431.0222,354.4911,436.74,346.4719" style="stroke:#181818;stroke-width:1;"/></g><!--link A to VU--><g class="link" data-entity-1="A" data-entity-2="VU" data-source-line="19" data-uid="lnk12" id="link_A_VU"><path d="M62.36,516.7319 C80.21,533.6219 107.81,556.0019 137,565.6019 C198.05,585.6619 219.98,583.8619 281.59,565.6019 C468.5,510.2019 469.18,400.9619 649.39,326.6019 C687.32,310.9419 727.172,302.8422 761.202,297.9122" fill="none" id="A-to-VU" style="stroke:#181818;stroke-width:1;"/><polygon fill="#181818" points="767.14,297.0519,757.6595,294.3836,762.1917,297.7688,758.8065,302.301,767.14,297.0519" style="stroke:#181818;stroke-width:1;"/></g><!--link A to EXP--><g class="link" data-entity-1="A" data-entity-2="EXP" data-source-line="20" data-uid="lnk13" id="link_A_EXP"><path d="M54.12,454.9719 C68.21,413.7719 95.03,350.4419 137,309.6019 C147.52,299.3619 156.1628,294.0526 169.1028,288.6526" fill="none" id="A-to-EXP" style="stroke:#181818;stroke-width:1;"/><polygon fill="#181818" points="174.64,286.3419,164.7937,286.1165,170.0257,288.2675,167.8747,293.4995,174.64,286.3419" style="stroke:#181818;stroke-width:1;"/></g><!--link SA to UCS--><g class="link" data-entity-1="SA" data-entity-2="UCS" data-source-line="21" data-uid="lnk14" id="link_SA_UCS"><path d="M76.46,130.9719 C110.71,120.1519 156.8365,100.9579 184.2565,84.3679" fill="none" id="SA-to-UCS" style="stroke:#181818;stroke-width:1;"/><polygon fill="#181818" points="189.39,81.2619,179.6191,82.4985,185.1121,83.8502,183.7603,89.3432,189.39,81.2619" style="stroke:#181818;stroke-width:1;"/></g><!--link SA to UCS--><g class="link" data-entity-1="SA" data-entity-2="UCS" data-source-line="26" data-uid="lnk19" id="link_SA_UCS"><path d="M76.46,109.2219 C99.57,97.0519 124.8104,85.6499 150.8604,76.1899" fill="none" id="SA-to-UCS-1" style="stroke:#181818;stroke-width:1;"/><polygon fill="#181818" points="156.5,74.1419,146.6752,73.4542,151.8003,75.8486,149.4059,80.9737,156.5,74.1419" style="stroke:#181818;stroke-width:1;"/></g><!--link SA to GR--><g class="link" data-entity-1="SA" data-entity-2="GR" data-source-line="22" data-uid="lnk15" id="link_SA_GR"><path d="M76.23,148.5019 C160.41,182.6919 370.72,268.1319 371.59,268.6019 C396.78,282.0719 418.7892,297.2898 436.8192,310.6498" fill="none" id="SA-to-GR" style="stroke:#181818;stroke-width:1;"/><polygon fill="#181818" points="441.64,314.2219,436.7903,305.6499,437.6227,311.2451,432.0274,312.0776,441.64,314.2219" style="stroke:#181818;stroke-width:1;"/></g><!--link SA to VU--><g class="link" data-entity-1="SA" data-entity-2="VU" data-source-line="23" data-uid="lnk16" id="link_SA_VU"><path d="M76.2,140.1719 C122.75,147.8519 208.64,162.3619 281.59,176.6019 C465.24,212.4219 677.1192,259.8822 767.7192,280.4722" fill="none" id="SA-to-VU" style="stroke:#181818;stroke-width:1;"/><polygon fill="#181818" points="773.57,281.8019,765.6802,275.9069,768.6943,280.6939,763.9073,283.7079,773.57,281.8019" style="stroke:#181818;stroke-width:1;"/></g><!--link SA to EXP--><g class="link" data-entity-1="SA" data-entity-2="EXP" data-source-line="24" data-uid="lnk17" id="link_SA_EXP"><path d="M61.55,174.9619 C72.47,194.1419 87.59,216.1919 106,231.6019 C125.42,247.8519 146.0563,257.0994 167.1463,264.1094" fill="none" id="SA-to-EXP" style="stroke:#181818;stroke-width:1;"/><polygon fill="#181818" points="172.84,266.0019,165.5611,259.3673,168.0952,264.4248,163.0378,266.959,172.84,266.0019" style="stroke:#181818;stroke-width:1;"/></g><!--link A to FCL--><g class="link" data-entity-1="A" data-entity-2="FCL" data-source-line="25" data-uid="lnk18" id="link_A_FCL"><path d="M62.39,499.8919 C85.03,504.6519 116.6287,511.3058 147.9287,517.8958" fill="none" id="A-to-FCL" style="stroke:#181818;stroke-width:1;"/><polygon fill="#181818" points="153.8,519.1319,145.8172,513.3635,148.9073,518.1018,144.169,521.1919,153.8,519.1319" style="stroke:#181818;stroke-width:1;"/></g><!--reverse link GR to VU--><g class="link" data-entity-1="GR" data-entity-2="VU" data-source-line="28" data-uid="lnk20" id="link_GR_VU"><path d="M528.5934,323.5405 C596.7534,315.9805 703.06,304.1819 767.28,297.0519" fill="none" id="GR-backto-VU" style="stroke:#181818;stroke-width:1;stroke-dasharray:7,7;"/><polygon fill="#181818" points="522.63,324.2019,532.0161,327.1854,527.5995,323.6507,531.1342,319.2341,522.63,324.2019" style="stroke:#181818;stroke-width:1;"/><text fill="#000000" font-family="Noto Sans CJK SC" font-size="14" lengthAdjust="spacing" textLength="61.8518" x="557.39" y="309.8318">&#171;include&#187;</text></g><!--link EXP to GR--><g class="link" data-entity-1="EXP" data-entity-2="GR" data-source-line="29" data-uid="lnk21" id="link_EXP_GR"><path d="M247.85,283.7719 C291.99,293.3819 359.4774,308.0654 408.0674,318.6454" fill="none" id="EXP-to-GR" style="stroke:#181818;stroke-width:1;stroke-dasharray:7,7;"/><polygon fill="#181818" points="413.93,319.9219,405.9871,314.0987,409.0445,318.8581,404.285,321.9155,413.93,319.9219" style="stroke:#181818;stroke-width:1;"/><text fill="#000000" font-family="Noto Sans CJK SC" font-size="14" lengthAdjust="spacing" textLength="58.3938" x="312.59" y="293.4118">&#171;extend&#187;</text></g><!--SRC=[RL9DInj16BxFhtZ9IGy614yb19Qb2bMaE2Wzz39a9xfqdPNiX9QUqiF6RMnrXTZQ4WnR28q8iT0lQTBsntHdTdFoBtJsmxZOtXxUv-Dzc7US9oRR8mso2mQjawR5bst6ryakXTAwpMt0X3cWFrW5h9UGypynDfzJM5n2tEGMXMZSZqT1U7KeZYxZZstnwatK7OQ_3f15wnnKOCFStk5Wc0rQuwRD2fbDX-h4eNY7x558QCAsBOeGgN6x0QNeyrY5bu0uW6UpKH3vRN5ycewrcx7ijQONfnaPjzpCeo6aDjJK1kNhzgNdPrrbPn07mrIpid4haVr1r3i8V_vM_QF3_PJVshpbnUL4xFy07M-brFr73ulnG-bz5wuRTRzcIrBDfeuB-IVkz7qlqyZWN7XlRreiwsi8OO25XMhIIBkBL8iS9Kknbi8aEuTAcIEbp56Yp4r9VC64LZQWKZRifwoiz70FAXMJrQocGQjLf6nGBYUHAK6VSSeCDKVCvZG_fLtFQDdz9jn1yKsl9vxmB-8l7qGda2UVvElHzUHbE7Qdx_mx5vh3slnZDdjiuRNbcV-dzUBVXuJPoUUqUN7K2SU3yAgZFbjshxy0]--></g></svg>