<svg xmlns="http://www.w3.org/2000/svg" xmlns:xlink="http://www.w3.org/1999/xlink" contentStyleType="text/css" data-diagram-type="DESCRIPTION" height="373px" preserveAspectRatio="none" style="width:2771px;height:373px;background:#FFFFFF;" version="1.1" viewBox="0 0 2771 373" width="2771px" zoomAndPan="magnify"><title>&#24635;&#20307;&#29992;&#20363;&#24635;&#35272;</title><defs/><g><g class="title" data-source-line="3"><text fill="#000000" font-family="Noto Sans CJK SC" font-size="14" font-weight="bold" lengthAdjust="spacing" textLength="83.9996" x="1336.9386" y="26.2399">&#24635;&#20307;&#29992;&#20363;&#24635;&#35272;</text></g><!--entity G--><g class="entity" data-entity="G" data-source-line="6" data-uid="ent0002" id="entity_G"><ellipse cx="2719.3998" cy="55.2719" fill="#F1F1F1" rx="8" ry="8" style="stroke:#181818;stroke-width:0.5;"/><path d="M2719.3998,63.2719 L2719.3998,90.2719 M2706.3998,71.2719 L2732.3998,71.2719 M2719.3998,90.2719 L2706.3998,105.2719 M2719.3998,90.2719 L2732.3998,105.2719" fill="none" style="stroke:#181818;stroke-width:0.5;"/><text fill="#000000" font-family="Noto Sans CJK SC" font-size="14" lengthAdjust="spacing" textLength="69.9997" x="2684.4" y="123.0118">&#26410;&#25480;&#26435;&#29992;&#25143;</text></g><!--entity U--><g class="entity" data-entity="U" data-source-line="7" data-uid="ent0003" id="entity_U"><ellipse cx="1010.3999" cy="196.5519" fill="#F1F1F1" rx="8" ry="8" style="stroke:#181818;stroke-width:0.5;"/><path d="M1010.3999,204.5519 L1010.3999,231.5519 M997.3999,212.5519 L1023.3999,212.5519 M1010.3999,231.5519 L997.3999,246.5519 M1010.3999,231.5519 L1023.3999,246.5519" fill="none" style="stroke:#181818;stroke-width:0.5;"/><text fill="#000000" font-family="Noto Sans CJK SC" font-size="14" lengthAdjust="spacing" textLength="27.9999" x="996.4" y="264.2918">&#29992;&#25143;</text></g><!--entity M--><g class="entity" data-entity="M" data-source-line="8" data-uid="ent0004" id="entity_M"><ellipse cx="1130.3999" cy="196.5519" fill="#F1F1F1" rx="8" ry="8" style="stroke:#181818;stroke-width:0.5;"/><path d="M1130.3999,204.5519 L1130.3999,231.5519 M1117.3999,212.5519 L1143.3999,212.5519 M1130.3999,231.5519 L1117.3999,246.5519 M1130.3999,231.5519 L1143.3999,246.5519" fill="none" style="stroke:#181818;stroke-width:0.5;"/><text fill="#000000" font-family="Noto Sans CJK SC" font-size="14" lengthAdjust="spacing" textLength="55.9998" x="1102.4" y="264.2918">&#32500;&#20462;&#20154;&#21592;</text></g><!--entity A--><g class="entity" data-entity="A" data-source-line="9" data-uid="ent0005" id="entity_A"><ellipse cx="1808.3999" cy="196.5519" fill="#F1F1F1" rx="8" ry="8" style="stroke:#181818;stroke-width:0.5;"/><path d="M1808.3999,204.5519 L1808.3999,231.5519 M1795.3999,212.5519 L1821.3999,212.5519 M1808.3999,231.5519 L1795.3999,246.5519 M1808.3999,231.5519 L1821.3999,246.5519" fill="none" style="stroke:#181818;stroke-width:0.5;"/><text fill="#000000" font-family="Noto Sans CJK SC" font-size="14" lengthAdjust="spacing" textLength="41.9998" x="1787.4" y="264.2918">&#31649;&#29702;&#21592;</text></g><!--entity SA--><g class="entity" data-entity="SA" data-source-line="10" data-uid="ent0006" id="entity_SA"><ellipse cx="2215.3998" cy="196.5519" fill="#F1F1F1" rx="8" ry="8" style="stroke:#181818;stroke-width:0.5;"/><path d="M2215.3998,204.5519 L2215.3998,231.5519 M2202.3998,212.5519 L2228.3998,212.5519 M2215.3998,231.5519 L2202.3998,246.5519 M2215.3998,231.5519 L2228.3998,246.5519" fill="none" style="stroke:#181818;stroke-width:0.5;"/><text fill="#000000" font-family="Noto Sans CJK SC" font-size="14" lengthAdjust="spacing" textLength="69.9997" x="2180.4" y="264.2918">&#26368;&#39640;&#31649;&#29702;&#32773;</text></g><!--entity MC--><g class="entity" data-entity="MC" data-source-line="11" data-uid="ent0007" id="entity_MC"><ellipse cx="508.3998" cy="196.5519" fill="#F1F1F1" rx="8" ry="8" style="stroke:#181818;stroke-width:0.5;"/><path d="M508.3998,204.5519 L508.3998,231.5519 M495.3998,212.5519 L521.3998,212.5519 M508.3998,231.5519 L495.3998,246.5519 M508.3998,231.5519 L521.3998,246.5519" fill="none" style="stroke:#181818;stroke-width:0.5;"/><text fill="#000000" font-family="Noto Sans CJK SC" font-size="14" lengthAdjust="spacing" textLength="76.7197" x="470.04" y="264.2918">Mock&#20805;&#30005;&#26426;</text></g><!--entity P--><g class="entity" data-entity="P" data-source-line="12" data-uid="ent0008" id="entity_P"><ellipse cx="142.3999" cy="196.5519" fill="#F1F1F1" rx="8" ry="8" style="stroke:#181818;stroke-width:0.5;"/><path d="M142.3999,204.5519 L142.3999,231.5519 M129.3999,212.5519 L155.3999,212.5519 M142.3999,231.5519 L129.3999,246.5519 M142.3999,231.5519 L155.3999,246.5519" fill="none" style="stroke:#181818;stroke-width:0.5;"/><text fill="#000000" font-family="Noto Sans CJK SC" font-size="14" lengthAdjust="spacing" textLength="55.9998" x="114.4" y="264.2918">&#25903;&#20184;&#32593;&#20851;</text></g><!--entity S--><g class="entity" data-entity="S" data-source-line="13" data-uid="ent0009" id="entity_S"><ellipse cx="2624.3999" cy="196.5519" fill="#F1F1F1" rx="8" ry="8" style="stroke:#181818;stroke-width:0.5;"/><path d="M2624.3999,204.5519 L2624.3999,231.5519 M2611.3999,212.5519 L2637.3999,212.5519 M2624.3999,231.5519 L2611.3999,246.5519 M2624.3999,231.5519 L2637.3999,246.5519" fill="none" style="stroke:#181818;stroke-width:0.5;"/><text fill="#000000" font-family="Noto Sans CJK SC" font-size="14" lengthAdjust="spacing" textLength="27.9999" x="2610.4" y="264.2918">&#31995;&#32479;</text></g><!--entity UC--><g class="entity" data-entity="UC" data-source-line="15" data-uid="ent0010" id="entity_UC"><ellipse cx="2719.3984" cy="228.1863" fill="#F1F1F1" rx="46.4784" ry="17.3344" style="stroke:#181818;stroke-width:0.5;"/><text fill="#000000" font-family="Noto Sans CJK SC" font-size="14" lengthAdjust="spacing" textLength="61.4877" x="2688.6545" y="234.8223">&#27880;&#20876;/&#30331;&#24405;</text></g><!--entity RA--><g class="entity" data-entity="RA" data-source-line="16" data-uid="ent0011" id="entity_RA"><ellipse cx="208.3978" cy="348.4963" fill="#F1F1F1" rx="42.5978" ry="17.3344" style="stroke:#181818;stroke-width:0.5;"/><text fill="#000000" font-family="Noto Sans CJK SC" font-size="14" lengthAdjust="spacing" textLength="55.9998" x="180.3979" y="355.1323">&#36134;&#25143;&#20805;&#20540;</text></g><!--entity SC--><g class="entity" data-entity="SC" data-source-line="17" data-uid="ent0012" id="entity_SC"><ellipse cx="511.3978" cy="348.4963" fill="#F1F1F1" rx="42.5978" ry="17.3344" style="stroke:#181818;stroke-width:0.5;"/><text fill="#000000" font-family="Noto Sans CJK SC" font-size="14" lengthAdjust="spacing" textLength="55.9998" x="483.3979" y="355.1323">&#21551;&#21160;&#20805;&#30005;</text></g><!--entity BAL--><g class="entity" data-entity="BAL" data-source-line="18" data-uid="ent0013" id="entity_BAL"><ellipse cx="328.3978" cy="348.4963" fill="#F1F1F1" rx="42.5978" ry="17.3344" style="stroke:#181818;stroke-width:0.5;"/><text fill="#000000" font-family="Noto Sans CJK SC" font-size="14" lengthAdjust="spacing" textLength="55.9998" x="300.3979" y="355.1323">&#20313;&#39069;&#26657;&#39564;</text></g><!--entity EC--><g class="entity" data-entity="EC" data-source-line="19" data-uid="ent0014" id="entity_EC"><ellipse cx="631.3978" cy="348.4963" fill="#F1F1F1" rx="42.5978" ry="17.3344" style="stroke:#181818;stroke-width:0.5;"/><text fill="#000000" font-family="Noto Sans CJK SC" font-size="14" lengthAdjust="spacing" textLength="55.9998" x="603.3979" y="355.1323">&#32467;&#26463;&#20805;&#30005;</text></g><!--entity AD--><g class="entity" data-entity="AD" data-source-line="20" data-uid="ent0015" id="entity_AD"><ellipse cx="814.3978" cy="348.4963" fill="#F1F1F1" rx="42.5978" ry="17.3344" style="stroke:#181818;stroke-width:0.5;"/><text fill="#000000" font-family="Noto Sans CJK SC" font-size="14" lengthAdjust="spacing" textLength="55.9998" x="786.3979" y="355.1323">&#33258;&#21160;&#25187;&#36153;</text></g><!--entity FSC--><g class="entity" data-entity="FSC" data-source-line="21" data-uid="ent0016" id="entity_FSC"><ellipse cx="2464.3967" cy="348.4963" fill="#F1F1F1" rx="62.3967" ry="17.3344" style="stroke:#181818;stroke-width:0.5;"/><text fill="#000000" font-family="Noto Sans CJK SC" font-size="14" lengthAdjust="spacing" textLength="83.9996" x="2422.3969" y="355.1323">&#24378;&#21046;&#32467;&#26463;&#20805;&#30005;</text></g><!--entity VCR--><g class="entity" data-entity="VCR" data-source-line="22" data-uid="ent0017" id="entity_VCR"><ellipse cx="1668.3967" cy="348.4963" fill="#F1F1F1" rx="62.3967" ry="17.3344" style="stroke:#181818;stroke-width:0.5;"/><text fill="#000000" font-family="Noto Sans CJK SC" font-size="14" lengthAdjust="spacing" textLength="83.9996" x="1626.3969" y="355.1323">&#26597;&#30475;&#20805;&#30005;&#35760;&#24405;</text></g><!--entity VPR--><g class="entity" data-entity="VPR" data-source-line="23" data-uid="ent0018" id="entity_VPR"><ellipse cx="1948.3967" cy="348.4963" fill="#F1F1F1" rx="62.3967" ry="17.3344" style="stroke:#181818;stroke-width:0.5;"/><text fill="#000000" font-family="Noto Sans CJK SC" font-size="14" lengthAdjust="spacing" textLength="83.9996" x="1906.3969" y="355.1323">&#26597;&#30475;&#25903;&#20184;&#35760;&#24405;</text></g><!--entity SRT--><g class="entity" data-entity="SRT" data-source-line="24" data-uid="ent0019" id="entity_SRT"><ellipse cx="954.3967" cy="348.4963" fill="#F1F1F1" rx="62.3967" ry="17.3344" style="stroke:#181818;stroke-width:0.5;"/><text fill="#000000" font-family="Noto Sans CJK SC" font-size="14" lengthAdjust="spacing" textLength="83.9996" x="912.3969" y="355.1323">&#25552;&#20132;&#25925;&#38556;&#25253;&#20462;</text></g><!--entity MM--><g class="entity" data-entity="MM" data-source-line="25" data-uid="ent0020" id="entity_MM"><ellipse cx="2286.4039" cy="348.4887" fill="#F1F1F1" rx="80.5839" ry="18.5168" style="stroke:#181818;stroke-width:0.5;"/><text fill="#000000" font-family="Noto Sans CJK SC" font-size="14" lengthAdjust="spacing" textLength="117.4875" x="2227.6602" y="355.1247">&#31649;&#29702;&#20805;&#30005;&#31449;/&#20805;&#30005;&#26729;</text></g><!--entity PM--><g class="entity" data-entity="PM" data-source-line="26" data-uid="ent0021" id="entity_PM"><ellipse cx="2108.3967" cy="348.4963" fill="#F1F1F1" rx="62.3967" ry="17.3344" style="stroke:#181818;stroke-width:0.5;"/><text fill="#000000" font-family="Noto Sans CJK SC" font-size="14" lengthAdjust="spacing" textLength="83.9996" x="2066.3969" y="355.1323">&#29992;&#25143;&#26435;&#38480;&#31649;&#29702;</text></g><!--entity HR--><g class="entity" data-entity="HR" data-source-line="27" data-uid="ent0022" id="entity_HR"><ellipse cx="1808.3978" cy="348.4963" fill="#F1F1F1" rx="42.5978" ry="17.3344" style="stroke:#181818;stroke-width:0.5;"/><text fill="#000000" font-family="Noto Sans CJK SC" font-size="14" lengthAdjust="spacing" textLength="55.9998" x="1780.3979" y="355.1323">&#22788;&#29702;&#25253;&#20462;</text></g><!--entity GS--><g class="entity" data-entity="GS" data-source-line="28" data-uid="ent0023" id="entity_GS"><ellipse cx="2624.3967" cy="348.4963" fill="#F1F1F1" rx="62.3967" ry="17.3344" style="stroke:#181818;stroke-width:0.5;"/><text fill="#000000" font-family="Noto Sans CJK SC" font-size="14" lengthAdjust="spacing" textLength="83.9996" x="2582.3969" y="355.1323">&#29983;&#25104;&#32479;&#35745;&#25253;&#34920;</text></g><!--entity QV--><g class="entity" data-entity="QV" data-source-line="29" data-uid="ent0024" id="entity_QV"><ellipse cx="1130.3976" cy="348.4874" fill="#F1F1F1" rx="78.5276" ry="18.1055" style="stroke:#181818;stroke-width:0.5;"/><text fill="#000000" font-family="Noto Sans CJK SC" font-size="14" lengthAdjust="spacing" textLength="111.9995" x="1074.3978" y="355.1234">&#20805;&#30005;&#35760;&#24405;&#24555;&#25463;&#35270;&#22270;</text></g><!--entity QC--><g class="entity" data-entity="QC" data-source-line="30" data-uid="ent0025" id="entity_QC"><ellipse cx="1327.4042" cy="348.4928" fill="#F1F1F1" rx="83.8542" ry="19.1708" style="stroke:#181818;stroke-width:0.5;"/><text fill="#000000" font-family="Noto Sans CJK SC" font-size="14" lengthAdjust="spacing" textLength="125.9995" x="1264.4045" y="355.1287">&#20805;&#30005;&#26729;&#29366;&#24577;&#24555;&#25463;&#26597;&#35810;</text></g><!--entity VR--><g class="entity" data-entity="VR" data-source-line="31" data-uid="ent0026" id="entity_VR"><ellipse cx="1508.3967" cy="348.4963" fill="#F1F1F1" rx="62.3967" ry="17.3344" style="stroke:#181818;stroke-width:0.5;"/><text fill="#000000" font-family="Noto Sans CJK SC" font-size="14" lengthAdjust="spacing" textLength="83.9996" x="1466.3969" y="355.1323">&#26597;&#30475;&#25253;&#20462;&#35760;&#24405;</text></g><!--entity QC_CM--><g class="entity" data-entity="QC_CM" data-source-line="32" data-uid="ent0027" id="entity_QC_CM"><ellipse cx="68.3967" cy="348.4963" fill="#F1F1F1" rx="62.3967" ry="17.3344" style="stroke:#181818;stroke-width:0.5;"/><text fill="#000000" font-family="Noto Sans CJK SC" font-size="14" lengthAdjust="spacing" textLength="83.9996" x="26.3969" y="355.1323">&#26597;&#35810;&#20805;&#30005;&#29366;&#24577;</text></g><g class="entity" data-entity="GMN70" data-source-line="80" data-uid="ent0071" id="entity_GMN70"><path d="M434.9,61.6419 L434.9,112.1857 A0,0 0 0 0 434.9,112.1857 L504.4,112.1857 L508.4,187.5819 L512.4,112.1857 L581.8995,112.1857 A0,0 0 0 0 581.8995,112.1857 L581.8995,71.6419 L571.8995,61.6419 L434.9,61.6419 A0,0 0 0 0 434.9,61.6419" fill="#FEFFDD" style="stroke:#181818;stroke-width:0.5;"/><path d="M571.8995,61.6419 L571.8995,71.6419 L581.8995,71.6419 L571.8995,61.6419" fill="#FEFFDD" style="stroke:#181818;stroke-width:0.5;"/><text fill="#000000" font-family="Noto Sans CJK SC" font-size="14" lengthAdjust="spacing" textLength="112.9935" x="440.9" y="82.8818">Swing &#26700;&#38754;&#23458;&#25143;&#31471;</text><text fill="#000000" font-family="Noto Sans CJK SC" font-size="14" lengthAdjust="spacing" textLength="125.9995" x="440.9" y="103.1538">&#27169;&#25311;&#29289;&#29702;&#20805;&#30005;&#26426;&#20132;&#20114;</text></g><!--link G to UC--><g class="link" data-entity-1="G" data-entity-2="UC" data-source-line="34" data-uid="lnk28" id="link_G_UC"><path d="M2719.4,127.4519 C2719.4,154.9519 2719.4,184.2119 2719.4,204.5919" fill="none" id="G-to-UC" style="stroke:#181818;stroke-width:1;"/><polygon fill="#181818" points="2719.4,210.5919,2723.4,201.5919,2719.4,205.5919,2715.4,201.5919,2719.4,210.5919" style="stroke:#181818;stroke-width:1;"/></g><!--link U to RA--><g class="link" data-entity-1="U" data-entity-2="RA" data-source-line="36" data-uid="lnk29" id="link_U_RA"><path d="M996.1,230.2519 C920.31,236.1119 558,266.3519 268.4,329.3219 C259.25,331.3119 255.2225,332.2731 246.2725,334.9831" fill="none" id="U-to-RA" style="stroke:#181818;stroke-width:1;"/><polygon fill="#181818" points="240.53,336.7219,250.303,337.9421,245.3154,335.2729,247.9846,330.2854,240.53,336.7219" style="stroke:#181818;stroke-width:1;"/></g><!--link U to SC--><g class="link" data-entity-1="U" data-entity-2="SC" data-source-line="37" data-uid="lnk30" id="link_U_SC"><path d="M995.91,232.1019 C940.5,243.3519 736.88,285.4419 571.4,329.3219 C562.56,331.6619 558.8017,332.6804 550.0317,335.3404" fill="none" id="U-to-SC" style="stroke:#181818;stroke-width:1;"/><polygon fill="#181818" points="544.29,337.0819,554.0636,338.2975,549.0748,335.6307,551.7416,330.6419,544.29,337.0819" style="stroke:#181818;stroke-width:1;"/></g><!--link U to EC--><g class="link" data-entity-1="U" data-entity-2="EC" data-source-line="38" data-uid="lnk31" id="link_U_EC"><path d="M996.1,232.6019 C957.53,241.9219 848.27,269.0819 759.4,298.3219 C724.91,309.6619 691.6459,322.6764 665.8959,333.1764" fill="none" id="U-to-EC" style="stroke:#181818;stroke-width:1;"/><polygon fill="#181818" points="660.34,335.4419,670.1841,335.7476,664.9699,333.554,667.1635,328.3398,660.34,335.4419" style="stroke:#181818;stroke-width:1;"/></g><!--link U to AD--><g class="link" data-entity-1="U" data-entity-2="AD" data-source-line="39" data-uid="lnk32" id="link_U_AD"><path d="M995.99,234.2719 C968.96,244.1819 909.41,267.8219 865.4,298.3219 C851.45,307.9919 841.8082,317.1303 832.1082,327.5503" fill="none" id="U-to-AD" style="stroke:#181818;stroke-width:1;"/><polygon fill="#181818" points="828.02,331.9419,837.0801,328.0799,831.4268,328.2822,831.2245,322.629,828.02,331.9419" style="stroke:#181818;stroke-width:1;"/></g><!--link U to VCR--><g class="link" data-entity-1="U" data-entity-2="VCR" data-source-line="40" data-uid="lnk33" id="link_U_VCR"><path d="M1024.66,238.6319 C1039.27,247.8119 1062.95,261.3619 1085.4,268.3219 C1192.94,301.6819 1477.46,310.0519 1588.4,329.3219 C1599.62,331.2719 1605.7867,332.4532 1617.0167,334.9832" fill="none" id="U-to-VCR" style="stroke:#181818;stroke-width:1;"/><polygon fill="#181818" points="1622.87,336.3019,1614.9692,330.4217,1617.9923,335.203,1613.2109,338.2261,1622.87,336.3019" style="stroke:#181818;stroke-width:1;"/></g><!--link U to VPR--><g class="link" data-entity-1="U" data-entity-2="VPR" data-source-line="41" data-uid="lnk34" id="link_U_VPR"><path d="M1024.87,239.0119 C1039.45,248.3419 1062.95,261.8819 1085.4,268.3219 C1253.16,316.4419 1695.84,303.1419 1868.4,329.3219 C1879.8,331.0519 1886.1459,332.1867 1897.4959,334.7367" fill="none" id="U-to-VPR" style="stroke:#181818;stroke-width:1;"/><polygon fill="#181818" points="1903.35,336.0519,1895.4457,330.1763,1898.4716,334.9559,1893.6921,337.9818,1903.35,336.0519" style="stroke:#181818;stroke-width:1;"/></g><!--link U to SRT--><g class="link" data-entity-1="U" data-entity-2="SRT" data-source-line="42" data-uid="lnk35" id="link_U_SRT"><path d="M995.98,259.6519 C985.22,282.3819 973.4984,307.1494 964.7784,325.5594" fill="none" id="U-to-SRT" style="stroke:#181818;stroke-width:1;"/><polygon fill="#181818" points="962.21,330.9819,969.6776,324.5604,964.3503,326.4632,962.4476,321.1359,962.21,330.9819" style="stroke:#181818;stroke-width:1;"/></g><!--link U to QV--><g class="link" data-entity-1="U" data-entity-2="QV" data-source-line="43" data-uid="lnk36" id="link_U_QV"><path d="M1024.63,243.2219 C1046.74,265.0119 1084.957,302.6998 1108.807,326.2098" fill="none" id="U-to-QV" style="stroke:#181818;stroke-width:1;"/><polygon fill="#181818" points="1113.08,330.4219,1109.4786,321.2551,1109.5192,326.9118,1103.8625,326.9525,1113.08,330.4219" style="stroke:#181818;stroke-width:1;"/></g><!--link U to QC--><g class="link" data-entity-1="U" data-entity-2="QC" data-source-line="44" data-uid="lnk37" id="link_U_QC"><path d="M1024.71,237.5619 C1039.56,246.0319 1063.6,259.1419 1085.4,268.3219 C1149.16,295.1719 1219.6342,317.1221 1269.2742,331.4121" fill="none" id="U-to-QC" style="stroke:#181818;stroke-width:1;"/><polygon fill="#181818" points="1275.04,333.0719,1267.4978,326.7383,1270.2351,331.6887,1265.2847,334.4261,1275.04,333.0719" style="stroke:#181818;stroke-width:1;"/></g><!--link U to VR--><g class="link" data-entity-1="U" data-entity-2="VR" data-source-line="45" data-uid="lnk38" id="link_U_VR"><path d="M1024.74,238.3719 C1039.42,247.3519 1063.15,260.7419 1085.4,268.3219 C1231.95,318.2719 1276.64,298.6119 1428.4,329.3219 C1439.29,331.5219 1445.1177,332.7489 1456.0877,335.2289" fill="none" id="U-to-VR" style="stroke:#181818;stroke-width:1;"/><polygon fill="#181818" points="1461.94,336.5519,1454.0436,330.6658,1457.0631,335.4494,1452.2795,338.4689,1461.94,336.5519" style="stroke:#181818;stroke-width:1;"/></g><!--link M to RA--><g class="link" data-entity-1="M" data-entity-2="RA" data-source-line="47" data-uid="lnk39" id="link_M_RA"><path d="M1102.01,244.6019 C1084.95,253.1119 1062.51,263.0019 1041.4,268.3219 C874.29,310.3719 437.72,297.3819 268.4,329.3219 C259.09,331.0719 254.9197,331.9839 245.8897,334.7339" fill="none" id="M-to-RA" style="stroke:#181818;stroke-width:1;"/><polygon fill="#181818" points="240.15,336.4819,249.9249,337.6864,244.9331,335.0253,247.5943,330.0334,240.15,336.4819" style="stroke:#181818;stroke-width:1;"/></g><!--link M to SC--><g class="link" data-entity-1="M" data-entity-2="SC" data-source-line="48" data-uid="lnk40" id="link_M_SC"><path d="M1101.91,244.2119 C1084.81,252.5819 1062.37,262.4819 1041.4,268.3219 C838.48,324.8419 777.34,285.0919 571.4,329.3219 C562.25,331.2819 558.212,332.2413 549.272,334.9513" fill="none" id="M-to-SC" style="stroke:#181818;stroke-width:1;"/><polygon fill="#181818" points="543.53,336.6919,553.3034,337.909,548.315,335.2414,550.9826,330.2531,543.53,336.6919" style="stroke:#181818;stroke-width:1;"/></g><!--link M to EC--><g class="link" data-entity-1="M" data-entity-2="EC" data-source-line="49" data-uid="lnk41" id="link_M_EC"><path d="M1102.16,243.5419 C1084.97,251.7919 1062.34,261.7819 1041.4,268.3219 C971.85,290.0219 764.6792,325.4704 676.3292,340.1204" fill="none" id="M-to-EC" style="stroke:#181818;stroke-width:1;"/><polygon fill="#181818" points="670.41,341.1019,679.9431,343.5758,675.3426,340.284,678.6344,335.6835,670.41,341.1019" style="stroke:#181818;stroke-width:1;"/></g><!--link M to AD--><g class="link" data-entity-1="M" data-entity-2="AD" data-source-line="50" data-uid="lnk42" id="link_M_AD"><path d="M1102.18,242.2719 C1084.8,250.1619 1061.97,260.2219 1041.4,268.3219 C973.04,295.2219 897.0846,320.6924 852.7246,335.1524" fill="none" id="M-to-AD" style="stroke:#181818;stroke-width:1;"/><polygon fill="#181818" points="847.02,337.0119,856.8165,338.0257,851.7738,335.4623,854.3372,330.4196,847.02,337.0119" style="stroke:#181818;stroke-width:1;"/></g><!--link M to VCR--><g class="link" data-entity-1="M" data-entity-2="VCR" data-source-line="51" data-uid="lnk43" id="link_M_VCR"><path d="M1158.72,230.1719 C1230.71,233.4019 1425.78,246.6319 1578.4,298.3219 C1602.51,306.4919 1622.6963,317.6691 1640.2963,328.7791" fill="none" id="M-to-VCR" style="stroke:#181818;stroke-width:1;"/><polygon fill="#181818" points="1645.37,331.9819,1639.8946,323.7953,1641.1419,329.3129,1635.6243,330.5602,1645.37,331.9819" style="stroke:#181818;stroke-width:1;"/></g><!--link M to VPR--><g class="link" data-entity-1="M" data-entity-2="VPR" data-source-line="52" data-uid="lnk44" id="link_M_VPR"><path d="M1158.74,229.9419 C1278.04,233.4219 1739.44,249.8219 1875.4,298.3219 C1895.98,305.6619 1911.6848,316.3565 1925.6548,327.7165" fill="none" id="M-to-VPR" style="stroke:#181818;stroke-width:1;"/><polygon fill="#181818" points="1930.31,331.5019,1925.8509,322.7203,1926.4307,328.3474,1920.8036,328.9272,1930.31,331.5019" style="stroke:#181818;stroke-width:1;"/></g><!--link M to SRT--><g class="link" data-entity-1="M" data-entity-2="SRT" data-source-line="53" data-uid="lnk45" id="link_M_SRT"><path d="M1102.12,248.1919 C1067.53,271.4419 1014.5994,307.0244 982.5294,328.5844" fill="none" id="M-to-SRT" style="stroke:#181818;stroke-width:1;"/><polygon fill="#181818" points="977.55,331.9319,987.2507,330.2302,981.6995,329.1423,982.7874,323.591,977.55,331.9319" style="stroke:#181818;stroke-width:1;"/></g><!--link M to HR--><g class="link" data-entity-1="M" data-entity-2="HR" data-source-line="54" data-uid="lnk46" id="link_M_HR"><path d="M1158.88,232.6319 C1232.83,241.7419 1436.88,267.8319 1605.4,298.3219 C1669.39,309.9019 1685.45,312.9919 1748.4,329.3219 C1757.25,331.6119 1761.0065,332.6264 1769.7765,335.2764" fill="none" id="M-to-HR" style="stroke:#181818;stroke-width:1;"/><polygon fill="#181818" points="1775.52,337.0119,1768.0617,330.5796,1770.7337,335.5657,1765.7477,338.2377,1775.52,337.0119" style="stroke:#181818;stroke-width:1;"/></g><!--link M to QV--><g class="link" data-entity-1="M" data-entity-2="QV" data-source-line="55" data-uid="lnk47" id="link_M_QV"><path d="M1130.4,268.5819 C1130.4,289.4119 1130.4,307.9519 1130.4,324.0619" fill="none" id="M-to-QV" style="stroke:#181818;stroke-width:1;"/><polygon fill="#181818" points="1130.4,330.0619,1134.4,321.0619,1130.4,325.0619,1126.4,321.0619,1130.4,330.0619" style="stroke:#181818;stroke-width:1;"/></g><!--link M to QC--><g class="link" data-entity-1="M" data-entity-2="QC" data-source-line="56" data-uid="lnk48" id="link_M_QC"><path d="M1158.69,237.5719 C1191.38,248.1719 1245.74,268.6919 1285.4,298.3219 C1296.91,306.9219 1303.8077,314.4136 1311.4277,324.5636" fill="none" id="M-to-QC" style="stroke:#181818;stroke-width:1;"/><polygon fill="#181818" points="1315.03,329.3619,1312.8255,319.763,1312.0281,325.3633,1306.4277,324.566,1315.03,329.3619" style="stroke:#181818;stroke-width:1;"/></g><!--link M to VR--><g class="link" data-entity-1="M" data-entity-2="VR" data-source-line="57" data-uid="lnk49" id="link_M_VR"><path d="M1158.67,230.5019 C1216.72,234.1919 1352.28,247.9619 1452.4,298.3219 C1468.58,306.4619 1479.6634,316.0654 1490.1434,327.0254" fill="none" id="M-to-VR" style="stroke:#181818;stroke-width:1;"/><polygon fill="#181818" points="1494.29,331.3619,1490.9611,322.0927,1490.8345,327.7481,1485.179,327.6215,1494.29,331.3619" style="stroke:#181818;stroke-width:1;"/></g><!--link A to MM--><g class="link" data-entity-1="A" data-entity-2="MM" data-source-line="59" data-uid="lnk50" id="link_A_MM"><path d="M1829.86,234.5019 C1900.71,252.0319 2122.6858,306.9701 2227.2258,332.8501" fill="none" id="A-to-MM" style="stroke:#181818;stroke-width:1;"/><polygon fill="#181818" points="2233.05,334.2919,2225.275,328.2464,2228.1965,333.0904,2223.3525,336.0119,2233.05,334.2919" style="stroke:#181818;stroke-width:1;"/></g><!--link A to PM--><g class="link" data-entity-1="A" data-entity-2="PM" data-source-line="60" data-uid="lnk51" id="link_A_PM"><path d="M1829.49,237.5019 C1880.44,257.5919 2005.0382,306.731 2067.8582,331.501" fill="none" id="A-to-PM" style="stroke:#181818;stroke-width:1;"/><polygon fill="#181818" points="2073.44,333.7019,2066.5346,326.6794,2068.7885,331.8678,2063.6001,334.1217,2073.44,333.7019" style="stroke:#181818;stroke-width:1;"/></g><!--link A to VCR--><g class="link" data-entity-1="A" data-entity-2="VCR" data-source-line="61" data-uid="lnk52" id="link_A_VCR"><path d="M1787.13,247.1519 C1759.9,270.1619 1717.7125,305.8088 1691.7425,327.7588" fill="none" id="A-to-VCR" style="stroke:#181818;stroke-width:1;"/><polygon fill="#181818" points="1687.16,331.6319,1696.6158,328.8772,1690.9787,328.4043,1691.4516,322.7673,1687.16,331.6319" style="stroke:#181818;stroke-width:1;"/></g><!--link A to VPR--><g class="link" data-entity-1="A" data-entity-2="VPR" data-source-line="62" data-uid="lnk53" id="link_A_VPR"><path d="M1829.87,238.9319 C1853.65,250.5119 1892.1,271.6719 1918.4,298.3219 C1927.81,307.8619 1932.8465,315.5459 1938.1165,325.7959" fill="none" id="A-to-VPR" style="stroke:#181818;stroke-width:1;"/><polygon fill="#181818" points="1940.86,331.1319,1940.3021,321.2989,1938.5738,326.6852,1933.1874,324.9569,1940.86,331.1319" style="stroke:#181818;stroke-width:1;"/></g><!--link A to HR--><g class="link" data-entity-1="A" data-entity-2="HR" data-source-line="63" data-uid="lnk54" id="link_A_HR"><path d="M1808.4,268.5819 C1808.4,289.6819 1808.4,308.5819 1808.4,324.6819" fill="none" id="A-to-HR" style="stroke:#181818;stroke-width:1;"/><polygon fill="#181818" points="1808.4,330.6819,1812.4,321.6819,1808.4,325.6819,1804.4,321.6819,1808.4,330.6819" style="stroke:#181818;stroke-width:1;"/></g><!--link A to VR--><g class="link" data-entity-1="A" data-entity-2="VR" data-source-line="64" data-uid="lnk55" id="link_A_VR"><path d="M1787.3,237.5019 C1736.35,257.5919 1611.7619,306.7313 1548.9319,331.5013" fill="none" id="A-to-VR" style="stroke:#181818;stroke-width:1;"/><polygon fill="#181818" points="1543.35,333.7019,1553.1899,334.1223,1548.0016,331.8681,1550.2558,326.6798,1543.35,333.7019" style="stroke:#181818;stroke-width:1;"/></g><!--link A to GS--><g class="link" data-entity-1="A" data-entity-2="GS" data-source-line="65" data-uid="lnk56" id="link_A_GS"><path d="M1829.88,231.4019 C1918.43,240.7119 2263.66,278.4419 2544.4,329.3219 C2555.47,331.3219 2561.4664,332.5047 2572.5764,335.0047" fill="none" id="A-to-GS" style="stroke:#181818;stroke-width:1;"/><polygon fill="#181818" points="2578.43,336.3219,2570.5277,330.4437,2573.552,335.2242,2568.7714,338.2485,2578.43,336.3219" style="stroke:#181818;stroke-width:1;"/></g><!--link A to FSC--><g class="link" data-entity-1="A" data-entity-2="FSC" data-source-line="66" data-uid="lnk57" id="link_A_FSC"><path d="M1829.65,232.4719 C1905.33,244.2819 2168.68,286.1019 2384.4,329.3219 C2395.29,331.5019 2401.1174,332.72 2412.0974,335.2" fill="none" id="A-to-FSC" style="stroke:#181818;stroke-width:1;"/><polygon fill="#181818" points="2417.95,336.5219,2410.0524,330.6374,2413.0729,335.4203,2408.2899,338.4408,2417.95,336.5219" style="stroke:#181818;stroke-width:1;"/></g><!--link A to EC--><g class="link" data-entity-1="A" data-entity-2="EC" data-source-line="67" data-uid="lnk58" id="link_A_EC"><path d="M1787.19,230.7819 C1678.09,239.1119 1169.07,279.0319 754.4,329.3219 C726.32,332.7219 700.6983,336.4774 676.5883,340.2374" fill="none" id="A-to-EC" style="stroke:#181818;stroke-width:1;"/><polygon fill="#181818" points="670.66,341.1619,680.1689,343.7273,675.6003,340.3915,678.9362,335.8229,670.66,341.1619" style="stroke:#181818;stroke-width:1;"/></g><!--link A to QV--><g class="link" data-entity-1="A" data-entity-2="QV" data-source-line="68" data-uid="lnk59" id="link_A_QV"><path d="M1786.97,232.7419 C1710.67,245.4219 1445.08,289.8119 1226.4,329.3219 C1214.38,331.4919 1207.4264,332.7718 1195.1564,335.0818" fill="none" id="A-to-QV" style="stroke:#181818;stroke-width:1;"/><polygon fill="#181818" points="1189.26,336.1919,1198.8447,338.4577,1194.1737,335.2668,1197.3646,330.5958,1189.26,336.1919" style="stroke:#181818;stroke-width:1;"/></g><!--link A to QC--><g class="link" data-entity-1="A" data-entity-2="QC" data-source-line="69" data-uid="lnk60" id="link_A_QC"><path d="M1787.11,234.4219 C1716.66,251.7519 1495.3463,306.1785 1389.0563,332.3285" fill="none" id="A-to-QC" style="stroke:#181818;stroke-width:1;"/><polygon fill="#181818" points="1383.23,333.7619,1392.925,335.496,1388.0852,332.5674,1391.0138,327.7276,1383.23,333.7619" style="stroke:#181818;stroke-width:1;"/></g><!--link SA to MM--><g class="link" data-entity-1="SA" data-entity-2="MM" data-source-line="70" data-uid="lnk61" id="link_SA_MM"><path d="M2239.04,268.5819 C2251.46,289.2819 2262.9935,308.4867 2272.6635,324.6067" fill="none" id="SA-to-MM" style="stroke:#181818;stroke-width:1;"/><polygon fill="#181818" points="2275.75,329.7519,2274.5504,319.9764,2273.1779,325.4642,2267.6901,324.0917,2275.75,329.7519" style="stroke:#181818;stroke-width:1;"/></g><!--link SA to PM--><g class="link" data-entity-1="SA" data-entity-2="PM" data-source-line="71" data-uid="lnk62" id="link_SA_PM"><path d="M2180.06,268.2519 C2160.71,289.6519 2141.7753,310.5926 2127.1553,326.7526" fill="none" id="SA-to-PM" style="stroke:#181818;stroke-width:1;"/><polygon fill="#181818" points="2123.13,331.2019,2132.1342,327.2115,2126.4844,327.4941,2126.2018,321.8443,2123.13,331.2019" style="stroke:#181818;stroke-width:1;"/></g><!--link SA to GS--><g class="link" data-entity-1="SA" data-entity-2="GS" data-source-line="72" data-uid="lnk63" id="link_SA_GS"><path d="M2250.62,239.3719 C2325.8,261.1219 2495.9264,310.3245 2576.7064,333.6945" fill="none" id="SA-to-GS" style="stroke:#181818;stroke-width:1;"/><polygon fill="#181818" points="2582.47,335.3619,2574.9362,329.0183,2577.667,333.9724,2572.7129,336.7032,2582.47,335.3619" style="stroke:#181818;stroke-width:1;"/></g><!--link SA to FSC--><g class="link" data-entity-1="SA" data-entity-2="FSC" data-source-line="73" data-uid="lnk64" id="link_SA_FSC"><path d="M2250.81,246.0119 C2299.82,269.2919 2382.0805,308.3773 2428.3905,330.3773" fill="none" id="SA-to-FSC" style="stroke:#181818;stroke-width:1;"/><polygon fill="#181818" points="2433.81,332.9519,2427.3971,325.477,2429.2937,330.8064,2423.9643,332.703,2433.81,332.9519" style="stroke:#181818;stroke-width:1;"/></g><!--link SA to VPR--><g class="link" data-entity-1="SA" data-entity-2="VPR" data-source-line="74" data-uid="lnk65" id="link_SA_VPR"><path d="M2179.94,244.8919 C2127.74,268.0219 2036.4457,308.4815 1986.1357,330.7715" fill="none" id="SA-to-VPR" style="stroke:#181818;stroke-width:1;"/><polygon fill="#181818" points="1980.65,333.2019,1990.4989,333.2134,1985.2214,331.1765,1987.2582,325.8991,1980.65,333.2019" style="stroke:#181818;stroke-width:1;"/></g><!--link SA to VCR--><g class="link" data-entity-1="SA" data-entity-2="VCR" data-source-line="75" data-uid="lnk66" id="link_SA_VCR"><path d="M2179.92,236.6419 C2101.86,253.0719 1909.32,293.7919 1748.4,329.3219 C1737.69,331.6819 1732.0315,332.9452 1721.1815,335.4052" fill="none" id="SA-to-VCR" style="stroke:#181818;stroke-width:1;"/><polygon fill="#181818" points="1715.33,336.7319,1724.9917,338.6429,1720.2062,335.6263,1723.2228,330.8409,1715.33,336.7319" style="stroke:#181818;stroke-width:1;"/></g><!--link MC to SC--><g class="link" data-entity-1="MC" data-entity-2="SC" data-source-line="77" data-uid="lnk67" id="link_MC_SC"><path d="M509.4,268.5819 C509.93,289.6819 510.4073,308.5839 510.8173,324.6839" fill="none" id="MC-to-SC" style="stroke:#181818;stroke-width:1;"/><polygon fill="#181818" points="510.97,330.6819,514.7396,321.583,510.8427,325.6835,506.7422,321.7867,510.97,330.6819" style="stroke:#181818;stroke-width:1;"/></g><!--link MC to EC--><g class="link" data-entity-1="MC" data-entity-2="EC" data-source-line="78" data-uid="lnk68" id="link_MC_EC"><path d="M546.98,266.2919 C570.09,288.5219 593.9054,311.4328 611.1554,328.0228" fill="none" id="MC-to-EC" style="stroke:#181818;stroke-width:1;"/><polygon fill="#181818" points="615.48,332.1819,611.7659,323.0602,611.8762,328.716,606.2204,328.8263,615.48,332.1819" style="stroke:#181818;stroke-width:1;"/></g><!--link MC to QC_CM--><g class="link" data-entity-1="MC" data-entity-2="QC_CM" data-source-line="79" data-uid="lnk69" id="link_MC_QC_CM"><path d="M469.89,239.2619 C418.95,252.6319 326.37,277.0119 247.4,298.3219 C200.88,310.8719 153.4326,323.9315 117.1926,333.9615" fill="none" id="MC-to-QC_CM" style="stroke:#181818;stroke-width:1;"/><polygon fill="#181818" points="111.41,335.5619,121.1509,337.0163,116.2288,334.2282,119.017,329.3062,111.41,335.5619" style="stroke:#181818;stroke-width:1;"/></g><!--link P to RA--><g class="link" data-entity-1="P" data-entity-2="RA" data-source-line="82" data-uid="lnk73" id="link_P_RA"><path d="M164.37,268.5819 C176.3,289.9519 187.4656,309.9828 196.4356,326.0528" fill="none" id="P-to-RA" style="stroke:#181818;stroke-width:1;"/><polygon fill="#181818" points="199.36,331.2919,198.4662,321.4837,196.923,326.926,191.4807,325.3829,199.36,331.2919" style="stroke:#181818;stroke-width:1;"/></g><!--link S to GS--><g class="link" data-entity-1="S" data-entity-2="GS" data-source-line="83" data-uid="lnk74" id="link_S_GS"><path d="M2624.4,268.5819 C2624.4,289.6819 2624.4,308.5819 2624.4,324.6819" fill="none" id="S-to-GS" style="stroke:#181818;stroke-width:1;"/><polygon fill="#181818" points="2624.4,330.6819,2628.4,321.6819,2624.4,325.6819,2620.4,321.6819,2624.4,330.6819" style="stroke:#181818;stroke-width:1;"/></g><!--link BAL to SC--><g class="link" data-entity-1="BAL" data-entity-2="SC" data-source-line="85" data-uid="lnk76" id="link_BAL_SC"><path d="M371.3,348.4919 C400.57,348.4919 433.17,348.4919 462.44,348.4919" fill="none" id="BAL-to-SC" style="stroke:#181818;stroke-width:1;stroke-dasharray:7,7;"/><polygon fill="#181818" points="468.44,348.4919,459.44,344.4919,463.44,348.4919,459.44,352.4919,468.44,348.4919" style="stroke:#181818;stroke-width:1;"/><text fill="#000000" font-family="Noto Sans CJK SC" font-size="14" lengthAdjust="spacing" textLength="61.8518" x="389.4" y="340.7318">&#171;include&#187;</text></g><!--reverse link EC to AD--><g class="link" data-entity-1="EC" data-entity-2="AD" data-source-line="86" data-uid="lnk77" id="link_EC_AD"><path d="M680.3,348.4919 C709.57,348.4919 742.17,348.4919 771.44,348.4919" fill="none" id="EC-backto-AD" style="stroke:#181818;stroke-width:1;stroke-dasharray:7,7;"/><polygon fill="#181818" points="674.3,348.4919,683.3,352.4919,679.3,348.4919,683.3,344.4919,674.3,348.4919" style="stroke:#181818;stroke-width:1;"/><text fill="#000000" font-family="Noto Sans CJK SC" font-size="14" lengthAdjust="spacing" textLength="61.8518" x="692.4" y="340.7318">&#171;include&#187;</text></g><!--SRC=[RLJBJjj05DtFLuoo1rIfgmeXkUQbjaPffh2gL5d1G4ImKM9KgQjKRMXuj0q59D8cIfD22KHAAa51ZGdyZ3rs_gBNdinaUEoEvjnxpdtPsUMKkQfdz1KyRopeQsbxqZBj6Nt5mB4PoxOmqSqiLfyznqIDeUn3mIJrpi2F7YCxPQSDJ7EEsztrznhkzHRWuBWWPQrb3LNF6cH9NpLmnaZQkhcODX3IaxQLmJ5QFgLV2hJo0T9fuJA6zIoUugJqDYlUd7FtfkLsEjxEGSHeWcdL_E8wVrO63hbUyu2HGIuVaKImcfLSzl9vV-ylBNUOdYeozzgkS-1tTxpyMKJ5XTMPupjL9eKGj9Y45Y7XhE6jRu_u9SVhxhEorG4RdF-6Ri3Corr5P48Pa5wnxMqsM2LCLyfqkwLUlK9_rdgdsn7vL7anO7rdbrQgKkg4RFhf57Jfng_W_1-RoxXaUjNn2XVtyYTbRrezyijRZ0rQVtXZSshYRWmRbnmJbsE-5jtE8TtFzxwNwUOHx92rcNWbTS8s67dvpT98Vp6r4xOOJOgCBWFEfbSgiYos82d4E_m8pvBLT4BEhz924NOOj6eG4jGQxFA8b2-rxDqqwUVBu7ZT-t4T1RwSkni8LVgR5pJtdiN2I89sdSNUcoOhIfxKxM52Pdy8aM9VvOsg8JI5XuR6mhD2in626s80TiR010UmQGR2NVLHdADmxWn1Att04w4Qf75rZQjhN5tZwffGruIw9jGPckPFOADn6qtOA162pJ8Gvo0KLOIemgKKdiW0h8k1y68LNf_2_HJkHuGD4Jv4I9211Xbuaa4XI5F545Gn1RMl7gx5j6m3szOgjXRW_u6VOF8sPIvYMjlkLUfUgmwtwZVRhqtQgD6jghzn8iuS_ZhmMRYTRmZ5-SW9hmmH5OyEfuq5UpZyv45tT3Hb9jDhyyRO69e8oKngSGbOPVms-Hy0]--></g></svg>