<svg xmlns="http://www.w3.org/2000/svg" xmlns:xlink="http://www.w3.org/1999/xlink" contentStyleType="text/css" data-diagram-type="DESCRIPTION" height="385px" preserveAspectRatio="none" style="width:845px;height:385px;background:#FFFFFF;" version="1.1" viewBox="0 0 845 385" width="845px" zoomAndPan="magnify"><?plantuml 1.2026.4?><defs/><g><g class="title" data-source-line="3"><text fill="#000000" font-family="'Noto Sans CJK SC'" font-size="14" font-weight="700" lengthAdjust="spacing" textLength="58.8096" x="389.9152" y="22.9951">&#25968;&#25454;&#24211;&#20132;&#20114;&#29992;&#20363;</text></g><!--cluster TX1--><g class="cluster" data-qualified-name="TX1" data-source-line="11" id="ent0004"><rect fill="#ADD8E6" height="205.09" rx="2.5" ry="2.5" style="stroke:#181818;stroke-width:1;" width="136" x="437.64" y="166.0969"/><text fill="#000000" font-family="'Noto Sans CJK SC'" font-size="14" font-weight="700" lengthAdjust="spacing" textLength="50.251" x="480.5145" y="181.092">&#20107;&#21153;&#36793;&#30028;-A</text><text fill="#000000" font-family="'Noto Sans CJK SC'" font-size="14" font-weight="700" lengthAdjust="spacing" textLength="46.4023" x="482.4388" y="197.3889">(&#20805;&#20540;&#27969;&#31243;)</text></g><!--cluster TX2--><g class="cluster" data-qualified-name="TX2" data-source-line="16" id="ent0007"><rect fill="#90EE90" height="96.04" rx="2.5" ry="2.5" style="stroke:#181818;stroke-width:1;" width="210" x="621.64" y="166.0969"/><text fill="#000000" font-family="'Noto Sans CJK SC'" font-size="14" font-weight="700" lengthAdjust="spacing" textLength="50.0869" x="701.5965" y="181.092">&#20107;&#21153;&#36793;&#30028;-B</text><text fill="#000000" font-family="'Noto Sans CJK SC'" font-size="14" font-weight="700" lengthAdjust="spacing" textLength="46.4023" x="703.4388" y="197.3889">(&#21551;&#21160;&#20805;&#30005;)</text></g><!--entity UC3--><g class="entity" data-qualified-name="TX1.UC3" data-source-line="12" id="ent0005"><ellipse cx="505.644" cy="340.6705" fill="#F1F1F1" rx="38.644" ry="14.5236" style="stroke:#181818;stroke-width:0.5;"/><text fill="#000000" font-family="'Noto Sans CJK SC'" font-size="14" lengthAdjust="spacing" textLength="50.4082" x="480.4399" y="345.3189">&#35760;&#24405;&#25903;&#20184;&#27969;&#27700;</text></g><!--entity UC4--><g class="entity" data-qualified-name="TX1.UC4" data-source-line="13" id="ent0006"><ellipse cx="492.644" cy="231.6205" fill="#F1F1F1" rx="38.644" ry="14.5236" style="stroke:#181818;stroke-width:0.5;"/><text fill="#000000" font-family="'Noto Sans CJK SC'" font-size="14" lengthAdjust="spacing" textLength="50.4082" x="467.4399" y="236.2689">&#26356;&#26032;&#29992;&#25143;&#20313;&#39069;</text></g><!--entity UC5--><g class="entity" data-qualified-name="TX2.UC5" data-source-line="17" id="ent0008"><ellipse cx="676.644" cy="231.6205" fill="#F1F1F1" rx="38.644" ry="14.5236" style="stroke:#181818;stroke-width:0.5;"/><text fill="#000000" font-family="'Noto Sans CJK SC'" font-size="14" lengthAdjust="spacing" textLength="50.4082" x="651.4399" y="236.2689">&#21019;&#24314;&#20805;&#30005;&#35760;&#24405;</text></g><!--entity UC6--><g class="entity" data-qualified-name="TX2.UC6" data-source-line="18" id="ent0009"><ellipse cx="782.6433" cy="231.6205" fill="#F1F1F1" rx="32.7033" ry="14.5236" style="stroke:#181818;stroke-width:0.5;"/><text fill="#000000" font-family="'Noto Sans CJK SC'" font-size="14" lengthAdjust="spacing" textLength="42.0068" x="761.6399" y="236.2689">&#26356;&#26032;&#26729;&#29366;&#24577;</text></g><!--entity BE--><g class="entity" data-qualified-name="BE" data-source-line="6" id="ent0001"><ellipse cx="436.6427" cy="51.2969" fill="#F1F1F1" rx="8" ry="8" style="stroke:#181818;stroke-width:0.5;"/><path d="M436.6427,59.2969 L436.6427,86.2969 M423.6427,67.2969 L449.6427,67.2969 M436.6427,86.2969 L423.6427,101.2969 M436.6427,86.2969 L449.6427,101.2969" fill="none" style="stroke:#181818;stroke-width:0.5;"/><text fill="#000000" font-family="'Noto Sans CJK SC'" font-size="14" lengthAdjust="spacing" textLength="33.6055" x="419.84" y="115.792">&#21518;&#31471;&#26381;&#21153;</text></g><!--entity UC1--><g class="entity" data-qualified-name="UC1" data-source-line="8" id="ent0002"><ellipse cx="44.644" cy="231.6205" fill="#F1F1F1" rx="38.644" ry="14.5236" style="stroke:#181818;stroke-width:0.5;"/><text fill="#000000" font-family="'Noto Sans CJK SC'" font-size="14" lengthAdjust="spacing" textLength="50.4082" x="19.4399" y="236.2689">&#20889;&#20837;&#29992;&#25143;&#35760;&#24405;</text></g><!--entity UC2--><g class="entity" data-qualified-name="UC2" data-source-line="9" id="ent0003"><ellipse cx="156.644" cy="231.6205" fill="#F1F1F1" rx="38.644" ry="14.5236" style="stroke:#181818;stroke-width:0.5;"/><text fill="#000000" font-family="'Noto Sans CJK SC'" font-size="14" lengthAdjust="spacing" textLength="50.4082" x="131.4399" y="236.2689">&#26597;&#35810;&#29992;&#25143;&#20973;&#35777;</text></g><!--entity UC7--><g class="entity" data-qualified-name="UC7" data-source-line="21" id="ent0010"><ellipse cx="268.644" cy="231.6205" fill="#F1F1F1" rx="38.644" ry="14.5236" style="stroke:#181818;stroke-width:0.5;"/><text fill="#000000" font-family="'Noto Sans CJK SC'" font-size="14" lengthAdjust="spacing" textLength="50.4082" x="243.4399" y="236.2689">&#32479;&#35745;&#25253;&#34920;&#32858;&#21512;</text></g><!--entity UC8--><g class="entity" data-qualified-name="UC8" data-source-line="22" id="ent0011"><ellipse cx="380.644" cy="231.6205" fill="#F1F1F1" rx="38.644" ry="14.5236" style="stroke:#181818;stroke-width:0.5;"/><text fill="#000000" font-family="'Noto Sans CJK SC'" font-size="14" lengthAdjust="spacing" textLength="50.4082" x="355.4399" y="236.2689">&#35760;&#24405;&#23457;&#35745;&#26085;&#24535;</text></g><!--link BE to UC1--><g class="link" data-entity-1="ent0001" data-entity-2="ent0002" data-link-type="dependency" data-source-line="24" id="lnk12"><path d="M419.38,81.8769 C367.06,82.4569 207.28,90.0369 100.64,158.0969 C77.58,172.8169 62.5948,196.0815 53.6948,212.6615" fill="none" id="BE-to-UC1" style="stroke:#181818;stroke-width:1;"/><polygon fill="#181818" points="51.33,217.0669,59.111,211.0289,53.6948,212.6615,52.0623,207.2453,51.33,217.0669" style="stroke:#181818;stroke-width:1;stroke-linejoin:miter;stroke-miterlimit:10;"/></g><!--link BE to UC2--><g class="link" data-entity-1="ent0001" data-entity-2="ent0003" data-link-type="dependency" data-source-line="25" id="lnk13"><path d="M419.37,84.3269 C379.6,90.5269 279.81,110.0869 212.64,158.0969 C190.64,173.8169 175.6455,196.2927 166.3855,212.5427" fill="none" id="BE-to-UC2" style="stroke:#181818;stroke-width:1;"/><polygon fill="#181818" points="163.91,216.8869,171.8413,211.0478,166.3855,212.5427,164.8906,207.087,163.91,216.8869" style="stroke:#181818;stroke-width:1;stroke-linejoin:miter;stroke-miterlimit:10;"/></g><!--link BE to UC3--><g class="link" data-entity-1="ent0001" data-entity-2="ent0005" data-link-type="dependency" data-source-line="26" id="lnk14"><path d="M453.75,88.1769 C479.21,98.4469 526.46,121.4969 548.64,158.0969 C580.61,210.8269 589.98,240.8669 562.64,296.1369 C555.58,310.4269 545.6453,318.7813 533.1553,326.0913" fill="none" id="BE-to-UC3" style="stroke:#181818;stroke-width:1;"/><polygon fill="#181818" points="528.84,328.6169,538.6279,327.523,533.1553,326.0913,534.587,320.6186,528.84,328.6169" style="stroke:#181818;stroke-width:1;stroke-linejoin:miter;stroke-miterlimit:10;"/></g><!--link BE to UC4--><g class="link" data-entity-1="ent0001" data-entity-2="ent0006" data-link-type="dependency" data-source-line="27" id="lnk15"><path d="M450.78,119.4569 C462.76,151.2869 477.5267,190.4881 485.7767,212.3781" fill="none" id="BE-to-UC4" style="stroke:#181818;stroke-width:1;"/><polygon fill="#181818" points="487.54,217.0569,488.109,207.2245,485.7767,212.3781,480.623,210.0458,487.54,217.0569" style="stroke:#181818;stroke-width:1;stroke-linejoin:miter;stroke-miterlimit:10;"/></g><!--link BE to UC5--><g class="link" data-entity-1="ent0001" data-entity-2="ent0008" data-link-type="dependency" data-source-line="28" id="lnk16"><path d="M453.89,85.4569 C486.88,92.8269 560.12,112.3069 610.64,149.0969 C636.41,167.8469 655.1776,194.7936 666.1276,212.6636" fill="none" id="BE-to-UC5" style="stroke:#181818;stroke-width:1;"/><polygon fill="#181818" points="668.74,216.9269,667.4484,207.1631,666.1276,212.6636,660.6271,211.3429,668.74,216.9269" style="stroke:#181818;stroke-width:1;stroke-linejoin:miter;stroke-miterlimit:10;"/></g><!--link BE to UC6--><g class="link" data-entity-1="ent0001" data-entity-2="ent0009" data-link-type="dependency" data-source-line="29" id="lnk17"><path d="M453.72,82.2869 C501.97,84.0269 641.71,94.6069 732.64,158.0969 C754.09,173.0669 767.0813,195.8633 774.7513,212.3533" fill="none" id="BE-to-UC6" style="stroke:#181818;stroke-width:1;"/><polygon fill="#181818" points="776.86,216.8869,776.6912,207.0395,774.7513,212.3533,769.4375,210.4134,776.86,216.8869" style="stroke:#181818;stroke-width:1;stroke-linejoin:miter;stroke-miterlimit:10;"/></g><!--link BE to UC7--><g class="link" data-entity-1="ent0001" data-entity-2="ent0010" data-link-type="dependency" data-source-line="30" id="lnk18"><path d="M419.5,91.2969 C396.41,104.3769 354.78,129.7269 324.64,158.0969 C305.3,176.2969 290.1078,197.4396 279.9778,212.8396" fill="none" id="BE-to-UC7" style="stroke:#181818;stroke-width:1;"/><polygon fill="#181818" points="277.23,217.0169,285.5178,211.696,279.9778,212.8396,278.8342,207.2995,277.23,217.0169" style="stroke:#181818;stroke-width:1;stroke-linejoin:miter;stroke-miterlimit:10;"/></g><!--link BE to UC8--><g class="link" data-entity-1="ent0001" data-entity-2="ent0011" data-link-type="dependency" data-source-line="31" id="lnk19"><path d="M422.51,119.4569 C410.52,151.2869 395.7633,190.4881 387.5133,212.3781" fill="none" id="BE-to-UC8" style="stroke:#181818;stroke-width:1;"/><polygon fill="#181818" points="385.75,217.0569,392.667,210.0458,387.5133,212.3781,385.181,207.2245,385.75,217.0569" style="stroke:#181818;stroke-width:1;stroke-linejoin:miter;stroke-miterlimit:10;"/></g><!--reverse link UC4 to UC3--><g class="link" data-entity-1="ent0006" data-entity-2="ent0005" data-link-type="dependency" data-source-line="33" id="lnk20"><path d="M489.5104,251.5577 C487.6804,264.5077 486.65,279.2869 489.64,296.1369 C491.48,306.4469 495.58,317.5069 499.16,325.8969" fill="none" id="UC4-backto-UC3" style="stroke:#181818;stroke-width:1;stroke-dasharray:7,7;"/><polygon fill="#181818" points="490.21,246.6069,484.99,254.9586,489.5104,251.5577,492.9113,256.078,490.21,246.6069" style="stroke:#181818;stroke-width:1;stroke-linejoin:miter;stroke-miterlimit:10;"/><text fill="#000000" font-family="'Noto Sans CJK SC'" font-size="14" lengthAdjust="spacing" textLength="67.8535" x="490.64" y="292.132">&#171;include&#187;</text></g><?plantuml-src TP7BIiD058RtynI7kD55XTPwGKh15XLKt5J1XPkX7JKO4sbI14MmYsffLOgstaKY5YfYquKNJBsyJ6OIty9f6nklkn_c-y_vPaPT5ELbdCHBa21pE2Lf8ugiJU8b0iAaeYaGmx8AqR5nY4K5fFu5nyHL0luWqaHD8i1ADRPJfUQ-PLvPvfvTh5Yl-I_5b4gYM2Mn1RnC84dY6fRd9O8GZcjA4WHQsBLl37QsGtEw05Y5o312l1Fd7NwwUKmpPJwJPH-TQes-b9hCTDJlCUoYx1YNBOPktJf6scK22BNtWM2PURx2UNsoIzk-eLcvasOoTEEPtQVjIhwhMPcQyKF7X3Y_e4Ma584r1D3UqjhEYePLF-8TLhjpj_HyfTZf7JkejLoib-FtotEN2gBr_sqY3Pk2GNCLxcGNxpzj0gxDQ98G-RiEpPxIkjd2lprCxsyTfb_RkGUsyVakVGsNDcFNBvogpd9bHwyuwHDQoBfOF_fnULhL6-HXcRuTkim0Gf5XyFd2pIzfnu0NUxmOz6Al5_kysEz5FfWN8DITK5RaxiOS68HGI9JZKYf1mk4F?></g></svg>