<svg xmlns="http://www.w3.org/2000/svg" xmlns:xlink="http://www.w3.org/1999/xlink" contentStyleType="text/css" data-diagram-type="CLASS" height="1089px" preserveAspectRatio="none" style="width:857px;height:1089px;background:#FFFFFF;" version="1.1" viewBox="0 0 857 1089" width="857px" zoomAndPan="magnify"><title>&#20805;&#30005;&#31449;&#31649;&#29702;&#31995;&#32479; ER &#22270;</title><defs/><g><g class="title" data-source-line="3"><text fill="#000000" font-family="Noto Sans CJK SC" font-size="14" font-weight="bold" lengthAdjust="spacing" textLength="136.5134" x="353.4899" y="26.2399">&#20805;&#30005;&#31449;&#31649;&#29702;&#31995;&#32479; ER &#22270;</text></g><!--class users--><g class="entity" data-entity="users" data-source-line="5" data-uid="ent0002" id="entity_users"><rect fill="#F1F1F1" height="228.7191" rx="2.5" ry="2.5" style="stroke:#181818;stroke-width:0.5;" width="229.5252" x="201.28" y="276.1719"/><ellipse cx="294.6477" cy="291.3079" fill="#ADD1B2" rx="10" ry="10" style="stroke:#181818;stroke-width:1;"/><path d="M291.7727,296.3079 L291.7727,286.3079 L298.0695,286.3079 L298.0695,288.0579 L293.7258,288.0579 L293.7258,290.2454 L297.8508,290.2454 L297.8508,291.9954 L293.7258,291.9954 L293.7258,294.5579 L298.0695,294.5579 L298.0695,296.3079 L291.7727,296.3079 Z " fill="#000000"/><text fill="#000000" font-family="Noto Sans CJK SC" font-size="14" lengthAdjust="spacing" textLength="34.7899" x="313.6477" y="297.4118">users</text><line style="stroke:#181818;stroke-width:0.5;" x1="202.28" x2="429.8052" y1="306.4438" y2="306.4438"/><ellipse cx="212.28" cy="322.0798" fill="#000000" rx="3" ry="3" style="stroke:#000000;stroke-width:1;"/><text fill="#000000" font-family="Noto Sans CJK SC" font-size="14" lengthAdjust="spacing" textLength="83.9857" x="220.28" y="326.6838">id: UUID (PK)</text><line style="stroke:#181818;stroke-width:1;" x1="202.28" x2="429.8052" y1="334.7157" y2="334.7157"/><text fill="#000000" font-family="Noto Sans CJK SC" font-size="14" lengthAdjust="spacing" textLength="138.9214" x="220.28" y="354.9557">name: VARCHAR(100)</text><ellipse cx="212.28" cy="370.6236" fill="#000000" rx="3" ry="3" style="stroke:#000000;stroke-width:1;"/><text fill="#000000" font-family="Noto Sans CJK SC" font-size="14" lengthAdjust="spacing" textLength="201.6132" x="220.28" y="375.2276">phone: VARCHAR(32) (UNIQUE)</text><text fill="#000000" font-family="Noto Sans CJK SC" font-size="14" lengthAdjust="spacing" textLength="187.2493" x="220.28" y="395.4995">plate_number: VARCHAR(32)</text><ellipse cx="212.28" cy="411.1674" fill="#000000" rx="3" ry="3" style="stroke:#000000;stroke-width:1;"/><text fill="#000000" font-family="Noto Sans CJK SC" font-size="14" lengthAdjust="spacing" textLength="204.5252" x="220.28" y="415.7714">password_hash: VARCHAR(255)</text><text fill="#000000" font-family="Noto Sans CJK SC" font-size="14" lengthAdjust="spacing" textLength="119.6575" x="220.28" y="436.0433">role: VARCHAR(32)</text><text fill="#000000" font-family="Noto Sans CJK SC" font-size="14" lengthAdjust="spacing" textLength="157.2754" x="220.28" y="456.3152">balance: NUMERIC(12,2)</text><text fill="#000000" font-family="Noto Sans CJK SC" font-size="14" lengthAdjust="spacing" textLength="172.3393" x="220.28" y="476.5871">created_at: TIMESTAMPTZ</text><text fill="#000000" font-family="Noto Sans CJK SC" font-size="14" lengthAdjust="spacing" textLength="177.8693" x="220.28" y="496.859">updated_at: TIMESTAMPTZ</text></g><!--class stations--><g class="entity" data-entity="stations" data-source-line="18" data-uid="ent0003" id="entity_stations"><rect fill="#F1F1F1" height="167.9034" rx="2.5" ry="2.5" style="stroke:#181818;stroke-width:0.5;" width="197.3393" x="576.37" y="48.2719"/><ellipse cx="644.8318" cy="63.4079" fill="#ADD1B2" rx="10" ry="10" style="stroke:#181818;stroke-width:1;"/><path d="M641.9568,68.4079 L641.9568,58.4079 L648.2536,58.4079 L648.2536,60.1579 L643.9099,60.1579 L643.9099,62.3454 L648.0349,62.3454 L648.0349,64.0954 L643.9099,64.0954 L643.9099,66.6579 L648.2536,66.6579 L648.2536,68.4079 L641.9568,68.4079 Z " fill="#000000"/><text fill="#000000" font-family="Noto Sans CJK SC" font-size="14" lengthAdjust="spacing" textLength="52.4158" x="663.8318" y="69.5118">stations</text><line style="stroke:#181818;stroke-width:0.5;" x1="577.37" x2="772.7093" y1="78.5438" y2="78.5438"/><ellipse cx="587.37" cy="94.1798" fill="#000000" rx="3" ry="3" style="stroke:#000000;stroke-width:1;"/><text fill="#000000" font-family="Noto Sans CJK SC" font-size="14" lengthAdjust="spacing" textLength="83.9857" x="595.37" y="98.7838">id: UUID (PK)</text><line style="stroke:#181818;stroke-width:1;" x1="577.37" x2="772.7093" y1="106.8157" y2="106.8157"/><ellipse cx="587.37" cy="122.4517" fill="#000000" rx="3" ry="3" style="stroke:#000000;stroke-width:1;"/><text fill="#000000" font-family="Noto Sans CJK SC" font-size="14" lengthAdjust="spacing" textLength="138.9214" x="595.37" y="127.0557">name: VARCHAR(200)</text><text fill="#000000" font-family="Noto Sans CJK SC" font-size="14" lengthAdjust="spacing" textLength="93.7016" x="595.37" y="147.3276">location: TEXT</text><text fill="#000000" font-family="Noto Sans CJK SC" font-size="14" lengthAdjust="spacing" textLength="160.4674" x="595.37" y="167.5995">charger_count: INTEGER</text><text fill="#000000" font-family="Noto Sans CJK SC" font-size="14" lengthAdjust="spacing" textLength="134.0495" x="595.37" y="187.8714">status: VARCHAR(32)</text><text fill="#000000" font-family="Noto Sans CJK SC" font-size="14" lengthAdjust="spacing" textLength="172.3393" x="595.37" y="208.1433">created_at: TIMESTAMPTZ</text></g><!--class chargers--><g class="entity" data-entity="chargers" data-source-line="28" data-uid="ent0004" id="entity_chargers"><rect fill="#F1F1F1" height="167.9034" rx="2.5" ry="2.5" style="stroke:#181818;stroke-width:0.5;" width="274.577" x="537.75" y="306.5819"/><ellipse cx="642.7446" cy="321.7179" fill="#ADD1B2" rx="10" ry="10" style="stroke:#181818;stroke-width:1;"/><path d="M639.8696,326.7179 L639.8696,316.7179 L646.1665,316.7179 L646.1665,318.4679 L641.8227,318.4679 L641.8227,320.6554 L645.9477,320.6554 L645.9477,322.4054 L641.8227,322.4054 L641.8227,324.9679 L646.1665,324.9679 L646.1665,326.7179 L639.8696,326.7179 Z " fill="#000000"/><text fill="#000000" font-family="Noto Sans CJK SC" font-size="14" lengthAdjust="spacing" textLength="56.5878" x="661.7446" y="327.8218">chargers</text><line style="stroke:#181818;stroke-width:0.5;" x1="538.75" x2="811.327" y1="336.8538" y2="336.8538"/><ellipse cx="548.75" cy="352.4898" fill="#000000" rx="3" ry="3" style="stroke:#000000;stroke-width:1;"/><text fill="#000000" font-family="Noto Sans CJK SC" font-size="14" lengthAdjust="spacing" textLength="83.9857" x="556.75" y="357.0938">id: UUID (PK)</text><line style="stroke:#181818;stroke-width:1;" x1="538.75" x2="811.327" y1="365.1257" y2="365.1257"/><ellipse cx="548.75" cy="380.7617" fill="#000000" rx="3" ry="3" style="stroke:#000000;stroke-width:1;"/><text fill="#000000" font-family="Noto Sans CJK SC" font-size="14" lengthAdjust="spacing" textLength="136.5415" x="556.75" y="385.3657">station_id: UUID (FK)</text><ellipse cx="548.75" cy="401.0336" fill="#000000" rx="3" ry="3" style="stroke:#000000;stroke-width:1;"/><text fill="#000000" font-family="Noto Sans CJK SC" font-size="14" lengthAdjust="spacing" textLength="249.577" x="556.75" y="405.6376">charger_code: VARCHAR(64) (UNIQUE)</text><text fill="#000000" font-family="Noto Sans CJK SC" font-size="14" lengthAdjust="spacing" textLength="123.0175" x="556.75" y="425.9095">type: VARCHAR(32)</text><text fill="#000000" font-family="Noto Sans CJK SC" font-size="14" lengthAdjust="spacing" textLength="134.0495" x="556.75" y="446.1814">status: VARCHAR(32)</text><text fill="#000000" font-family="Noto Sans CJK SC" font-size="14" lengthAdjust="spacing" textLength="172.3393" x="556.75" y="466.4533">created_at: TIMESTAMPTZ</text></g><!--class charge_records--><g class="entity" data-entity="charge_records" data-source-line="38" data-uid="ent0005" id="entity_charge_records"><rect fill="#F1F1F1" height="248.991" rx="2.5" ry="2.5" style="stroke:#181818;stroke-width:0.5;" width="302.3809" x="307.85" y="564.8919"/><ellipse cx="404.0877" cy="580.0279" fill="#ADD1B2" rx="10" ry="10" style="stroke:#181818;stroke-width:1;"/><path d="M401.2127,585.0279 L401.2127,575.0279 L407.5095,575.0279 L407.5095,576.7779 L403.1658,576.7779 L403.1658,578.9654 L407.2908,578.9654 L407.2908,580.7154 L403.1658,580.7154 L403.1658,583.2779 L407.5095,583.2779 L407.5095,585.0279 L401.2127,585.0279 Z " fill="#000000"/><text fill="#000000" font-family="Noto Sans CJK SC" font-size="14" lengthAdjust="spacing" textLength="101.9056" x="423.0877" y="586.1318">charge_records</text><line style="stroke:#181818;stroke-width:0.5;" x1="308.85" x2="609.2309" y1="595.1638" y2="595.1638"/><ellipse cx="318.85" cy="610.7998" fill="#000000" rx="3" ry="3" style="stroke:#000000;stroke-width:1;"/><text fill="#000000" font-family="Noto Sans CJK SC" font-size="14" lengthAdjust="spacing" textLength="83.9857" x="326.85" y="615.4038">id: UUID (PK)</text><line style="stroke:#181818;stroke-width:1;" x1="308.85" x2="609.2309" y1="623.4357" y2="623.4357"/><ellipse cx="318.85" cy="639.0717" fill="#000000" rx="3" ry="3" style="stroke:#000000;stroke-width:1;"/><text fill="#000000" font-family="Noto Sans CJK SC" font-size="14" lengthAdjust="spacing" textLength="118.9155" x="326.85" y="643.6757">user_id: UUID (FK)</text><ellipse cx="318.85" cy="659.3436" fill="#000000" rx="3" ry="3" style="stroke:#000000;stroke-width:1;"/><text fill="#000000" font-family="Noto Sans CJK SC" font-size="14" lengthAdjust="spacing" textLength="140.7134" x="326.85" y="663.9476">charger_id: UUID (FK)</text><text fill="#000000" font-family="Noto Sans CJK SC" font-size="14" lengthAdjust="spacing" textLength="169.5254" x="326.85" y="684.2195">start_time: TIMESTAMPTZ</text><text fill="#000000" font-family="Noto Sans CJK SC" font-size="14" lengthAdjust="spacing" textLength="164.0794" x="326.85" y="704.4914">end_time: TIMESTAMPTZ</text><text fill="#000000" font-family="Noto Sans CJK SC" font-size="14" lengthAdjust="spacing" textLength="185.4013" x="326.85" y="724.7633">energy_kwh: NUMERIC(10,3)</text><text fill="#000000" font-family="Noto Sans CJK SC" font-size="14" lengthAdjust="spacing" textLength="125.5095" x="326.85" y="745.0352">fee: NUMERIC(12,2)</text><text fill="#000000" font-family="Noto Sans CJK SC" font-size="14" lengthAdjust="spacing" textLength="134.0495" x="326.85" y="765.3071">status: VARCHAR(32)</text><text fill="#000000" font-family="Noto Sans CJK SC" font-size="14" lengthAdjust="spacing" textLength="277.3809" x="326.85" y="785.579">deduction_status: VARCHAR(32) (&#25187;&#36153;&#29366;&#24577;)</text><text fill="#000000" font-family="Noto Sans CJK SC" font-size="14" lengthAdjust="spacing" textLength="172.3393" x="326.85" y="805.851">created_at: TIMESTAMPTZ</text></g><!--class payments--><g class="entity" data-entity="payments" data-source-line="52" data-uid="ent0006" id="entity_payments"><rect fill="#F1F1F1" height="208.4472" rx="2.5" ry="2.5" style="stroke:#181818;stroke-width:0.5;" width="255.6911" x="112.19" y="873.8819"/><ellipse cx="203.5627" cy="889.0179" fill="#ADD1B2" rx="10" ry="10" style="stroke:#181818;stroke-width:1;"/><path d="M200.6877,894.0179 L200.6877,884.0179 L206.9846,884.0179 L206.9846,885.7679 L202.6408,885.7679 L202.6408,887.9554 L206.7658,887.9554 L206.7658,889.7054 L202.6408,889.7054 L202.6408,892.2679 L206.9846,892.2679 L206.9846,894.0179 L200.6877,894.0179 Z " fill="#000000"/><text fill="#000000" font-family="Noto Sans CJK SC" font-size="14" lengthAdjust="spacing" textLength="64.9457" x="222.5627" y="895.1218">payments</text><line style="stroke:#181818;stroke-width:0.5;" x1="113.19" x2="366.8811" y1="904.1538" y2="904.1538"/><ellipse cx="123.19" cy="919.7898" fill="#000000" rx="3" ry="3" style="stroke:#000000;stroke-width:1;"/><text fill="#000000" font-family="Noto Sans CJK SC" font-size="14" lengthAdjust="spacing" textLength="83.9857" x="131.19" y="924.3938">id: UUID (PK)</text><line style="stroke:#181818;stroke-width:1;" x1="113.19" x2="366.8811" y1="932.4257" y2="932.4257"/><ellipse cx="123.19" cy="948.0617" fill="#000000" rx="3" ry="3" style="stroke:#000000;stroke-width:1;"/><text fill="#000000" font-family="Noto Sans CJK SC" font-size="14" lengthAdjust="spacing" textLength="118.9155" x="131.19" y="952.6657">user_id: UUID (FK)</text><text fill="#000000" font-family="Noto Sans CJK SC" font-size="14" lengthAdjust="spacing" textLength="186.0313" x="131.19" y="972.9376">charge_record_id: UUID (FK)</text><text fill="#000000" font-family="Noto Sans CJK SC" font-size="14" lengthAdjust="spacing" textLength="145.6694" x="131.19" y="993.2095">method: VARCHAR(32)</text><ellipse cx="123.19" cy="1008.8774" fill="#000000" rx="3" ry="3" style="stroke:#000000;stroke-width:1;"/><text fill="#000000" font-family="Noto Sans CJK SC" font-size="14" lengthAdjust="spacing" textLength="157.0934" x="131.19" y="1013.4814">amount: NUMERIC(12,2)</text><text fill="#000000" font-family="Noto Sans CJK SC" font-size="14" lengthAdjust="spacing" textLength="134.0495" x="131.19" y="1033.7533">status: VARCHAR(32)</text><text fill="#000000" font-family="Noto Sans CJK SC" font-size="14" lengthAdjust="spacing" textLength="230.6911" x="131.19" y="1054.0252">gateway_callback_payload: JSONB</text><text fill="#000000" font-family="Noto Sans CJK SC" font-size="14" lengthAdjust="spacing" textLength="172.3393" x="131.19" y="1074.2971">created_at: TIMESTAMPTZ</text></g><!--class repairs--><g class="entity" data-entity="repairs" data-source-line="64" data-uid="ent0007" id="entity_repairs"><rect fill="#F1F1F1" height="208.4472" rx="2.5" ry="2.5" style="stroke:#181818;stroke-width:0.5;" width="204.9133" x="645.58" y="585.1619"/><ellipse cx="721.2447" cy="600.2979" fill="#ADD1B2" rx="10" ry="10" style="stroke:#181818;stroke-width:1;"/><path d="M718.3697,605.2979 L718.3697,595.2979 L724.6666,595.2979 L724.6666,597.0479 L720.3229,597.0479 L720.3229,599.2354 L724.4479,599.2354 L724.4479,600.9854 L720.3229,600.9854 L720.3229,603.5479 L724.6666,603.5479 L724.6666,605.2979 L718.3697,605.2979 Z " fill="#000000"/><text fill="#000000" font-family="Noto Sans CJK SC" font-size="14" lengthAdjust="spacing" textLength="45.5838" x="740.2447" y="606.4018">repairs</text><line style="stroke:#181818;stroke-width:0.5;" x1="646.58" x2="849.4933" y1="615.4338" y2="615.4338"/><ellipse cx="656.58" cy="631.0698" fill="#000000" rx="3" ry="3" style="stroke:#000000;stroke-width:1;"/><text fill="#000000" font-family="Noto Sans CJK SC" font-size="14" lengthAdjust="spacing" textLength="83.9857" x="664.58" y="635.6738">id: UUID (PK)</text><line style="stroke:#181818;stroke-width:1;" x1="646.58" x2="849.4933" y1="643.7057" y2="643.7057"/><ellipse cx="656.58" cy="659.3417" fill="#000000" rx="3" ry="3" style="stroke:#000000;stroke-width:1;"/><text fill="#000000" font-family="Noto Sans CJK SC" font-size="14" lengthAdjust="spacing" textLength="140.7134" x="664.58" y="663.9457">charger_id: UUID (FK)</text><text fill="#000000" font-family="Noto Sans CJK SC" font-size="14" lengthAdjust="spacing" textLength="144.9274" x="664.58" y="684.2176">reporter_id: UUID (FK)</text><text fill="#000000" font-family="Noto Sans CJK SC" font-size="14" lengthAdjust="spacing" textLength="114.3096" x="664.58" y="704.4895">description: TEXT</text><text fill="#000000" font-family="Noto Sans CJK SC" font-size="14" lengthAdjust="spacing" textLength="134.0495" x="664.58" y="724.7614">status: VARCHAR(32)</text><text fill="#000000" font-family="Noto Sans CJK SC" font-size="14" lengthAdjust="spacing" textLength="148.1054" x="664.58" y="745.0333">handled_by: UUID (FK)</text><text fill="#000000" font-family="Noto Sans CJK SC" font-size="14" lengthAdjust="spacing" textLength="179.9133" x="664.58" y="765.3052">reported_at: TIMESTAMPTZ</text><text fill="#000000" font-family="Noto Sans CJK SC" font-size="14" lengthAdjust="spacing" textLength="176.4273" x="664.58" y="785.5771">handled_at: TIMESTAMPTZ</text></g><!--class audit_logs--><g class="entity" data-entity="audit_logs" data-source-line="76" data-uid="ent0008" id="entity_audit_logs"><rect fill="#F1F1F1" height="208.4472" rx="2.5" ry="2.5" style="stroke:#181818;stroke-width:0.5;" width="197.3393" x="75.37" y="585.1619"/><ellipse cx="135.5788" cy="600.2979" fill="#ADD1B2" rx="10" ry="10" style="stroke:#181818;stroke-width:1;"/><path d="M132.7038,605.2979 L132.7038,595.2979 L139.0007,595.2979 L139.0007,597.0479 L134.6569,597.0479 L134.6569,599.2354 L138.7819,599.2354 L138.7819,600.9854 L134.6569,600.9854 L134.6569,603.5479 L139.0007,603.5479 L139.0007,605.2979 L132.7038,605.2979 Z " fill="#000000"/><text fill="#000000" font-family="Noto Sans CJK SC" font-size="14" lengthAdjust="spacing" textLength="68.9217" x="154.5788" y="606.4018">audit_logs</text><line style="stroke:#181818;stroke-width:0.5;" x1="76.37" x2="271.7093" y1="615.4338" y2="615.4338"/><ellipse cx="86.37" cy="631.0698" fill="#000000" rx="3" ry="3" style="stroke:#000000;stroke-width:1;"/><text fill="#000000" font-family="Noto Sans CJK SC" font-size="14" lengthAdjust="spacing" textLength="83.9857" x="94.37" y="635.6738">id: UUID (PK)</text><line style="stroke:#181818;stroke-width:1;" x1="76.37" x2="271.7093" y1="643.7057" y2="643.7057"/><text fill="#000000" font-family="Noto Sans CJK SC" font-size="14" lengthAdjust="spacing" textLength="95.5216" x="94.37" y="663.9457">actor_id: UUID</text><text fill="#000000" font-family="Noto Sans CJK SC" font-size="14" lengthAdjust="spacing" textLength="165.0594" x="94.37" y="684.2176">actor_type: VARCHAR(32)</text><ellipse cx="86.37" cy="699.8855" fill="#000000" rx="3" ry="3" style="stroke:#000000;stroke-width:1;"/><text fill="#000000" font-family="Noto Sans CJK SC" font-size="14" lengthAdjust="spacing" textLength="142.9534" x="94.37" y="704.4895">action: VARCHAR(128)</text><text fill="#000000" font-family="Noto Sans CJK SC" font-size="14" lengthAdjust="spacing" textLength="158.8294" x="94.37" y="724.7614">resource: VARCHAR(128)</text><text fill="#000000" font-family="Noto Sans CJK SC" font-size="14" lengthAdjust="spacing" textLength="118.3555" x="94.37" y="745.0333">resource_id: UUID</text><text fill="#000000" font-family="Noto Sans CJK SC" font-size="14" lengthAdjust="spacing" textLength="105.4476" x="94.37" y="765.3052">payload: JSONB</text><text fill="#000000" font-family="Noto Sans CJK SC" font-size="14" lengthAdjust="spacing" textLength="172.3393" x="94.37" y="785.5771">created_at: TIMESTAMPTZ</text></g><!--link stations to chargers--><g class="link" data-entity-1="stations" data-entity-2="chargers" data-source-line="88" data-uid="lnk9" id="link_stations_chargers"><path codeLine="88" d="M675.04,224.4419 C675.04,253.2319 675.04,259.5019 675.04,288.2919" fill="none" id="stations-chargers" style="stroke:#181818;stroke-width:1;"/><line style="stroke:#181818;stroke-width:1;" x1="671.04" x2="679.04" y1="220.4419" y2="220.4419"/><line style="stroke:#181818;stroke-width:1;" x1="671.04" x2="679.04" y1="223.4419" y2="223.4419"/><line style="stroke:#181818;stroke-width:1;" x1="675.04" x2="675.04" y1="224.4419" y2="216.4419"/><line style="stroke:#181818;stroke-width:1;" x1="675.04" x2="681.04" y1="298.2919" y2="306.2919"/><line style="stroke:#181818;stroke-width:1;" x1="675.04" x2="669.04" y1="298.2919" y2="306.2919"/><line style="stroke:#181818;stroke-width:1;" x1="675.04" x2="675.04" y1="298.2919" y2="306.2919"/><ellipse cx="675.04" cy="292.2919" fill="none" rx="4" ry="4" style="stroke:#181818;stroke-width:1;"/></g><!--link users to charge_records--><g class="link" data-entity-1="users" data-entity-2="charge_records" data-source-line="89" data-uid="lnk10" id="link_users_charge_records"><path codeLine="89" d="M374.1807,512.2398 C383.5607,531.7198 382.0811,528.624 391.5811,548.354" fill="none" id="users-charge_records" style="stroke:#181818;stroke-width:1;"/><line style="stroke:#181818;stroke-width:1;" x1="368.8414" x2="376.0493" y1="510.3712" y2="506.9005"/><line style="stroke:#181818;stroke-width:1;" x1="370.143" x2="377.3509" y1="513.0742" y2="509.6035"/><line style="stroke:#181818;stroke-width:1;" x1="374.1807" x2="370.71" y1="512.2398" y2="505.0319"/><line style="stroke:#181818;stroke-width:1;" x1="395.9194" x2="404.796" y1="557.364" y2="561.9689"/><line style="stroke:#181818;stroke-width:1;" x1="395.9194" x2="393.984" y1="557.364" y2="567.1749"/><line style="stroke:#181818;stroke-width:1;" x1="395.9194" x2="399.39" y1="557.364" y2="564.5719"/><ellipse cx="393.3164" cy="551.958" fill="none" rx="4" ry="4" style="stroke:#181818;stroke-width:1;"/></g><!--link chargers to charge_records--><g class="link" data-entity-1="chargers" data-entity-2="charge_records" data-source-line="90" data-uid="lnk11" id="link_chargers_charge_records"><path codeLine="90" d="M609.873,481.0906 C589.593,508.9606 581.8222,519.6484 559.7622,549.9584" fill="none" id="chargers-charge_records" style="stroke:#181818;stroke-width:1;"/><line style="stroke:#181818;stroke-width:1;" x1="608.9921" x2="615.4608" y1="475.5027" y2="480.2098"/><line style="stroke:#181818;stroke-width:1;" x1="607.227" x2="613.6957" y1="477.9285" y2="482.6355"/><line style="stroke:#181818;stroke-width:1;" x1="609.873" x2="614.58" y1="481.0906" y2="474.6219"/><line style="stroke:#181818;stroke-width:1;" x1="553.8777" x2="554.0212" y1="558.0437" y2="568.0427"/><line style="stroke:#181818;stroke-width:1;" x1="553.8777" x2="544.3188" y1="558.0437" y2="560.9812"/><line style="stroke:#181818;stroke-width:1;" x1="553.8777" x2="549.17" y1="558.0437" y2="564.5119"/><ellipse cx="557.4084" cy="553.1925" fill="none" rx="4" ry="4" style="stroke:#181818;stroke-width:1;"/></g><!--link users to payments--><g class="link" data-entity-1="users" data-entity-2="payments" data-source-line="91" data-uid="lnk12" id="link_users_payments"><path codeLine="91" d="M193.9925,441.4724 C140.2425,469.6124 88.55,507.6219 58.04,564.8919 C6,662.5619 12.93,712.8319 58.04,813.8819 C70.41,841.5919 77.2488,853.928 99.1588,875.518" fill="none" id="users-payments" style="stroke:#181818;stroke-width:1;"/><line style="stroke:#181818;stroke-width:1;" x1="195.681" x2="199.3915" y1="436.0734" y2="443.1609"/><line style="stroke:#181818;stroke-width:1;" x1="193.0232" x2="196.7337" y1="437.4649" y2="444.5524"/><line style="stroke:#181818;stroke-width:1;" x1="193.9925" x2="201.08" y1="441.4724" y2="437.7619"/><line style="stroke:#181818;stroke-width:1;" x1="106.2817" x2="116.1913" y1="882.5368" y2="883.8782"/><line style="stroke:#181818;stroke-width:1;" x1="106.2817" x2="107.7687" y1="882.5368" y2="892.4256"/><line style="stroke:#181818;stroke-width:1;" x1="106.2817" x2="111.98" y1="882.5368" y2="888.1519"/><ellipse cx="102.008" cy="878.3255" fill="none" rx="4" ry="4" style="stroke:#181818;stroke-width:1;"/></g><!--link charge_records to payments--><g class="link" data-entity-1="charge_records" data-entity-2="payments" data-source-line="92" data-uid="lnk13" id="link_charge_records_payments"><path codeLine="92" d="M359.7159,820.421 C344.5559,840.281 344.7811,839.9912 330.0211,859.3012" fill="none" id="charge_records-payments" style="stroke:#181818;stroke-width:1;"/><line style="stroke:#181818;stroke-width:1;" x1="358.9634" x2="365.3225" y1="814.8144" y2="819.6685"/><line style="stroke:#181818;stroke-width:1;" x1="357.1431" x2="363.5022" y1="817.199" y2="822.0531"/><line style="stroke:#181818;stroke-width:1;" x1="359.7159" x2="364.57" y1="820.421" y2="814.0619"/><line style="stroke:#181818;stroke-width:1;" x1="323.9483" x2="323.8569" y1="867.246" y2="877.2456"/><line style="stroke:#181818;stroke-width:1;" x1="323.9483" x2="314.3231" y1="867.246" y2="869.9582"/><line style="stroke:#181818;stroke-width:1;" x1="323.9483" x2="319.09" y1="867.246" y2="873.6019"/><ellipse cx="327.5919" cy="862.4791" fill="none" rx="4" ry="4" style="stroke:#181818;stroke-width:1;"/></g><!--link users to repairs--><g class="link" data-entity-1="users" data-entity-2="repairs" data-source-line="93" data-uid="lnk14" id="link_users_repairs"><path codeLine="93" d="M437.883,459.2375 C526.843,508.6675 628.04,564.8919 628.04,564.8919 C636.11,571.0719 630.6929,565.8376 638.5729,572.8376" fill="none" id="users-repairs" style="stroke:#181818;stroke-width:1;"/><line style="stroke:#181818;stroke-width:1;" x1="432.4437" x2="436.3293" y1="460.7912" y2="453.7982"/><line style="stroke:#181818;stroke-width:1;" x1="435.0661" x2="438.9517" y1="462.2483" y2="455.2553"/><line style="stroke:#181818;stroke-width:1;" x1="437.883" x2="430.89" y1="459.2375" y2="455.3519"/><line style="stroke:#181818;stroke-width:1;" x1="646.0491" x2="656.0148" y1="579.4789" y2="580.3062"/><line style="stroke:#181818;stroke-width:1;" x1="646.0491" x2="648.0452" y1="579.4789" y2="589.2776"/><line style="stroke:#181818;stroke-width:1;" x1="646.0491" x2="652.03" y1="579.4789" y2="584.7919"/><ellipse cx="641.5633" cy="575.4941" fill="none" rx="4" ry="4" style="stroke:#181818;stroke-width:1;"/></g><!--link chargers to repairs--><g class="link" data-entity-1="chargers" data-entity-2="repairs" data-source-line="94" data-uid="lnk15" id="link_chargers_repairs"><path codeLine="94" d="M697.3793,482.3907 C705.7893,516.6107 709.4193,531.3632 718.2993,567.4532" fill="none" id="chargers-repairs" style="stroke:#181818;stroke-width:1;"/><line style="stroke:#181818;stroke-width:1;" x1="692.5402" x2="700.3091" y1="479.461" y2="477.5517"/><line style="stroke:#181818;stroke-width:1;" x1="693.2562" x2="701.025" y1="482.3743" y2="480.465"/><line style="stroke:#181818;stroke-width:1;" x1="697.3793" x2="695.47" y1="482.3907" y2="474.6219"/><line style="stroke:#181818;stroke-width:1;" x1="720.6886" x2="728.4262" y1="577.1636" y2="583.4984"/><line style="stroke:#181818;stroke-width:1;" x1="720.6886" x2="716.7738" y1="577.1636" y2="586.3655"/><line style="stroke:#181818;stroke-width:1;" x1="720.6886" x2="722.6" y1="577.1636" y2="584.9319"/><ellipse cx="719.255" cy="571.3374" fill="none" rx="4" ry="4" style="stroke:#181818;stroke-width:1;"/></g><!--link users to audit_logs--><g class="link" data-entity-1="users" data-entity-2="audit_logs" data-source-line="95" data-uid="lnk16" id="link_users_audit_logs"><path codeLine="95" d="M258.2974,512.2485 C245.7674,538.4385 243.7311,542.7158 231.4111,568.4558" fill="none" id="users-audit_logs" style="stroke:#181818;stroke-width:1;"/><line style="stroke:#181818;stroke-width:1;" x1="256.4154" x2="263.632" y1="506.9139" y2="510.3665"/><line style="stroke:#181818;stroke-width:1;" x1="255.1207" x2="262.3373" y1="509.6201" y2="513.0728"/><line style="stroke:#181818;stroke-width:1;" x1="258.2974" x2="261.75" y1="512.2485" y2="505.0319"/><line style="stroke:#181818;stroke-width:1;" x1="227.0938" x2="229.052" y1="577.4759" y2="587.2823"/><line style="stroke:#181818;stroke-width:1;" x1="227.0938" x2="218.228" y1="577.4759" y2="582.1015"/><line style="stroke:#181818;stroke-width:1;" x1="227.0938" x2="223.64" y1="577.4759" y2="584.6919"/><ellipse cx="229.6842" cy="572.0639" fill="none" rx="4" ry="4" style="stroke:#181818;stroke-width:1;"/></g><!--SRC=[fLJBRjD05DtxAqPTfL4Z9McBK7OXk91MCIKFXDXODpFJs8ezOut7YaoB18iYmOe56yG28PP8R7X8g19_qvhFO9o77ITsb8gDPTqpzzvpxiiVsym30IuYz0m2Hnvn9WrmATenkEIe1yn7hUCJr6ljQ7xUuvxzdABQWIPjwL1qVNaPlVyPVVqGVViSlNiTVR-AhZuXlOkkF_xHDChKgn05FXK-EjSGAjkaWGQ3zdrKEZtPLOPAHNsOojz0JvhTriDcjrIhLcEax5cSBPdtwxkeD33QZmTw37iEI6gom1rIaNaqTGNVdt11J0jyAqNhXuSnBBX3Lrs6u033ocmCEdgttIhLwdjJ00kg4X4JP0FrsnszrszsJllF519u91TvaUZs9KYRiqtIordjzPbsX-EffmgiF-t7B2mG8ofCp0EcqhMDllv0xoeWJX7ugsgAIAVKvW4tKflJDrFqQ8gMKpPaYVkTWqo3PEYjLVd_s9g2OjNKZPpZKIicl0eeFaAQqevRa6qkPQJ0JiKeDCSJQsbKgdlxSRGpcZC_-P899G6U5ZS7HwMRDr_-_lWTlVrry_BLTXNo87JLx-rhaodj6kfIQN6ojb_WpkPmEx4ZnNq2eOd1SOQ0nwOYwt1GOOzxZunxM-aJr0DxyxWMDLcvSY5p049zB6mlisZv2YnWn57yXc5kwBphi70fbWG1iQNfyD4cLO0bJvadXhpbAWEUIKaEQVtkZAJF0u5f8R0S_ZQjISxRnKMbmi-JcwBDxdt6kjXTBJay-N36TJ7Ksih-hy8Pf_cah2LQs3EFqnxy0m00]--></g></svg>